<svg width="418" height="291" viewBox="0 0 418 291" fill="none" xmlns="http://www.w3.org/2000/svg">
<rect width="418" height="291" fill="white"/>
<path d="M418 256H0V256.195H418V256Z" fill="#EBEBEB"/>
<path d="M376.366 268H332V268.195H376.366V268Z" fill="#EBEBEB"/>
<path d="M277.04 266H228V266.195H277.04V266Z" fill="#EBEBEB"/>
<path d="M334.043 265H318V265.195H334.043V265Z" fill="#EBEBEB"/>
<path d="M120.107 262H84V262.195H120.107V262Z" fill="#EBEBEB"/>
<path d="M78.9078 262H66V262.195H78.9078V262Z" fill="#EBEBEB"/>
<path d="M155.311 266H110V266.195H155.311V266Z" fill="#EBEBEB"/>
<path d="M198.188 220.86H36.7652C35.5006 220.858 34.2886 220.388 33.3952 219.552C32.5018 218.715 32 217.582 32 216.401V4.42033C32.011 3.24576 32.5176 2.12268 33.4099 1.29503C34.3021 0.467382 35.5078 0.0020121 36.7652 0H198.188C199.454 0 200.669 0.469827 201.564 1.30612C202.459 2.14242 202.962 3.27668 202.962 4.45938V216.401C202.962 217.584 202.459 218.718 201.564 219.554C200.669 220.391 199.454 220.86 198.188 220.86ZM36.7652 0.156196C35.5561 0.158265 34.3972 0.608432 33.543 1.40789C32.6888 2.20735 32.209 3.29076 32.209 4.42033V216.401C32.209 217.531 32.6888 218.614 33.543 219.413C34.3972 220.213 35.5561 220.663 36.7652 220.665H198.188C199.398 220.663 200.558 220.213 201.414 219.414C202.269 218.615 202.751 217.531 202.753 216.401V4.42033C202.751 3.29005 202.269 2.20665 201.414 1.40741C200.558 0.608179 199.398 0.158261 198.188 0.156196H36.7652Z" fill="#EBEBEB"/>
<path d="M379.205 220.86H217.774C216.508 220.858 215.295 220.388 214.401 219.552C213.506 218.716 213.002 217.583 213 216.401V4.42033C213.013 3.24505 213.522 2.12198 214.415 1.29454C215.309 0.467109 216.515 0.00199016 217.774 0H379.205C380.461 0.00406459 381.665 0.470343 382.555 1.29777C383.445 2.1252 383.951 3.24711 383.962 4.42033V216.401C383.962 217.581 383.461 218.713 382.57 219.549C381.678 220.385 380.468 220.856 379.205 220.86ZM217.774 0.156196C216.564 0.158261 215.404 0.608179 214.548 1.40741C213.693 2.20665 213.211 3.29005 213.209 4.42033V216.401C213.211 217.531 213.693 218.615 214.548 219.414C215.404 220.213 216.564 220.663 217.774 220.665H379.205C380.415 220.663 381.575 220.213 382.43 219.414C383.286 218.615 383.767 217.531 383.77 216.401V4.42033C383.767 3.29005 383.286 2.20665 382.43 1.40741C381.575 0.608179 380.415 0.158261 379.205 0.156196H217.774Z" fill="#EBEBEB"/>
<path d="M223.214 249H232V151.354H223.214V249Z" fill="#F0F0F0"/>
<path d="M53.7442 256H228V249.494L53.7442 249.494V256Z" fill="#F0F0F0"/>
<path d="M223.216 151H51V248.646H223.216V151Z" fill="#F5F5F5"/>
<path d="M224.921 151H234V144.846H224.921V151Z" fill="#E0E0E0"/>
<path d="M224.647 145H48V151.154H224.647V145Z" fill="#EBEBEB"/>
<path d="M209.893 159H64.5041C60.912 159 58 161.72 58 165.076V186.608C58 189.963 60.912 192.684 64.5041 192.684H209.893C213.485 192.684 216.397 189.963 216.397 186.608V165.076C216.397 161.72 213.485 159 209.893 159Z" fill="white"/>
<path d="M209.893 203H64.5041C60.912 203 58 205.72 58 209.076V230.608C58 233.963 60.912 236.684 64.5041 236.684H209.893C213.485 236.684 216.397 233.963 216.397 230.608V209.076C216.397 205.72 213.485 203 209.893 203Z" fill="white"/>
<path d="M99.6481 163H174.52C175.338 163 176 162.381 176 161.618V159.767C176 159.003 175.338 158.384 174.52 158.384H99.6481C98.8309 158.384 98.1684 159.003 98.1684 159.767V161.618C98.1684 162.381 98.8309 163 99.6481 163Z" fill="#F5F5F5"/>
<path d="M99.6481 206H174.52C175.338 206 176 205.381 176 204.618V202.767C176 202.003 175.338 201.384 174.52 201.384H99.6481C98.8309 201.384 98.1684 202.003 98.1684 202.767V204.618C98.1684 205.381 98.8309 206 99.6481 206Z" fill="#F5F5F5"/>
<path d="M373.501 183H347V187.733H373.501V183Z" fill="#E6E6E6"/>
<path d="M327.109 256H332V94.0253H327.109V256Z" fill="#E6E6E6"/>
<path d="M309.748 188H347V183.267H309.748V188Z" fill="#F5F5F5"/>
<path d="M373.501 227H347V231.733H373.501V227Z" fill="#E6E6E6"/>
<path d="M309.748 232H347V227.267H309.748V232Z" fill="#F5F5F5"/>
<path d="M373.501 96H347V100.733H373.501V96Z" fill="#E6E6E6"/>
<path d="M309.748 101H347V96.2673H309.748V101Z" fill="#F5F5F5"/>
<path d="M373.501 140H347V144.733H373.501V140Z" fill="#E6E6E6"/>
<path d="M309.748 145H347V140.267H309.748V145Z" fill="#F5F5F5"/>
<path d="M364.109 256H369V94.0253H364.109V256Z" fill="#E6E6E6"/>
<path d="M342.109 256H347V94.0253H342.109V256Z" fill="#F5F5F5"/>
<path d="M310.109 256H315V94.0253H310.109V256Z" fill="#F5F5F5"/>
<path d="M73.1288 132L294 132V22.4523L73.1288 22.4523L73.1288 132Z" fill="#E0E0E0"/>
<path d="M67.7044 132L291 132V22.4523L67.7044 22.4523L67.7044 132Z" fill="#F5F5F5"/>
<path d="M283 123.28V31L75.7055 31V123.28L283 123.28Z" fill="white"/>
<path d="M209.092 290.681C298.613 290.681 371.184 286.723 371.184 281.841C371.184 276.958 298.613 273 209.092 273C119.571 273 47 276.958 47 281.841C47 286.723 119.571 290.681 209.092 290.681Z" fill="#F5F5F5"/>
<path d="M324.59 163.201H92.7839C92.0462 163.199 91.3394 162.925 90.8178 162.437C90.2962 161.95 90.0022 161.29 90 160.601C90.0022 159.912 90.2962 159.251 90.8178 158.764C91.3394 158.277 92.0462 158.002 92.7839 158H324.59C325.328 158.002 326.034 158.277 326.556 158.764C327.078 159.251 327.372 159.912 327.374 160.601C327.372 161.29 327.078 161.95 326.556 162.437C326.034 162.925 325.328 163.199 324.59 163.201Z" fill="#407BFF"/>
<path opacity="0.3" d="M324.049 163.201H269.784C269.046 163.199 268.339 162.925 267.818 162.437C267.296 161.95 267.002 161.29 267 160.601C267.002 159.912 267.296 159.251 267.818 158.764C268.339 158.277 269.046 158.002 269.784 158H324.049C324.786 158.002 325.493 158.277 326.015 158.764C326.536 159.251 326.83 159.912 326.833 160.601C326.83 161.29 326.536 161.95 326.015 162.437C325.493 162.925 324.786 163.199 324.049 163.201Z" fill="#263238"/>
<path d="M318.277 170H140V188.126H318.277V170Z" fill="#263238"/>
<path opacity="0.1" d="M318.277 170H140V188.126H318.277V170Z" fill="white"/>
<path d="M316.274 278.116H321.608L321.39 163H314L316.274 278.116Z" fill="#263238"/>
<path opacity="0.1" d="M316.274 278.116H321.608L321.39 163H314L316.274 278.116Z" fill="white"/>
<path d="M267.342 278.116H262L274.072 163H281.462L267.342 278.116Z" fill="#263238"/>
<path opacity="0.2" d="M267.342 278.116H262L274.072 163H281.462L267.342 278.116Z" fill="white"/>
<path d="M138.274 278.116H143.608L143.39 163H136L138.274 278.116Z" fill="#263238"/>
<path opacity="0.1" d="M138.274 278.116H143.608L143.39 163H136L138.274 278.116Z" fill="white"/>
<path d="M89.342 278.116H84L96.0718 163H103.462L89.342 278.116Z" fill="#263238"/>
<path opacity="0.2" d="M89.342 278.116H84L96.0718 163H103.462L89.342 278.116Z" fill="white"/>
<path d="M239.23 158.484H226.924L222 136H234.306L239.23 158.484Z" fill="#263238"/>
<path d="M255.421 153.589H202.034C201.619 153.593 201.207 153.517 200.825 153.365C200.443 153.213 200.099 152.988 199.815 152.706C199.53 152.423 199.312 152.088 199.173 151.723C199.034 151.357 198.978 150.969 199.008 150.582L201.048 119.007C201.11 118.198 201.496 117.44 202.127 116.884C202.758 116.327 203.59 116.012 204.459 116H257.854C258.269 115.997 258.68 116.074 259.061 116.226C259.443 116.379 259.786 116.603 260.071 116.886C260.355 117.168 260.573 117.502 260.713 117.867C260.852 118.232 260.909 118.62 260.88 119.007L258.84 150.582C258.776 151.391 258.389 152.149 257.756 152.706C257.123 153.262 256.29 153.577 255.421 153.589Z" fill="#263238"/>
<path d="M255.421 153.589H202.034C201.619 153.593 201.207 153.517 200.825 153.365C200.443 153.213 200.099 152.988 199.815 152.706C199.53 152.423 199.312 152.088 199.173 151.723C199.034 151.357 198.978 150.969 199.008 150.582L201.048 119.007C201.11 118.198 201.496 117.44 202.127 116.884C202.758 116.327 203.59 116.012 204.459 116H257.854C258.269 115.997 258.68 116.074 259.061 116.226C259.443 116.379 259.786 116.603 260.071 116.886C260.355 117.168 260.573 117.502 260.713 117.867C260.852 118.232 260.909 118.62 260.88 119.007L258.84 150.582C258.776 151.391 258.389 152.149 257.756 152.706C257.123 153.262 256.29 153.577 255.421 153.589Z" fill="#407BFF"/>
<path d="M201.357 152.488C201.172 152.489 200.988 152.455 200.817 152.388C200.646 152.321 200.491 152.222 200.362 152.098C200.237 151.968 200.14 151.816 200.078 151.651C200.016 151.486 199.991 151.311 200.003 151.137L202.043 119.562C202.074 119.145 202.27 118.754 202.593 118.466C202.916 118.177 203.343 118.011 203.79 118H257.185C257.372 117.997 257.557 118.031 257.729 118.099C257.901 118.167 258.055 118.268 258.183 118.395C258.31 118.523 258.408 118.673 258.469 118.838C258.531 119.003 258.555 119.177 258.54 119.351L256.5 150.926C256.471 151.344 256.275 151.736 255.951 152.025C255.628 152.314 255.2 152.479 254.753 152.488H201.357Z" fill="white"/>
<path opacity="0.2" d="M225 116L228.469 127.098L238.769 116H225Z" fill="black"/>
<path d="M142.012 89.1496C142.096 89.7509 142.497 90.2039 142.924 90.1726C143.35 90.1414 143.617 89.6259 143.534 89.0246C143.45 88.4232 143.049 87.9703 142.631 88.0015C142.213 88.0328 141.937 88.5638 142.012 89.1496Z" fill="#263238"/>
<path d="M143 90C143.753 91.5589 144.726 93.0167 145.893 94.3344C144.973 95.2013 143.293 94.8499 143.293 94.8499L143 90Z" fill="#A02724"/>
<path d="M140.428 86.5745C140.364 86.5855 140.299 86.5855 140.235 86.5745C140.143 86.5366 140.069 86.4667 140.03 86.3794C139.991 86.2921 139.99 86.1941 140.026 86.1059C140.244 85.5857 140.593 85.1226 141.045 84.7566C141.496 84.3907 142.036 84.1327 142.618 84.0051C142.667 83.9972 142.717 83.9985 142.765 84.0088C142.814 84.0191 142.859 84.0382 142.9 84.0651C142.94 84.0919 142.974 84.126 143.001 84.1653C143.027 84.2046 143.045 84.2483 143.053 84.294C143.07 84.3871 143.047 84.4828 142.989 84.5603C142.931 84.6378 142.843 84.6908 142.743 84.7079C142.288 84.8109 141.866 85.0173 141.516 85.3088C141.166 85.6003 140.899 85.968 140.737 86.3792C140.706 86.4327 140.662 86.4785 140.608 86.5125C140.554 86.5465 140.492 86.5678 140.428 86.5745Z" fill="#263238"/>
<path d="M123.226 99L128.242 102.592L135.089 107.489C134.714 108.225 134.487 109.019 134.42 109.832C134.178 111.628 133.935 112.956 138.207 114.057C138.661 114.158 139.074 114.379 139.397 114.694C139.72 115.008 139.94 115.402 140.03 115.83C140.197 116.892 139.503 118.173 135.557 118.806C131.735 119.339 127.831 118.718 124.413 117.033C122.741 116.252 122.741 115.315 123.444 113.729C125.55 109.223 124.53 103.475 123.226 99Z" fill="#B55B52"/>
<path d="M117 114.583C117.963 112.852 118.758 111.043 119.374 109.179C119.374 109.179 132.081 108.531 136.278 109.702C140.475 110.874 143.083 115.95 143.083 115.95L117 114.583Z" fill="#407BFF"/>
<path d="M123.077 123.702C122.768 124.577 122.425 125.646 122.099 126.63L121.154 129.676C120.569 131.707 120 133.745 119.557 135.776C119.086 137.761 118.726 139.769 118.479 141.789C118.221 143.646 118.159 145.521 118.295 147.389C118.344 148.179 118.473 148.964 118.679 149.732C118.73 149.888 118.771 150.06 118.83 150.208L118.997 150.63C118.958 150.554 118.913 150.481 118.863 150.411C118.778 150.297 118.686 150.188 118.588 150.083C118.478 149.964 118.354 149.857 118.22 149.763C118.052 149.654 118.027 149.669 118.061 149.708C118.306 149.873 118.569 150.012 118.847 150.122C119.223 150.278 119.683 150.435 120.142 150.583C121.087 150.88 122.132 151.153 123.211 151.419C127.524 152.434 132.231 153.223 136.821 154.137L136.67 159.549C134.219 159.854 131.752 160.045 129.28 160.119C126.772 160.204 124.26 160.165 121.756 160.002C120.43 159.919 119.11 159.767 117.802 159.549C117.116 159.432 116.406 159.299 115.653 159.104C114.788 158.895 113.947 158.604 113.145 158.237C112.551 157.969 111.991 157.642 111.473 157.26C111.107 156.988 110.768 156.685 110.462 156.354C110.27 156.143 110.091 155.921 109.927 155.691C109.843 155.558 109.751 155.425 109.676 155.292L109.567 155.105L108.99 154.004C108.815 153.637 108.673 153.277 108.522 152.91C107.995 151.543 107.614 150.131 107.385 148.693C106.549 143.265 107.21 138.423 108.079 133.714C108.547 131.371 109.099 129.028 109.751 126.802C110.085 125.67 110.437 124.537 110.813 123.421C111.189 122.304 111.59 121.226 112.075 120L123.077 123.702Z" fill="#B55B52"/>
<path d="M114.948 113.365C122.849 111.413 127.539 117.458 124.863 127.423C122.188 137.388 121.294 137.763 121.294 137.763L105 135.225C107.006 125.463 106.848 115.357 114.948 113.365Z" fill="#407BFF"/>
<path d="M140.31 152.109L139.081 152C135.586 152 134.985 152.898 132.836 154.765L132 158.873C137.643 161.567 140.669 158.607 140.678 158.607H145.903L144.063 154.702C143.743 153.996 143.225 153.384 142.565 152.928C141.905 152.472 141.126 152.189 140.31 152.109Z" fill="#B55B52"/>
<path d="M121.199 90.9847C122.62 98.0994 123.063 102.332 127.427 105.511C133.982 110.283 143.01 105.745 143.897 98.3415C144.691 91.6797 142.225 81.16 134.349 79.2934C132.593 78.8882 130.756 78.9029 129.007 79.3362C127.259 79.7694 125.655 80.6073 124.345 81.7724C123.034 82.9374 122.059 84.3922 121.509 86.0023C120.959 87.6124 120.853 89.3259 121.199 90.9847Z" fill="#B55B52"/>
<path d="M135.82 93.3138C141.254 92.9077 139.666 87.558 137.985 86.4412C140.535 85.5353 142.291 81.7553 139.841 79.1625C141.279 75.6559 137.166 71.4308 129.951 72.0634C124.684 72.5164 124.099 75.117 124.099 75.117C124.099 75.117 117.787 74.5001 115.162 79.3656C112.922 83.536 115.639 85.7618 115.639 85.7618C115.639 85.7618 110.924 87.0426 112.228 92.7906C113.616 98.9915 118.715 97.5545 118.715 97.5545C118.715 97.5545 117.57 103.24 124.467 103.318C130.428 103.388 130.503 99.218 130.503 99.218C130.503 99.218 138.228 98.5464 135.82 93.3138Z" fill="#263238"/>
<path d="M132.24 93.7764C132.85 95.3026 134.04 96.5651 135.584 97.3221C137.574 98.2749 139.095 96.299 138.744 94.2685C138.427 92.4488 136.729 90.1136 134.631 90.0043C132.533 89.895 131.496 91.8865 132.24 93.7764Z" fill="#B55B52"/>
<path d="M213.25 269.501L220.682 266.682L215.432 250L208 252.819L213.25 269.501Z" fill="#B55B52"/>
<path opacity="0.2" d="M210.55 260.902L218.057 258.333L215.432 250L208 252.819L210.55 260.902Z" fill="black"/>
<path d="M219.903 263.884L211.401 266.64C211.33 266.661 211.264 266.694 211.206 266.739C211.149 266.783 211.101 266.838 211.066 266.899C211.031 266.961 211.01 267.029 211.003 267.098C210.995 267.167 211.003 267.238 211.025 267.304L212.948 273.724C213.072 274.054 213.329 274.326 213.665 274.481C214.002 274.636 214.389 274.661 214.745 274.552C217.68 273.536 218.867 272.99 222.495 271.521C226.067 270.126 229.56 268.562 232.962 266.836C235.796 265.274 234.09 262.611 232.711 263.048C229.442 264.079 224.083 264.75 221.366 263.876C220.891 263.726 220.377 263.729 219.903 263.884Z" fill="#263238"/>
<path d="M152.902 173.164C152.902 173.164 209.073 177.85 210.528 192.946C213.454 223.662 217.943 253.276 217.943 253.276L206.515 257.181C206.515 257.181 192.529 223.443 192.712 199.389C176.511 195.117 133.908 201.388 126.944 189.713C120.791 179.404 126.192 172 126.192 172L152.902 173.164Z" fill="#263238"/>
<path d="M206.433 259.551L220.661 255.06L220.043 249L204 253.834L206.433 259.551Z" fill="#407BFF"/>
<path d="M223.319 264.14C222.635 264.345 221.928 264.479 221.212 264.539C221.176 264.543 221.139 264.537 221.106 264.522C221.073 264.507 221.046 264.482 221.028 264.453C221.01 264.424 221 264.392 221 264.359C221 264.326 221.01 264.293 221.028 264.265C221.212 264.031 222.851 261.969 223.896 262C224.015 262.007 224.131 262.041 224.233 262.1C224.336 262.158 224.421 262.239 224.481 262.336C224.59 262.474 224.657 262.636 224.676 262.807C224.695 262.977 224.665 263.149 224.59 263.305C224.291 263.72 223.838 264.017 223.319 264.14ZM221.647 264.14C223.093 263.953 224.08 263.594 224.305 263.148C224.353 263.046 224.369 262.934 224.353 262.824C224.336 262.714 224.288 262.61 224.213 262.524C224.187 262.473 224.147 262.431 224.097 262.401C224.047 262.37 223.989 262.353 223.929 262.352C223.327 262.328 222.291 263.336 221.605 264.14H221.647Z" fill="#407BFF"/>
<path d="M220.839 264.604C220.809 264.612 220.777 264.612 220.747 264.604C220.716 264.599 220.687 264.587 220.662 264.569C220.638 264.552 220.618 264.528 220.605 264.502C220.605 264.416 219.643 262.44 220.145 261.503C220.21 261.383 220.303 261.279 220.417 261.197C220.532 261.116 220.664 261.06 220.805 261.034C220.959 260.986 221.126 260.989 221.278 261.041C221.43 261.094 221.558 261.193 221.641 261.323C222.101 262.042 221.524 263.877 220.931 264.541C220.908 264.57 220.876 264.592 220.839 264.604ZM220.839 261.402C220.768 261.424 220.702 261.46 220.646 261.507C220.59 261.554 220.545 261.611 220.513 261.675C220.212 262.229 220.58 263.416 220.856 264.08C221.315 263.346 221.65 261.979 221.349 261.511C221.29 261.425 221.19 261.323 220.922 261.378L220.839 261.402Z" fill="#407BFF"/>
<path d="M173 274.877L180.942 274.525L182.238 257L174.296 257.351L173 274.877Z" fill="#B55B52"/>
<path d="M181.267 273.267L172.272 273.002C172.197 272.996 172.122 273.005 172.051 273.027C171.98 273.049 171.914 273.083 171.857 273.129C171.8 273.175 171.754 273.23 171.72 273.293C171.687 273.356 171.667 273.424 171.661 273.494L171.001 280.124C170.994 280.3 171.025 280.476 171.091 280.641C171.157 280.805 171.258 280.957 171.387 281.085C171.516 281.213 171.671 281.317 171.843 281.389C172.015 281.461 172.2 281.501 172.389 281.506C175.524 281.545 177.02 281.42 180.974 281.506C183.407 281.577 188.197 281.912 191.533 281.506C194.869 281.1 194.359 278.047 192.904 277.929C189.468 277.672 184.862 275.454 182.663 273.728C182.268 273.429 181.775 273.267 181.267 273.267Z" fill="#263238"/>
<path d="M184.267 274.87C183.549 274.831 182.837 274.721 182.143 274.542C182.108 274.534 182.076 274.517 182.051 274.493C182.026 274.468 182.009 274.437 182.003 274.404C181.996 274.37 182.001 274.336 182.016 274.305C182.03 274.274 182.054 274.248 182.085 274.229C182.344 274.065 184.66 272.668 185.63 273.074C185.739 273.118 185.835 273.189 185.908 273.277C185.981 273.366 186.029 273.471 186.048 273.581C186.096 273.746 186.097 273.919 186.05 274.084C186.003 274.248 185.91 274.398 185.78 274.518C185.342 274.812 184.801 274.938 184.267 274.87ZM182.662 274.3C184.083 274.612 185.17 274.604 185.529 274.3C185.612 274.218 185.669 274.116 185.695 274.006C185.722 273.897 185.716 273.782 185.68 273.675C185.672 273.621 185.649 273.569 185.614 273.526C185.579 273.482 185.533 273.447 185.479 273.425C184.927 273.191 183.573 273.777 182.595 274.3H182.662Z" fill="#407BFF"/>
<path d="M182.189 274.333C182.158 274.34 182.127 274.34 182.097 274.333C182.07 274.317 182.047 274.295 182.031 274.269C182.015 274.244 182.006 274.215 182.005 274.185C182.005 274.099 181.896 271.943 182.724 271.241C182.832 271.141 182.966 271.069 183.112 271.031C183.258 270.993 183.412 270.99 183.56 271.022C183.72 271.03 183.872 271.089 183.992 271.188C184.112 271.287 184.192 271.421 184.22 271.569C184.371 272.389 183.125 273.912 182.314 274.333C182.274 274.348 182.229 274.348 182.189 274.333ZM183.384 271.358C183.309 271.353 183.234 271.363 183.163 271.387C183.093 271.411 183.028 271.449 182.974 271.498C182.481 271.912 182.373 273.146 182.373 273.841C183.083 273.31 183.919 272.147 183.819 271.608C183.819 271.506 183.735 271.389 183.468 271.35L183.384 271.358Z" fill="#407BFF"/>
<path opacity="0.2" d="M174.719 257.351L182.669 257L181.917 267.02L174 267.004L174.719 257.351Z" fill="black"/>
<path d="M134.213 172.984C134.213 172.984 194.739 181.629 193.778 194.648C192.048 218.078 183.637 263.866 183.637 263.866L171.716 264.023C171.716 264.023 168.899 217.055 173.388 199.936C158.499 199.936 116.498 199.451 110.772 192.305C104.435 184.41 110.947 172 110.947 172L134.213 172.984Z" fill="#263238"/>
<path d="M170.694 264.333L185.123 264.13L185.834 257L170 257.586L170.694 264.333Z" fill="#407BFF"/>
<path d="M144.906 112.667C140.032 111.777 118.054 112.035 118.054 112.035C115.857 111.978 113.717 112.694 112.058 114.041C110.399 115.387 109.34 117.266 109.092 119.306C108.323 125.639 112.628 139.791 112.779 147.007C112.963 155.871 111.148 159.463 110.965 171.397L152.907 173.193C152.907 149.194 151.786 129.325 150.775 119.798C150.415 116.447 149.78 113.55 144.906 112.667Z" fill="#407BFF"/>
<path opacity="0.3" d="M144.906 112.667C140.032 111.777 118.054 112.035 118.054 112.035C115.857 111.978 113.717 112.694 112.058 114.041C110.399 115.387 109.34 117.266 109.092 119.306C108.323 125.639 112.628 139.791 112.779 147.007C112.963 155.871 111.148 159.463 110.965 171.397L152.907 173.193C152.907 149.194 151.786 129.325 150.775 119.798C150.415 116.447 149.78 113.55 144.906 112.667Z" fill="white"/>
<path d="M151.428 121C152.741 125.217 154.062 129.552 155.424 133.785C156.787 138.018 158.183 142.274 159.755 146.28C160.139 147.303 160.591 148.256 160.959 149.24L161.602 150.622L161.686 150.794V150.88V150.927V150.872C161.541 150.631 161.361 150.411 161.151 150.216C160.867 149.959 160.758 149.935 160.733 149.935C160.919 150.092 161.134 150.217 161.368 150.302C161.777 150.487 162.199 150.646 162.631 150.779C163.575 151.083 164.637 151.357 165.715 151.63C170.088 152.669 174.861 153.465 179.509 154.395L179.359 159.807C176.863 160.121 174.352 160.312 171.835 160.377C169.287 160.468 166.736 160.424 164.194 160.244C162.842 160.154 161.497 159.992 160.164 159.76C159.462 159.635 158.735 159.479 157.949 159.268C157.017 159.024 156.119 158.678 155.274 158.237C154.6 157.876 153.982 157.432 153.435 156.917C153.017 156.515 152.657 156.063 152.364 155.574L152.08 155.082L151.136 153.411C150.584 152.317 149.982 151.216 149.464 150.13C148.435 147.936 147.532 145.765 146.629 143.586C145.727 141.407 144.957 139.228 144.18 137.041C142.633 132.644 141.237 128.294 140 123.765L151.428 121Z" fill="#B55B52"/>
<path d="M139.546 115.708C145.281 110.241 152.612 113.224 155.764 123.096C158.916 132.968 158.347 133.686 158.347 133.686L142.94 139.27C139.303 129.867 133.677 121.276 139.546 115.708Z" fill="#407BFF"/>
<path d="M183.301 152.109L182.073 152C178.578 152 177.985 152.898 175.836 154.765L175 158.873C180.643 161.567 183.669 158.607 183.669 158.607H188.903L187.055 154.702C186.736 153.995 186.219 153.382 185.558 152.926C184.898 152.469 184.119 152.188 183.301 152.109Z" fill="#B55B52"/>
<path d="M113.297 202H166.868C168.046 202 169 201.108 169 200.008V196.791C169 195.691 168.046 194.799 166.868 194.799H113.297C112.12 194.799 111.166 195.691 111.166 196.791V200.008C111.166 201.108 112.12 202 113.297 202Z" fill="#407BFF"/>
<path d="M113.374 282.175H111L113.734 202H117.019L113.374 282.175Z" fill="#407BFF"/>
<path opacity="0.4" d="M113.374 282.175H111L113.734 202H117.019L113.374 282.175Z" fill="white"/>
<path d="M135.637 282.175H138.011L135.285 202H132L135.637 282.175Z" fill="#407BFF"/>
<path opacity="0.4" d="M135.637 282.175H138.011L135.285 202H132L135.637 282.175Z" fill="white"/>
<path d="M144.374 282.175H142L144.734 202H148.019L144.374 282.175Z" fill="#407BFF"/>
<path opacity="0.4" d="M144.374 282.175H142L144.734 202H148.019L144.374 282.175Z" fill="white"/>
<path d="M166.637 282.175H169.011L166.285 202H163L166.637 282.175Z" fill="#407BFF"/>
<path opacity="0.4" d="M166.637 282.175H169.011L166.285 202H163L166.637 282.175Z" fill="white"/>
<g opacity="0.3">
<path opacity="0.3" d="M114.117 202H117.403L117.244 205.413H114L114.117 202Z" fill="#407BFF"/>
<path opacity="0.3" d="M135.394 205.413H132.15L132 202H135.277L135.394 205.413Z" fill="#407BFF"/>
<path opacity="0.3" d="M148.394 202L148.244 205.413H145L145.117 202H148.394Z" fill="#407BFF"/>
<path opacity="0.3" d="M166.403 205.413H163.15L163 202H166.286L166.403 205.413Z" fill="#407BFF"/>
</g>
<path d="M324.504 104.241H190.602C189.562 104.251 188.53 104.059 187.573 103.678C186.616 103.297 185.754 102.735 185.042 102.026C184.329 101.318 183.781 100.479 183.433 99.5634C183.085 98.6474 182.944 97.674 183.02 96.7045L188.128 17.5368C188.288 15.5085 189.256 13.6098 190.841 12.2149C192.425 10.82 194.511 10.03 196.688 10.0004H330.557C331.597 9.99028 332.629 10.1819 333.586 10.5631C334.543 10.9442 335.405 11.5067 336.118 12.215C336.83 12.9232 337.378 13.7619 337.726 14.6779C338.074 15.5939 338.215 16.5674 338.139 17.5368L333.023 96.7357C332.857 98.7526 331.892 100.639 330.317 102.027C328.742 103.415 326.669 104.204 324.504 104.241Z" fill="#407BFF"/>
<path d="M209 88L221.348 127.471L257.981 88H209Z" fill="#407BFF"/>
<path opacity="0.1" d="M318.305 72.8262H243.266C242.683 72.8319 242.104 72.7246 241.567 72.5109C241.03 72.2973 240.547 71.982 240.147 71.585C239.747 71.188 239.44 70.7179 239.244 70.2043C239.049 69.6907 238.969 69.1448 239.011 68.6011L241.878 24.226C241.968 23.0888 242.51 22.0243 243.399 21.2423C244.287 20.4602 245.456 20.0173 246.677 20.0009H321.716C322.302 19.9892 322.883 20.0925 323.423 20.3041C323.963 20.5156 324.449 20.8308 324.85 21.2291C325.251 21.6274 325.558 22.1 325.751 22.6163C325.945 23.1325 326.02 23.6809 325.971 24.226L323.104 68.6011C323.014 69.7383 322.472 70.8028 321.584 71.5848C320.695 72.3669 319.526 72.8098 318.305 72.8262Z" fill="white"/>
<path opacity="0.1" d="M278.305 91.8261H203.258C202.675 91.8307 202.097 91.7225 201.562 91.5084C201.026 91.2943 200.543 90.9789 200.144 90.582C199.745 90.1851 199.439 89.7153 199.243 89.2023C199.048 88.6892 198.969 88.144 199.011 87.601L201.878 43.2258C201.968 42.09 202.509 41.0266 203.396 40.2447C204.282 39.4629 205.45 39.0191 206.669 39.0007H281.716C282.301 38.9901 282.881 39.0943 283.42 39.3063C283.959 39.5184 284.444 39.8337 284.844 40.2319C285.245 40.6301 285.551 41.1023 285.744 41.618C285.936 42.1337 286.011 42.6814 285.963 43.2258L283.096 87.601C283.006 88.7368 282.465 89.8002 281.578 90.5821C280.692 91.3639 279.524 91.8077 278.305 91.8261Z" fill="white"/>
<g opacity="0.5">
<path opacity="0.5" d="M202.465 17.3429C202.45 17.9426 202.196 18.5154 201.752 18.9488C201.308 19.3823 200.707 19.6451 200.066 19.6859C199.762 19.6718 199.464 19.598 199.192 19.4693C198.92 19.3407 198.68 19.16 198.487 18.939C198.295 18.7181 198.154 18.4618 198.075 18.1868C197.996 17.9118 197.979 17.6243 198.026 17.3429C198.045 16.7443 198.301 16.1736 198.744 15.7408C199.187 15.3081 199.786 15.0442 200.426 15C200.73 15.0141 201.028 15.0879 201.3 15.2165C201.572 15.3452 201.812 15.5259 202.004 15.7468C202.197 15.9678 202.337 16.2241 202.417 16.4991C202.496 16.774 202.513 17.0616 202.465 17.3429Z" fill="white"/>
<path opacity="0.5" d="M210.474 17.3429C210.457 17.9421 210.202 18.5138 209.758 18.9469C209.315 19.38 208.714 19.6434 208.074 19.6859C207.769 19.6728 207.47 19.5998 207.197 19.4716C206.924 19.3434 206.683 19.1629 206.49 18.9418C206.297 18.7207 206.156 18.4641 206.076 18.1886C205.996 17.9131 205.979 17.6249 206.026 17.3429C206.045 16.7443 206.301 16.1736 206.744 15.7408C207.187 15.3081 207.786 15.0442 208.426 15C208.73 15.0142 209.029 15.088 209.301 15.2166C209.573 15.3452 209.814 15.5257 210.007 15.7465C210.2 15.9673 210.341 16.2234 210.421 16.4984C210.502 16.7734 210.52 17.0611 210.474 17.3429Z" fill="white"/>
<path opacity="0.5" d="M218.465 17.3429C218.45 17.9426 218.196 18.5154 217.752 18.9488C217.308 19.3823 216.707 19.6451 216.066 19.6859C215.762 19.6718 215.464 19.598 215.192 19.4693C214.92 19.3407 214.68 19.16 214.487 18.939C214.295 18.7181 214.154 18.4618 214.075 18.1868C213.996 17.9118 213.979 17.6243 214.026 17.3429C214.045 16.7443 214.301 16.1736 214.744 15.7408C215.187 15.3081 215.786 15.0442 216.426 15C216.73 15.0141 217.028 15.0879 217.3 15.2165C217.572 15.3452 217.812 15.5259 218.004 15.7468C218.197 15.9678 218.337 16.2241 218.417 16.4991C218.496 16.774 218.513 17.0616 218.465 17.3429Z" fill="white"/>
</g>
<path opacity="0.3" d="M323.679 103.639H189.811C188.742 103.647 187.683 103.448 186.701 103.055C185.718 102.663 184.833 102.084 184.102 101.357C183.37 100.629 182.807 99.7682 182.449 98.8277C182.09 97.8872 181.944 96.8876 182.019 95.8918L187.135 16.7241C187.296 14.646 188.285 12.6998 189.907 11.2698C191.53 9.83981 193.667 9.02998 195.897 9.00022H329.732C330.801 8.99238 331.859 9.19108 332.842 9.58384C333.824 9.9766 334.709 10.5549 335.441 11.2825C336.173 12.0101 336.735 12.8711 337.094 13.8116C337.452 14.7521 337.598 15.7517 337.523 16.7475L332.415 95.9152C332.253 97.9887 331.267 99.9306 329.651 101.36C328.034 102.789 325.904 103.602 323.679 103.639ZM195.897 9.39852C193.77 9.42275 191.73 10.1923 190.182 11.5548C188.634 12.9173 187.69 14.7734 187.537 16.7553L182.42 95.923C182.346 96.8662 182.483 97.8134 182.821 98.7048C183.159 99.5963 183.691 100.412 184.384 101.102C185.077 101.791 185.916 102.338 186.847 102.709C187.778 103.08 188.782 103.266 189.794 103.256H323.679C325.806 103.23 327.844 102.46 329.392 101.098C330.94 99.7359 331.885 97.8809 332.039 95.8996L337.147 16.7319C337.219 15.786 337.08 14.8364 336.738 13.9433C336.397 13.0502 335.861 12.2331 335.164 11.5438C334.467 10.8544 333.624 10.3077 332.689 9.93847C331.754 9.56919 330.747 9.38533 329.732 9.39852H195.897Z" fill="#263238"/>
<path d="M251.218 57.6261C250.65 58.7507 250.131 59.7113 249.546 60.75C248.961 61.7887 248.376 62.7259 247.774 63.7021C246.545 65.6467 245.266 67.607 243.895 69.4345C243.204 70.3716 242.496 71.301 241.771 72.2225C241.011 73.1285 240.292 74.05 239.481 74.9325C237.899 76.7616 236.193 78.4937 234.373 80.1182C233.913 80.54 233.411 80.8992 232.926 81.3444C232.445 81.7659 231.937 82.1597 231.405 82.5236L229.8 83.6561L229.307 83.9762C229.088 84.1055 228.862 84.2229 228.629 84.3277C228.17 84.5335 227.688 84.6907 227.191 84.7963C226.21 85.0105 225.19 85.0179 224.205 84.8179C223.221 84.618 222.296 84.2158 221.498 83.6404C221.103 83.3489 220.741 83.0191 220.42 82.6564L220.194 82.3753L220.085 82.2347L220.044 82.1722L219.893 81.9223L219.291 80.907C219.107 80.579 218.982 80.2666 218.831 79.9464C218.305 78.768 217.874 77.554 217.544 76.3149C216.962 74.0568 216.554 71.7627 216.323 69.4501C216.079 67.198 215.973 64.9346 216.006 62.6712C216.024 62.029 216.286 61.4139 216.747 60.9367C217.207 60.4595 217.835 60.1517 218.517 60.0688C219.199 59.9859 219.89 60.1333 220.466 60.4844C221.041 60.8356 221.464 61.3674 221.657 61.9839V62.0776C222.765 66.058 224.136 69.9704 225.762 73.7923C226.134 74.6009 226.567 75.3839 227.058 76.1352C227.166 76.2914 227.275 76.4789 227.384 76.6116L227.701 76.9709L227.777 77.0646L227.735 77.0021L227.643 76.885C227.512 76.7249 227.36 76.5806 227.191 76.4554C226.858 76.204 226.47 76.0228 226.055 75.9244C225.638 75.8422 225.208 75.8422 224.792 75.9244C224.576 75.967 224.366 76.0325 224.165 76.1196C224.056 76.1196 223.965 76.2211 223.864 76.268C223.764 76.3149 223.613 76.432 223.722 76.3461L224.767 75.3933C225.118 75.0965 225.461 74.7373 225.804 74.3937C226.146 74.05 226.498 73.7142 226.832 73.3471C229.588 70.2591 232.097 66.9858 234.339 63.5537C235.485 61.8121 236.613 60.0393 237.683 58.243L239.297 55.5409L240.827 52.9012L240.91 52.7606C241.636 51.5473 242.835 50.6428 244.258 50.236C245.68 49.8292 247.216 49.9516 248.544 50.5775C249.872 51.2035 250.89 52.2846 251.386 53.5952C251.881 54.9057 251.815 56.3443 251.201 57.6105L251.218 57.6261Z" fill="#263238"/>
<path d="M217.071 62.3572L213 60.1782L217.381 56C218.665 56.8887 219.854 57.8903 220.934 58.9911C221.188 59.243 221.375 59.547 221.481 59.8788C221.587 60.2105 221.608 60.5608 221.543 60.9016C221.478 61.2424 221.329 61.5643 221.107 61.8414C220.885 62.1186 220.597 62.3434 220.265 62.4977C219.76 62.7165 219.206 62.818 218.65 62.7936C218.094 62.7691 217.552 62.6194 217.071 62.3572Z" fill="#FFC3BD"/>
<path d="M211.566 55.718L213.782 54.2419C214.07 54.0463 214.428 53.9645 214.78 54.0142C215.132 54.0639 215.449 54.2411 215.663 54.5074L216.875 56.0147L212.494 60.193L211.115 57.2565C210.989 56.9906 210.966 56.6925 211.048 56.4124C211.13 56.1322 211.313 55.887 211.566 55.718Z" fill="#FFC3BD"/>
<path d="M242.531 53.8184C242.863 52.7979 243.49 51.8825 244.342 51.173C245.194 50.4635 246.24 49.9871 247.363 49.7963C248.986 49.4613 250.631 49.2265 252.287 49.0935C257.273 48.9117 262.267 48.9951 267.243 49.3434C269.851 49.5074 272.518 49.851 274.642 50.179H274.717C275.841 50.3533 276.846 50.937 277.511 51.8023C278.175 52.6675 278.445 53.7436 278.262 54.7946C277.217 60.4333 274.148 70.2423 273.814 79.4969C273.371 91.6489 273.572 98.6465 273.346 101.575L239.864 100.974C237.532 71.2732 240.433 60.5426 242.531 53.8184Z" fill="white"/>
<path d="M275.225 49.9606H275.125C272.884 49.617 270.109 49.2499 267.325 49.0781L265.837 49C264.374 54.6543 255.654 64.1666 253.013 78.5834C251.993 66.5329 251.207 53.9358 252.703 49.0234C250.337 49.0906 247.976 49.2757 245.631 49.5779C244.39 49.8401 243.246 50.4046 242.315 51.2139C241.384 52.0233 240.7 53.0487 240.331 54.1857C238.274 59.84 234.345 72.5074 236.761 103.653H273.971C274.214 100.529 273.344 93.9687 274.69 83.8707C275.986 74.0928 277.85 60.785 278.945 54.8417C279.142 53.734 278.86 52.5988 278.163 51.6842C277.466 50.7695 276.41 50.1499 275.225 49.9606Z" fill="#263238"/>
<path opacity="0.2" d="M252.457 101.9C252.4 101.902 252.345 101.884 252.303 101.849C252.261 101.814 252.235 101.765 252.231 101.713C251.445 92.9267 252.916 80.3139 252.933 80.1811C252.936 80.1544 252.945 80.1285 252.959 80.1049C252.973 80.0814 252.992 80.0607 253.014 80.044C253.037 80.0273 253.063 80.0149 253.09 80.0076C253.118 80.0003 253.147 79.9982 253.176 80.0015C253.234 80.0074 253.288 80.0344 253.325 80.0767C253.363 80.119 253.381 80.1733 253.376 80.228C253.376 80.3529 251.888 92.9345 252.674 101.674C252.677 101.701 252.675 101.729 252.667 101.755C252.658 101.781 252.644 101.806 252.626 101.827C252.607 101.848 252.584 101.866 252.557 101.878C252.531 101.891 252.503 101.898 252.473 101.9H252.457Z" fill="white"/>
<path opacity="0.3" d="M273.732 61.7543C272.353 67.5961 273.088 75.687 274.568 83.0672C275.663 74.7811 277.16 64.027 278.255 57.3731C276.725 56.4203 274.827 57.0919 273.732 61.7543Z" fill="black"/>
<path d="M253.177 49.3774C257.516 48.4871 258.268 45.988 257.959 43.2233C257.882 42.5326 257.762 41.8468 257.599 41.1694L263.017 37.0302L267.004 34C265.917 38.4828 264.722 46.6596 267.999 49.7133C267.999 49.7133 265.324 53.8134 257.883 53.3136C251.597 52.8918 253.177 49.3774 253.177 49.3774Z" fill="#FFC3BD"/>
<path d="M259.204 52L258 53.0699L261.846 54.421L261.344 53.0543L259.204 52Z" fill="#E0E0E0"/>
<path d="M261.943 56.1768C261.943 56.1768 260.43 52.6078 259 51.8502C261.812 51.2239 264.387 49.8926 266.449 48L268.731 48.8513C268.731 48.8513 269.45 52.9904 261.943 56.1768Z" fill="#F5F5F5"/>
<path d="M257.143 52L258.046 53.3433L254 53.6713L254.811 52.4764L257.143 52Z" fill="#E0E0E0"/>
<path d="M252.26 55.0288C253.742 53.5534 255.495 52.3368 257.434 51.4363C255.236 50.8271 255.102 48 255.102 48L252.97 48.3827C252.97 48.3827 249.058 51.9361 252.26 55.0288Z" fill="#F5F5F5"/>
<path opacity="0.2" d="M257 41.1314C257.163 41.8115 257.283 42.5 257.359 43.1931C259.383 42.8495 262.091 40.8502 262.375 38.9368C262.472 38.2952 262.491 37.6456 262.434 37L257 41.1314Z" fill="black"/>
<path d="M251.194 20.7167C249.254 22.9425 249.438 30.9944 253.543 31.0881C257.648 31.1818 254.722 16.6556 251.194 20.7167Z" fill="#263238"/>
<path d="M268.698 25.8712C268.289 31.9707 268.372 35.5554 265.078 38.7105C260.129 43.451 252.104 40.7254 250.557 34.6572C249.178 29.1904 250.081 20.1389 256.459 17.6632C257.852 17.1063 259.375 16.8948 260.881 17.0489C262.388 17.2031 263.826 17.7178 265.056 18.5432C266.287 19.3686 267.269 20.4769 267.907 21.7606C268.545 23.0444 268.818 24.4602 268.698 25.8712Z" fill="#FFC3BD"/>
<path d="M265.601 21.5307C261.496 25.3341 266.83 28.1222 264.765 30.1683C268.635 32.0583 267.214 33.4484 267.214 33.4484C266.813 34.4883 266.813 35.6262 267.214 36.6661C271.578 35.6195 279.679 22.0774 270.834 20C265.542 22.2024 265.601 21.5307 265.601 21.5307Z" fill="#263238"/>
<path d="M267.069 24.2596C263.181 24.8219 258.291 23.0881 255.256 21.6199C252.221 20.1516 251.778 22.9241 252.898 23.7676C250.951 23.8301 248.484 22.3931 249.095 19.1832C249.655 16.2546 253.76 13.4821 259.603 15.9578C263.741 17.7072 268.841 15.4033 270.831 17.426C272.82 19.4488 269.66 23.8769 267.069 24.2596Z" fill="#263238"/>
<path d="M270 19.5531C272.608 19.2329 272.717 17.6944 271.99 15C274.807 18.7409 273.662 19.8889 271.99 20.7949C270.125 20.2091 270 19.5531 270 19.5531Z" fill="#263238"/>
<path d="M269.964 31.2021C269.386 32.3952 268.377 33.3601 267.114 33.9277C265.5 34.6072 264.681 33.217 265.116 31.5848C265.508 30.1087 266.788 27.9845 268.46 28.0001C270.132 28.0157 270.692 29.6948 269.964 31.2021Z" fill="#FFC3BD"/>
<path d="M258.221 27.8981C258.221 28.3901 257.936 28.7963 257.594 28.8041C257.251 28.8119 257 28.4058 257 27.8981C257 27.3905 257.284 27 257.627 27C257.97 27 258.221 27.3983 258.221 27.8981Z" fill="#263238"/>
<path d="M252.254 27.8903C252.254 28.3901 251.97 28.7884 251.619 28.7963C251.268 28.8041 250.992 28.398 251 27.8981C251.009 27.3983 251.276 27 251.627 27C251.978 27 252.254 27.3983 252.254 27.8903Z" fill="#263238"/>
<path d="M254.508 28C253.883 29.5211 253.039 30.9556 252 32.2641C252.36 32.5005 252.771 32.6612 253.204 32.7354C253.637 32.8095 254.082 32.7953 254.508 32.6937V28Z" fill="#ED847E"/>
<path d="M256.769 34.8856C257.376 34.8221 257.962 34.6415 258.491 34.3551C259.019 34.0687 259.477 33.6829 259.837 33.2222C259.86 33.1901 259.867 33.151 259.859 33.1137C259.85 33.0763 259.826 33.0437 259.791 33.023C259.757 33.0023 259.715 32.9952 259.675 33.0032C259.635 33.0113 259.6 33.0339 259.578 33.066C259.176 33.557 258.657 33.9538 258.062 34.2249C257.467 34.496 256.813 34.634 256.151 34.6279C256.13 34.6279 256.11 34.6318 256.091 34.6393C256.072 34.6469 256.055 34.6579 256.041 34.6718C256.027 34.6857 256.016 34.7021 256.009 34.7201C256.002 34.7381 255.999 34.7572 256 34.7763C256 34.7954 256.004 34.8144 256.012 34.832C256.021 34.8496 256.032 34.8654 256.047 34.8786C256.062 34.8917 256.08 34.9019 256.099 34.9085C256.118 34.9151 256.139 34.9179 256.159 34.9169C256.376 34.8856 256.577 34.8856 256.769 34.8856Z" fill="#263238"/>
<path d="M261.585 26.6479C261.638 26.6451 261.688 26.6259 261.727 26.5932C261.761 26.5709 261.789 26.5424 261.81 26.5095C261.831 26.4767 261.845 26.4401 261.851 26.402C261.856 26.364 261.853 26.3253 261.842 26.2883C261.831 26.2514 261.812 26.2169 261.786 26.1871C261.499 25.8173 261.122 25.5167 260.686 25.3103C260.249 25.1038 259.767 24.9975 259.278 25C259.238 25.0029 259.198 25.0134 259.162 25.0308C259.126 25.0483 259.095 25.0723 259.069 25.1014C259.043 25.1306 259.024 25.1643 259.012 25.2006C259.001 25.2368 258.997 25.2749 259.002 25.3124C259.01 25.3905 259.051 25.4624 259.115 25.5133C259.179 25.5643 259.261 25.5902 259.345 25.5858C259.733 25.5824 260.116 25.6673 260.462 25.8334C260.807 25.9994 261.103 26.2414 261.326 26.5386C261.357 26.5748 261.396 26.6037 261.441 26.6227C261.487 26.6417 261.536 26.6504 261.585 26.6479Z" fill="#263238"/>
<path d="M249.365 26.0787C249.414 26.0723 249.462 26.0548 249.502 26.0276C249.543 26.0004 249.576 25.9643 249.599 25.9225C249.759 25.5845 250.002 25.2867 250.308 25.0532C250.615 24.8197 250.976 24.6573 251.363 24.5792C251.404 24.5756 251.444 24.564 251.479 24.5451C251.515 24.5262 251.546 24.5004 251.571 24.4694C251.595 24.4384 251.613 24.403 251.621 24.3654C251.63 24.3278 251.63 24.2889 251.622 24.2512C251.608 24.176 251.564 24.1086 251.499 24.0623C251.433 24.016 251.352 23.9942 251.271 24.0013C250.783 24.0911 250.326 24.2882 249.936 24.5761C249.547 24.864 249.236 25.2346 249.03 25.657C248.995 25.7266 248.99 25.8062 249.017 25.8791C249.043 25.9519 249.099 26.0123 249.172 26.0475C249.232 26.0735 249.299 26.0843 249.365 26.0787Z" fill="#263238"/>
<path d="M280.037 53.1499C281.057 55.157 281.91 57.0547 282.746 59.0072C283.582 60.9596 284.326 62.9511 285.07 64.9426C286.53 69.0015 287.708 73.1441 288.598 77.3445C288.79 78.4301 289.007 79.4922 289.15 80.609L289.258 81.4369L289.317 81.8508V82.0616V82.3506C289.4 83.1583 289.4 83.9717 289.317 84.7794C289.123 86.5469 288.472 88.2437 287.419 89.723C286.432 91.078 285.136 92.2116 283.624 93.0422C282.364 93.7335 281.008 94.2591 279.594 94.6041C278.336 94.926 277.048 95.1404 275.748 95.2446C273.297 95.4612 270.825 95.3692 268.4 94.9712C267.742 94.8681 267.143 94.5546 266.705 94.0843C266.268 93.614 266.019 93.0162 266.001 92.3933C265.983 91.7704 266.198 91.161 266.608 90.6696C267.018 90.1782 267.598 89.8353 268.25 89.6996L268.55 89.6371C269.386 89.4575 270.482 89.2388 271.418 89.0045C272.354 88.7702 273.307 88.4969 274.193 88.2236C275.741 87.7607 277.175 87.0176 278.415 86.0368C278.743 85.7529 278.993 85.3993 279.143 85.0059C279.202 84.7301 279.202 84.4461 279.143 84.1703C279.114 83.9599 279.072 83.7512 279.017 83.5455L278.716 82.2725C278.524 81.3822 278.248 80.4606 277.997 79.5547C277.479 77.7194 276.894 75.8841 276.225 74.041C275.556 72.1979 274.871 70.3626 274.143 68.5273C273.416 66.692 272.647 64.8567 271.869 63.0605C271.092 61.2642 270.273 59.3742 269.495 57.6639V57.5858C268.87 56.283 268.824 54.8015 269.368 53.4672C269.912 52.1329 271.001 51.0552 272.396 50.4711C273.791 49.887 275.377 49.8444 276.805 50.3526C278.233 50.8608 279.387 51.8783 280.012 53.1811L280.037 53.1499Z" fill="#263238"/>
<path d="M265.687 92.4264L262 94.0821L268.37 96.1985C268.37 96.1985 272.617 94.9333 270.561 92.731L269.415 92.3951C267.576 91.8328 266.673 91.8953 265.687 92.4264Z" fill="#FFC3BD"/>
<path d="M262.528 98.2017L265.329 98.7015C265.729 98.7702 266.142 98.7206 266.511 98.5596C266.879 98.3986 267.185 98.1343 267.385 97.8034L268.405 96.093L262.035 94L261.199 95.6322C261.069 95.8791 261.001 96.1503 261 96.4253C260.999 96.7003 261.065 96.9719 261.193 97.2195C261.321 97.4671 261.508 97.6842 261.739 97.8544C261.971 98.0245 262.24 98.1433 262.528 98.2017Z" fill="#FFC3BD"/>
</svg>
