<svg width="477" height="318" viewBox="0 0 477 318" fill="none" xmlns="http://www.w3.org/2000/svg">
<path d="M477 0H0V318H477V0Z" fill="white"/>
<path opacity="0.2" d="M60.0432 281.443C60.0432 281.443 18.3916 232.903 65.3157 180.077C103.132 137.465 91.0609 121.025 89.3119 92.3091C87.8364 68.0075 115.388 32.0672 156.645 30.2737C224.252 27.3353 241.062 49.0611 276.957 47.522C312.853 45.9829 329.084 33.4028 370.774 38.3636C448.143 47.5538 437.687 120.878 426.436 175.682C415.186 230.486 449.04 249.204 424.662 281.481" fill="#B5D0FF"/>
<path d="M271.336 273.485H206L213.098 245.578L214.707 239.249L217.83 227H259.507L262.629 239.249L264.239 245.578L271.336 273.485Z" fill="#0D2A9E"/>
<path d="M264.141 245.328H213L214.609 239H262.532L264.141 245.328Z" fill="#0D2A9E"/>
<path d="M296.503 281.036H181.018C179.687 281.036 178.411 280.507 177.47 279.566C176.529 278.625 176 277.349 176 276.018C176 274.687 176.529 273.411 177.47 272.47C178.411 271.529 179.687 271 181.018 271H296.503C297.834 271 299.11 271.529 300.051 272.47C300.992 273.411 301.521 274.687 301.521 276.018C301.521 277.349 300.992 278.625 300.051 279.566C299.11 280.507 297.834 281.036 296.503 281.036Z" fill="#274FED"/>
<path d="M345.213 108.292V231.084C345.211 232.488 344.652 233.834 343.659 234.826C342.665 235.818 341.319 236.376 339.915 236.376H137.298C136.602 236.376 135.914 236.24 135.271 235.975C134.628 235.709 134.044 235.319 133.552 234.828C133.06 234.336 132.67 233.753 132.403 233.11C132.137 232.468 132 231.779 132 231.084V108.292C132 107.596 132.137 106.907 132.403 106.265C132.67 105.623 133.06 105.039 133.552 104.548C134.044 104.056 134.628 103.667 135.271 103.401C135.914 103.135 136.602 102.999 137.298 103H339.915C341.319 103 342.665 103.557 343.659 104.549C344.652 105.542 345.211 106.888 345.213 108.292Z" fill="#274FED"/>
<path d="M341.015 107H136V215.273H341.015V107Z" fill="#1A2F84"/>
<g opacity="0.3">
<path opacity="0.3" d="M320.749 107H315V199.08H320.749V107Z" fill="#AAB9F4"/>
<path opacity="0.3" d="M334.749 107H329V199.08H334.749V107Z" fill="#AAB9F4"/>
<path opacity="0.3" d="M145.749 107H140V199.08H145.749V107Z" fill="#AAB9F4"/>
<path opacity="0.3" d="M160.749 107H155V199.08H160.749V107Z" fill="#AAB9F4"/>
<path opacity="0.3" d="M174.749 107H169V199.08H174.749V107Z" fill="#AAB9F4"/>
<path opacity="0.3" d="M189.749 107H184V199.08H189.749V107Z" fill="#AAB9F4"/>
<path opacity="0.3" d="M203.749 107H198V199.08H203.749V107Z" fill="#AAB9F4"/>
<path opacity="0.3" d="M218.749 107H213V199.08H218.749V107Z" fill="#AAB9F4"/>
<path opacity="0.3" d="M232.749 107H227V199.08H232.749V107Z" fill="#AAB9F4"/>
<path opacity="0.3" d="M247.749 107H242V199.08H247.749V107Z" fill="#AAB9F4"/>
<path opacity="0.3" d="M261.749 107H256V199.08H261.749V107Z" fill="#AAB9F4"/>
<path opacity="0.3" d="M276.749 107H271V199.08H276.749V107Z" fill="#AAB9F4"/>
<path opacity="0.3" d="M291.749 107H286V199.08H291.749V107Z" fill="#AAB9F4"/>
<path opacity="0.3" d="M305.749 107H300V199.08H305.749V107Z" fill="#AAB9F4"/>
</g>
<path d="M341.015 199H136V215.193H341.015V199Z" fill="#1A2F84"/>
<path d="M237.916 230.826C236.613 230.823 235.365 230.304 234.444 229.383C233.522 228.461 233.003 227.213 233 225.91C233.005 224.608 233.525 223.361 234.446 222.441C235.367 221.522 236.615 221.003 237.916 221C239.218 221.003 240.466 221.522 241.387 222.441C242.308 223.361 242.828 224.608 242.833 225.91C242.829 227.213 242.31 228.461 241.389 229.383C240.468 230.304 239.219 230.823 237.916 230.826Z" fill="#0D2A9E"/>
<path opacity="0.2" d="M253.405 236.312H239L276.874 103H291.273L253.405 236.312Z" fill="url(#paint0_linear)"/>
<path opacity="0.2" d="M289.547 236.312H259L296.867 103H327.421L289.547 236.312Z" fill="url(#paint1_linear)"/>
<path d="M332.812 209.18H164.59C164.168 209.18 163.764 209.013 163.466 208.714C163.168 208.416 163 208.012 163 207.59C163 207.168 163.168 206.764 163.466 206.466C163.764 206.168 164.168 206 164.59 206H332.812C333.234 206 333.638 206.168 333.936 206.466C334.234 206.764 334.402 207.168 334.402 207.59C334.402 208.012 334.234 208.416 333.936 208.714C333.638 209.013 333.234 209.18 332.812 209.18Z" fill="#B1C0F9"/>
<path d="M248.714 206V209.18H164.59C164.168 209.18 163.764 209.013 163.466 208.714C163.168 208.416 163 208.012 163 207.59C163 207.168 163.168 206.764 163.466 206.466C163.764 206.168 164.168 206 164.59 206H248.714Z" fill="#F98094"/>
<path d="M248.862 209.724C250.443 209.724 251.724 208.443 251.724 206.862C251.724 205.281 250.443 204 248.862 204C247.281 204 246 205.281 246 206.862C246 208.443 247.281 209.724 248.862 209.724Z" fill="white"/>
<path d="M155.896 208.719C156.706 205.287 154.581 201.847 151.148 201.037C147.716 200.227 144.277 202.353 143.467 205.785C142.657 209.218 144.782 212.657 148.215 213.467C151.647 214.277 155.086 212.151 155.896 208.719Z" fill="white"/>
<path d="M148.343 204.042L151.841 206.738C151.868 206.758 151.889 206.783 151.904 206.812C151.919 206.842 151.926 206.874 151.926 206.907C151.926 206.939 151.919 206.972 151.904 207.001C151.889 207.03 151.868 207.056 151.841 207.075L148.343 209.772C148.313 209.797 148.275 209.814 148.235 209.818C148.195 209.823 148.155 209.817 148.119 209.799C148.083 209.782 148.052 209.754 148.031 209.72C148.01 209.686 147.999 209.647 148 209.607V204.207C148.002 204.168 148.014 204.13 148.036 204.097C148.057 204.065 148.087 204.038 148.122 204.021C148.157 204.004 148.197 203.997 148.236 204.001C148.275 204.004 148.312 204.018 148.343 204.042Z" fill="#854DCE"/>
<path d="M62.9818 267.003C62.9818 267.003 32.1994 225.415 41.8857 216.537C51.572 207.658 65.634 238.937 62.9818 267.003Z" fill="#617FF1"/>
<path d="M45.038 222.343C50.5405 230.785 54.9493 239.891 58.1586 249.443C59.5578 253.598 60.7514 257.808 61.7393 262.074C62.6615 266.081 63.2657 270.138 64.0989 274.158C64.1108 274.203 64.1387 274.242 64.1774 274.268C64.2161 274.293 64.2629 274.304 64.309 274.298C64.3551 274.292 64.3973 274.269 64.4277 274.234C64.4581 274.199 64.4746 274.153 64.4741 274.107C63.8381 265.642 61.4849 257.018 58.7501 249.004C55.6012 239.45 51.1153 230.391 45.4259 222.095C45.2606 221.866 44.879 222.095 45.038 222.324V222.343Z" fill="#7878C4"/>
<path d="M44.0955 227.356C46.6967 229.201 49.1835 231.306 51.7975 233.08C51.9628 233.188 52.1155 232.953 52.001 232.82C49.8313 230.404 47.2107 228.436 44.2863 227.026C44.2424 227 44.1903 226.993 44.1414 227.007C44.0925 227.02 44.0508 227.052 44.0255 227.095C44.0002 227.139 43.9934 227.191 44.0065 227.24C44.0196 227.289 44.0516 227.331 44.0955 227.356Z" fill="#7878C4"/>
<path d="M45.1209 230.356C47.7222 232.201 50.2089 234.299 52.8229 236.08C52.9883 236.195 53.1409 235.959 53.0264 235.819C50.8483 233.403 48.219 231.434 45.2863 230.026C45.2424 230 45.1903 229.993 45.1414 230.007C45.0925 230.02 45.0508 230.052 45.0255 230.096C45.0002 230.139 44.9934 230.191 45.0065 230.24C45.0196 230.289 45.0516 230.331 45.0955 230.356H45.1209Z" fill="#7878C4"/>
<path d="M69.5401 262.445C69.5401 262.445 99.2159 220.069 89.3261 211.444C79.4363 202.82 66.1502 234.468 69.5401 262.445Z" fill="#617FF1"/>
<path d="M86.0242 216.08C80.1771 225.118 75.7139 234.979 72.7827 245.336C70.296 253.865 68.2989 263.017 68 271.927C68 272.137 68.3434 272.194 68.3752 271.978C69.0112 267.761 69.4564 263.526 70.2196 259.328C71.0499 254.762 72.1113 250.24 73.3996 245.781C76.3876 235.421 80.7649 225.513 86.4122 216.328C86.5648 216.08 86.1832 215.864 86.0242 216.105V216.08Z" fill="#7878C4"/>
<path d="M70.0883 242.191C69.8538 245.725 70.0869 249.275 70.7816 252.748C70.7925 252.787 70.8169 252.82 70.8502 252.841C70.8835 252.863 70.9236 252.872 70.963 252.867C71.0025 252.861 71.0386 252.842 71.0649 252.812C71.0911 252.782 71.1057 252.744 71.1059 252.704C71.1068 251.053 71.0219 249.404 70.8515 247.762C70.7307 245.911 70.6671 244.042 70.4699 242.191C70.4699 242.14 70.4498 242.092 70.414 242.056C70.3782 242.02 70.3297 242 70.2791 242C70.2285 242 70.18 242.02 70.1442 242.056C70.1084 242.092 70.0883 242.14 70.0883 242.191Z" fill="#0E7C74"/>
<path d="M67.0163 247.334C67.0163 247.334 37.1243 205.098 47.0014 196.454C56.8785 187.811 70.279 219.344 67.0163 247.334Z" fill="#AAB9F4"/>
<path d="M50.0354 201.327C60.3958 217.92 66.158 236.892 68.1232 256.29C68.5175 260.182 68.6893 264.081 68.9818 267.986C68.9901 268.031 69.014 268.072 69.0495 268.102C69.0849 268.131 69.1296 268.148 69.1758 268.148C69.222 268.148 69.2667 268.131 69.3021 268.102C69.3376 268.072 69.3615 268.031 69.3698 267.986C69.5479 260.487 68.5939 252.849 67.3219 245.478C65.7174 235.866 62.9959 226.474 59.2129 217.494C56.7809 211.775 53.8369 206.287 50.417 201.098C50.2643 200.862 49.8827 201.098 50.0354 201.327Z" fill="#7878C4"/>
<path d="M65.234 259.482C65.234 259.482 83.6144 234.22 77.7378 228.91C71.8611 223.599 63.4914 242.552 65.234 259.482Z" fill="#AAB9F4"/>
<path d="M76.0234 232.069C71.5029 238.775 68.2381 246.247 66.388 254.12C64.957 259.933 63.7804 266.324 64.0348 272.341C64.0431 272.386 64.067 272.427 64.1024 272.457C64.1379 272.487 64.1826 272.503 64.2288 272.503C64.2749 272.503 64.3197 272.487 64.3551 272.457C64.3906 272.427 64.4145 272.386 64.4228 272.341C65.1605 266.267 65.593 260.257 67.0749 254.31C68.9939 246.532 72.146 239.112 76.4114 232.33C76.564 232.082 76.1824 231.866 76.0234 232.101V232.069Z" fill="#7878C4"/>
<path d="M77.2825 259L77.1362 259.967L76.8309 262.021L73.899 281.724H56.3835L53.4452 262.021L53.1399 259.967L53 259H77.2825Z" fill="#617FF1"/>
<path d="M76.9963 260L76.691 262.054H53.3053L53 260H76.9963Z" fill="#7878C4"/>
<path d="M77.3876 260.875H52.4246C52.0483 260.87 51.6888 260.718 51.4227 260.452C51.1566 260.186 51.0049 259.826 51 259.45C51 259.066 51.1528 258.697 51.4247 258.425C51.6967 258.153 52.0655 258 52.4501 258H77.4131C77.7976 258 78.1665 258.153 78.4384 258.425C78.7104 258.697 78.8631 259.066 78.8631 259.45C78.8607 259.641 78.8204 259.829 78.7448 260.004C78.6691 260.179 78.5595 260.338 78.4223 260.47C78.2851 260.602 78.1231 260.706 77.9455 260.776C77.7679 260.845 77.5783 260.879 77.3876 260.875Z" fill="#AAB9F4"/>
<path d="M88.6954 186.789V199.82C88.6952 200.009 88.6375 200.193 88.5301 200.348C88.4461 200.469 88.3338 200.568 88.203 200.635C88.0722 200.703 87.9268 200.738 87.7796 200.736H68.636C68.4 200.739 68.1721 200.65 68 200.488V188.404C68.0017 188.193 68.0868 187.99 68.2369 187.842C68.387 187.693 68.5899 187.609 68.8014 187.609H82.2528C82.358 187.608 82.462 187.587 82.5589 187.546C82.6558 187.505 82.7437 187.445 82.8175 187.37C82.8914 187.295 82.9497 187.206 82.9892 187.108C83.0287 187.011 83.0486 186.907 83.0478 186.801C83.0478 186.589 83.1322 186.385 83.2825 186.235C83.4328 186.084 83.6366 186 83.8491 186H87.8877C88.0987 186 88.3013 186.082 88.4522 186.23C88.6032 186.377 88.6905 186.578 88.6954 186.789Z" fill="#383493"/>
<path d="M88.077 200.99C87.993 201.111 87.8807 201.21 87.7499 201.277C87.6191 201.345 87.4738 201.379 87.3265 201.378H68.1829C67.9469 201.38 67.7191 201.292 67.5469 201.13C67.4649 201.056 67.3998 200.965 67.3561 200.863C67.3418 200.844 67.331 200.822 67.3243 200.799L63.0631 191.075C63.0126 190.958 62.9919 190.83 63.0029 190.703C63.0139 190.576 63.0563 190.454 63.1263 190.347C63.1963 190.241 63.2917 190.153 63.4039 190.092C63.5161 190.032 63.6416 190 63.7691 190H82.7473C82.8961 189.999 83.0419 190.041 83.1672 190.121C83.2925 190.201 83.3918 190.316 83.4533 190.452L87.4792 199.591L88.077 200.99Z" fill="#5146AF"/>
<path d="M46 282H430.068" stroke="#1438C7" stroke-width="2" stroke-linecap="round" stroke-linejoin="round"/>
<path d="M87.8556 49H175.859C176.981 49 178.056 49.4456 178.85 50.2388C179.643 51.0319 180.088 52.1077 180.088 53.2294V121.218C180.088 121.459 179.993 121.69 179.822 121.861C179.651 122.031 179.42 122.127 179.179 122.127H85.9095C85.79 122.127 85.6718 122.104 85.5614 122.058C85.4511 122.012 85.3508 121.945 85.2664 121.861C85.1819 121.776 85.1149 121.676 85.0692 121.566C85.0235 121.456 85 121.337 85 121.218V51.8493C85 51.4746 85.0739 51.1036 85.2175 50.7574C85.3611 50.4113 85.5715 50.097 85.8368 49.8323C86.102 49.5676 86.4169 49.3579 86.7633 49.2151C87.1097 49.0723 87.4809 48.9992 87.8556 49Z" fill="#AAB9F4"/>
<path d="M173.898 103H89.7999C88.8058 103 88 103.806 88 104.8V116.947C88 117.942 88.8058 118.747 89.7999 118.747H173.898C174.892 118.747 175.698 117.942 175.698 116.947V104.8C175.698 103.806 174.892 103 173.898 103Z" fill="white"/>
<path d="M174.553 94H89.1448C88.5125 94 88 94.5125 88 95.1448V99.2406C88 99.8729 88.5125 100.385 89.1448 100.385H174.553C175.186 100.385 175.698 99.8729 175.698 99.2406V95.1448C175.698 94.5125 175.186 94 174.553 94Z" fill="white"/>
<path opacity="0.31" d="M139.446 60.8175H89.4119C89.2263 60.8183 89.0423 60.7824 88.8706 60.7117C88.6989 60.6411 88.543 60.5371 88.4117 60.4058C88.2804 60.2746 88.1764 60.1186 88.1058 59.9469C88.0351 59.7752 87.9992 59.5912 88 59.4056C88 59.2205 88.0366 59.0372 88.1076 58.8662C88.1786 58.6953 88.2828 58.54 88.4139 58.4094C88.5451 58.2788 88.7008 58.1754 88.8721 58.1052C89.0434 58.0349 89.2268 57.9992 89.4119 58H139.446C139.631 57.9992 139.815 58.0349 139.986 58.1052C140.157 58.1754 140.313 58.2788 140.444 58.4094C140.575 58.54 140.679 58.6953 140.75 58.8662C140.821 59.0372 140.858 59.2205 140.858 59.4056C140.859 59.5912 140.823 59.7752 140.752 59.9469C140.682 60.1186 140.578 60.2746 140.446 60.4058C140.315 60.5371 140.159 60.6411 139.987 60.7117C139.816 60.7824 139.632 60.8183 139.446 60.8175Z" fill="white"/>
<path opacity="0.31" d="M139.446 66.8175H89.4119C89.2263 66.8183 89.0423 66.7824 88.8706 66.7117C88.6989 66.6411 88.543 66.5371 88.4117 66.4058C88.2804 66.2746 88.1764 66.1186 88.1058 65.9469C88.0351 65.7752 87.9992 65.5912 88 65.4056C88 65.2205 88.0366 65.0372 88.1076 64.8662C88.1786 64.6953 88.2828 64.54 88.4139 64.4094C88.5451 64.2788 88.7008 64.1754 88.8721 64.1052C89.0434 64.0349 89.2268 63.9992 89.4119 64H139.446C139.631 63.9992 139.815 64.0349 139.986 64.1052C140.157 64.1754 140.313 64.2788 140.444 64.4094C140.575 64.54 140.679 64.6953 140.75 64.8662C140.821 65.0372 140.858 65.2205 140.858 65.4056C140.859 65.5912 140.823 65.7752 140.752 65.9469C140.682 66.1186 140.578 66.2746 140.446 66.4058C140.315 66.5371 140.159 66.6411 139.987 66.7117C139.816 66.7824 139.632 66.8183 139.446 66.8175Z" fill="white"/>
<path opacity="0.31" d="M139.446 72.8238H89.4119C89.0375 72.8238 88.6783 72.6751 88.4135 72.4103C88.1488 72.1455 88 71.7864 88 71.4119C88 71.0375 88.1488 70.6783 88.4135 70.4135C88.6783 70.1488 89.0375 70 89.4119 70H139.446C139.821 70 140.18 70.1488 140.444 70.4135C140.709 70.6783 140.858 71.0375 140.858 71.4119C140.858 71.7864 140.709 72.1455 140.444 72.4103C140.18 72.6751 139.821 72.8238 139.446 72.8238Z" fill="white"/>
<path opacity="0.31" d="M139.446 78.8238H89.4119C89.0375 78.8238 88.6783 78.6751 88.4135 78.4103C88.1488 78.1455 88 77.7864 88 77.4119C88 77.0375 88.1488 76.6783 88.4135 76.4135C88.6783 76.1488 89.0375 76 89.4119 76H139.446C139.821 76 140.18 76.1488 140.444 76.4135C140.709 76.6783 140.858 77.0375 140.858 77.4119C140.858 77.7864 140.709 78.1455 140.444 78.4103C140.18 78.6751 139.821 78.8238 139.446 78.8238Z" fill="white"/>
<path opacity="0.31" d="M139.446 84.8238H89.4119C89.0375 84.8238 88.6783 84.6751 88.4135 84.4103C88.1488 84.1455 88 83.7864 88 83.4119C88 83.0375 88.1488 82.6783 88.4135 82.4135C88.6783 82.1488 89.0375 82 89.4119 82H139.446C139.821 82 140.18 82.1488 140.444 82.4135C140.709 82.6783 140.858 83.0375 140.858 83.4119C140.858 83.7864 140.709 84.1455 140.444 84.4103C140.18 84.6751 139.821 84.8238 139.446 84.8238Z" fill="white"/>
<path opacity="0.31" d="M127.693 90.8175H89.4119C89.2263 90.8183 89.0423 90.7824 88.8706 90.7117C88.6989 90.6411 88.543 90.5371 88.4117 90.4058C88.2804 90.2746 88.1764 90.1186 88.1058 89.9469C88.0351 89.7752 87.9992 89.5912 88 89.4056C88 89.2205 88.0366 89.0372 88.1076 88.8662C88.1786 88.6953 88.2828 88.54 88.4139 88.4094C88.5451 88.2788 88.7008 88.1754 88.8721 88.1052C89.0434 88.0349 89.2268 87.9992 89.4119 88H127.693C128.066 88 128.424 88.1479 128.689 88.4113C128.954 88.6747 129.103 89.0322 129.105 89.4056C129.105 89.78 128.956 90.1392 128.691 90.404C128.426 90.6687 128.067 90.8175 127.693 90.8175Z" fill="white"/>
<path d="M179.122 46H85.9667C85.8396 45.9992 85.7135 46.0236 85.5958 46.0719C85.4781 46.1202 85.3712 46.1913 85.2813 46.2813C85.1913 46.3712 85.1202 46.4781 85.0719 46.5958C85.0236 46.7135 84.9992 46.8396 85 46.9667V54.0963H180.082V46.9667C180.084 46.8399 180.06 46.7139 180.012 46.5963C179.965 46.4786 179.894 46.3717 179.805 46.2816C179.715 46.1916 179.609 46.1203 179.492 46.072C179.374 46.0236 179.249 45.9992 179.122 46Z" fill="#274FED"/>
<path d="M165.755 50.8777C165.755 51.0513 165.704 51.221 165.607 51.3653C165.511 51.5096 165.374 51.6221 165.214 51.6885C165.053 51.755 164.877 51.7724 164.706 51.7385C164.536 51.7046 164.38 51.621 164.257 51.4983C164.134 51.3756 164.051 51.2192 164.017 51.0489C163.983 50.8787 164 50.7022 164.067 50.5418C164.133 50.3814 164.246 50.2444 164.39 50.1479C164.534 50.0515 164.704 50 164.878 50C165.11 50 165.334 50.0925 165.498 50.2571C165.663 50.4217 165.755 50.6449 165.755 50.8777Z" fill="white"/>
<path d="M169.755 50.8777C169.755 51.0513 169.704 51.221 169.607 51.3653C169.511 51.5096 169.374 51.6221 169.214 51.6885C169.053 51.755 168.877 51.7724 168.706 51.7385C168.536 51.7046 168.38 51.621 168.257 51.4983C168.134 51.3756 168.051 51.2192 168.017 51.0489C167.983 50.8787 168 50.7022 168.067 50.5418C168.133 50.3814 168.246 50.2444 168.39 50.1479C168.534 50.0515 168.704 50 168.878 50C169.11 50 169.334 50.0925 169.498 50.2571C169.663 50.4217 169.755 50.6449 169.755 50.8777Z" fill="white"/>
<path d="M174.755 50.8779C174.755 51.0507 174.704 51.2196 174.609 51.3635C174.513 51.5073 174.377 51.6198 174.218 51.6868C174.059 51.7537 173.883 51.7722 173.713 51.7398C173.544 51.7075 173.387 51.6258 173.264 51.5049C173.14 51.3841 173.055 51.2295 173.019 51.0605C172.983 50.8915 172.998 50.7157 173.061 50.555C173.125 50.3944 173.235 50.256 173.376 50.1573C173.518 50.0586 173.686 50.004 173.859 50.0002C173.975 49.9977 174.092 50.0185 174.2 50.0615C174.309 50.1044 174.408 50.1687 174.492 50.2504C174.575 50.3322 174.641 50.4298 174.687 50.5375C174.732 50.6453 174.755 50.761 174.755 50.8779Z" fill="white"/>
<path d="M176.622 58.9095V88.9986C176.622 89.2432 176.525 89.4778 176.352 89.6507C176.179 89.8237 175.944 89.9208 175.7 89.9208H145.916C145.672 89.9192 145.439 89.8213 145.268 89.6485C145.096 89.4757 145 89.2421 145 88.9986V58.9095C145.002 58.6677 145.099 58.4364 145.27 58.266C145.442 58.0956 145.674 58 145.916 58H175.7C175.942 58 176.175 58.0954 176.347 58.2656C176.52 58.4358 176.619 58.6671 176.622 58.9095Z" fill="white"/>
<path d="M175.697 83.721V89.3369C175.697 89.5815 175.599 89.8161 175.426 89.989C175.253 90.162 175.019 90.2591 174.774 90.2591H160L160.636 83.6956L167.588 76L175.697 83.721Z" fill="#274FED"/>
<path d="M172.488 90.4836H145.916C145.672 90.482 145.439 90.3841 145.268 90.2113C145.096 90.0385 145 89.8049 145 89.5614V83.9201L155.405 73L172.488 90.4836Z" fill="#274FED"/>
<path d="M172.34 66.6697C172.34 67.3955 172.124 68.105 171.721 68.7085C171.318 69.312 170.745 69.7823 170.074 70.0601C169.404 70.3378 168.666 70.4105 167.954 70.2689C167.242 70.1273 166.588 69.7778 166.075 69.2646C165.562 68.7514 165.212 68.0975 165.071 67.3856C164.929 66.6738 165.002 65.9359 165.279 65.2654C165.557 64.5948 166.027 64.0217 166.631 63.6185C167.234 63.2152 167.944 63 168.67 63C169.152 62.9992 169.629 63.0935 170.075 63.2776C170.521 63.4618 170.926 63.732 171.267 64.073C171.607 64.4139 171.878 64.8188 172.062 65.2644C172.246 65.71 172.34 66.1876 172.34 66.6697Z" fill="#274FED"/>
<path d="M221.118 189.018L211.178 171.961L195.373 173.233L191.061 177.163C190.508 176.527 190.629 176.667 190.196 176.178C186.863 172.444 179.06 166.237 172.871 159.845C168.474 155.271 164.37 150.423 160.584 145.332L159.312 145.968C159.312 145.332 159.312 144.874 159.312 144.874L153.747 137.439L147.005 137L142 143.08L142.261 146.336C142.261 146.336 142.343 151.355 146.261 151.857C147.438 152.01 150.408 152.576 151.349 153.218C154.021 155.08 156.182 157.584 157.633 160.5C162.053 169.156 168.489 181.488 174.538 192.097C174.749 192.488 174.98 192.868 175.231 193.235C177.336 196.587 183.855 206.279 189.185 206.737C195.666 207.253 221.118 189.018 221.118 189.018Z" fill="#F7B59C"/>
<path d="M244.066 99.983C244.066 99.983 246.191 96.803 249.11 96.0525C252.029 95.302 245.93 102.845 245.93 102.845C245.93 102.845 244.283 103.57 244.092 103.449C243.901 103.328 244.066 99.983 244.066 99.983Z" fill="#01263A"/>
<path d="M297.702 77C297.702 77 318.525 84.4794 293.733 105.963L290 104.825L297.702 77Z" fill="#003051"/>
<path d="M245 141.973C250.895 149.181 259.093 154.14 268.214 156.015C291.282 155.577 295.212 142.869 295.212 142.869L282.327 140.026C282.327 140.026 281.939 123.204 289.088 112.831C294.436 113.861 296.949 105.415 295.448 103.151C293.851 100.69 292.058 101.014 292.058 101.014C290.538 102.661 289.158 106.541 288.477 108.455L256.34 125.074C256.678 125.824 256.967 126.595 257.205 127.383C257.908 129.638 258.398 131.955 258.668 134.302C258.902 136.399 258.996 138.509 258.947 140.618L245 141.973ZM286.219 112.081C286.9 110.917 287.637 109.74 288.458 108.557C288.172 109.378 287.955 110.115 287.822 110.719C286.893 111.514 286.238 112.081 286.219 112.106V112.081Z" fill="#F7B59C"/>
<path d="M258 127.413C258.694 129.676 259.173 131.999 259.431 134.352C286.194 128.488 286.963 114 286.963 114L273.213 119.59L258 127.413Z" fill="#ED9780"/>
<path d="M253.228 68C253.228 68 247.396 78.812 251.409 85.9734L260.689 73.953" fill="#01263A"/>
<path d="M242.929 122.448C249.092 132.185 271.696 131.988 282.298 117.996C292.9 104.004 294.636 88.0342 289.332 78.1953C286.387 72.7257 279.334 69.5648 272.402 69.0496C270.553 68.9151 268.695 69.0544 266.887 69.463C262.619 70.4292 258.782 72.7628 255.961 76.1092C255.7 76.4209 255.459 76.7452 255.217 77.0442L253.589 79.1875C253.372 79.4673 253.175 79.7472 252.985 80.0461C251.959 81.5671 251.166 83.2327 250.631 84.9878C250.343 85.9017 250.131 86.8376 249.995 87.7862C249.531 91.039 248.215 94.111 246.179 96.6902C241.524 102.427 236.773 112.717 242.929 122.448Z" fill="#F7B59C"/>
<path d="M256 76.6526C258.299 77.6014 260.717 78.2306 263.187 78.5224C268.58 79.1584 279.449 80.2523 283.094 84.2464C284.278 85.5114 285.117 87.0599 285.529 88.7429C286.426 91.8593 283.507 78.1535 283.507 78.1535L266.92 70C262.654 70.973 258.821 73.3082 256 76.6526Z" fill="#ED9780"/>
<path d="M287.146 93C287.146 93 287.095 107.113 279.628 110.846C272.162 114.579 267.055 109.975 263.646 107.539C261.687 106.14 261 109.727 261 109.727C261 109.727 264.892 116.195 266.838 116.195C268.785 116.195 276.627 116.093 277.224 115.712C277.822 115.33 282.312 113.168 282.312 113.168C282.312 113.168 285.397 107.901 285.613 107.342C285.829 106.782 289.34 100.785 289.181 100.028C289.022 99.271 289.073 94.3038 289.073 94.3038L287.146 93Z" fill="#ED9780"/>
<path d="M253.575 49.1056C251.82 49.449 250.223 53.0615 249.505 54.6833C248.425 56.9379 247.993 59.4475 248.254 61.9334C248.516 64.4192 249.462 66.7838 250.987 68.7643C256.075 75.8112 267.052 75.8239 275.244 77.9291C282.526 79.8371 286.157 84.499 285.674 89.8477C285.619 90.5743 285.71 91.3047 285.943 91.9952C286.176 92.6857 286.545 93.3224 287.029 93.8673L287.188 94.0517C287.631 94.5599 287.951 95.1634 288.123 95.8152C288.295 96.4671 288.314 97.1498 288.18 97.8105C287.321 102.046 284.65 110.74 278.08 112.648C272.407 114.327 270.073 112.197 269.138 111.478C265.837 108.966 263.967 106.18 257.518 103.038C254.167 101.404 250.561 101.626 245.854 100.94C244.983 100.812 243.768 100.698 243.634 99.286C243.634 99.286 233.369 111.325 240.55 123.848C241.436 125.403 242.631 126.761 244.06 127.838C245.489 128.915 247.123 129.689 248.862 130.113C253.69 131.277 261.703 131.951 271.027 127.741C286.291 120.846 291.303 105.105 293.332 100.157C295.36 95.2092 300.633 81.8787 296.702 69.6293C294.273 62.0545 286.59 55.6373 274.029 55.084C265.278 54.6706 258.79 48.0943 253.575 49.1056Z" fill="#003051"/>
<path d="M263.487 110.73C263.299 111.07 263.087 111.395 262.851 111.703C261.471 113.497 257.858 116.893 251.695 113.898C250.927 113.573 250.232 113.097 249.653 112.496C249.074 111.896 248.622 111.185 248.325 110.406C247.383 107.735 248.789 105 248.789 105C250.523 106.098 252.324 107.086 254.182 107.957C256.866 109.229 260.173 110.47 263.15 110.705L263.487 110.73Z" fill="#8D1612"/>
<path d="M262.984 110.201L262.825 110.748L262.526 111.746C261.146 113.54 257.534 116.936 251.371 113.94C250.602 113.616 249.908 113.139 249.328 112.539C248.749 111.939 248.297 111.228 248 110.449C250.544 108.006 253.088 108 253.088 108H257.228L262.984 110.201Z" fill="#FF4C2F"/>
<path d="M248.73 105C248.73 105 247.006 107.143 247 107.76C247 108.714 258.359 114.05 258.97 114.088C259.58 114.127 260.63 111.939 260.63 111.939L256.031 109.198" fill="#FAFFF7"/>
<path d="M249.343 81.7756C249.196 82.0564 249.095 82.3593 249.045 82.6724C248.946 83.0895 249.013 83.5288 249.233 83.8969C249.452 84.2651 249.807 84.5331 250.221 84.644C252.352 85.4072 258.807 87.9575 258.807 87.9575C259.481 88.3518 259.488 87.6204 259.284 87.188C258.432 85.4072 257.58 83.2002 251.468 81.1332C250.609 80.8725 249.712 80.9488 249.343 81.7756Z" fill="#003051"/>
<path d="M280.37 94.1177C280.122 94.7537 280.37 94.1813 279.925 94.9445C279.692 95.3053 279.328 95.5606 278.909 95.6557C278.491 95.7508 278.052 95.6781 277.686 95.4534C275.67 94.4294 269.374 91.5038 269.374 91.5038C268.629 91.2812 269.151 90.7787 269.609 90.6261C271.479 89.9901 273.667 89.1188 279.378 92.1334C280.179 92.5532 280.72 93.2782 280.37 94.1177Z" fill="#003051"/>
<path d="M246 105.768C246 105.768 249.581 110.322 254.554 108.948C254.554 108.948 254.599 112.675 262.956 113.896L263.681 110.977C263.681 110.977 258.307 108.115 257.957 108.331C257.607 108.547 252.494 106.964 251.52 106.779C250.547 106.595 247.221 104 247.221 104L246 105.768Z" fill="#003051"/>
<path d="M293.597 103.017C293.597 103.017 290.564 107.336 291.053 109.218C291.053 109.218 291.168 108.124 293.96 108.143C293.96 108.143 295.76 105.631 294.857 103.755C294.769 103.503 294.594 103.29 294.363 103.154C294.132 103.019 293.861 102.971 293.597 103.017Z" fill="#ED9780"/>
<path d="M268.842 95.7934C267.888 97.3452 267.487 99.037 269.045 100.245C269.325 100.415 269.651 100.488 269.976 100.455C270.301 100.422 270.606 100.283 270.845 100.061C271.434 99.4945 271.9 98.8124 272.213 98.0575C273.275 96.0414 270.057 93.7836 268.842 95.7679V95.7934Z" fill="#452E17"/>
<path d="M269.223 96.1988C268.969 96.6058 268.867 97.051 269.274 97.3754C269.347 97.419 269.433 97.4376 269.518 97.4284C269.602 97.4192 269.682 97.3828 269.744 97.3245C269.954 97.1273 269.897 96.9238 270.024 96.6885C270.08 96.5827 270.092 96.4599 270.061 96.3449C270.029 96.2299 269.954 96.1313 269.853 96.069C269.751 96.0068 269.629 95.9856 269.512 96.0097C269.395 96.0338 269.292 96.1014 269.223 96.1988Z" fill="white"/>
<path d="M252.719 89.6114C251.93 90.8134 251.58 92.1554 252.782 93.1475C252.999 93.2871 253.254 93.3527 253.511 93.3343C253.768 93.316 254.012 93.2147 254.207 93.0458C254.68 92.5442 255.05 91.9542 255.294 91.3095C256.178 89.7386 253.723 88.0723 252.719 89.6114Z" fill="#452E17"/>
<path d="M253.19 91.1501C252.987 91.4681 252.891 91.7861 253.19 92.0786C253.245 92.1184 253.31 92.1399 253.378 92.1399C253.445 92.1399 253.511 92.1184 253.565 92.0786C253.731 91.926 253.692 91.7606 253.794 91.5762C253.847 91.4918 253.865 91.3899 253.843 91.2926C253.821 91.1954 253.761 91.111 253.677 91.0578C253.592 91.0047 253.49 90.9873 253.393 91.0093C253.296 91.0314 253.211 91.0912 253.158 91.1755L253.19 91.1501Z" fill="white"/>
<path d="M160.378 146.141C160.378 146.141 152.402 129.013 146.837 125C146.837 125 144.885 125.305 145.114 127.684C145.343 130.063 148.714 132.988 148.866 135.214C149.019 137.44 147.524 137.122 145.686 136.709C143.848 136.295 130.219 128.702 128.877 129.369C127.535 130.037 128.915 131.462 129.875 132.225C130.836 132.988 138.105 137.567 138.105 137.567C138.105 137.567 125.004 130.381 124.024 132.88C123.388 134.495 135.567 140.754 135.567 140.754C135.567 140.754 125.105 134.89 124.628 137.065C124.215 138.922 133.087 143.081 133.087 143.081C133.087 143.081 127.605 140.213 127.191 141.472C126.67 143.069 134.283 147.196 136.49 148.64C138.697 150.084 144.058 152.348 146.189 152.348C148.319 152.348 149.897 152.081 151.067 153.27" fill="#F7B59C"/>
<path d="M306.313 182.77L310.714 199.058H230.775C230.775 194.848 230.552 189.823 230.222 184.862L213.05 195.395C207.427 184.252 195.172 173.65 195 173.643C206.938 161.928 221.578 148.661 229.554 143.115C233.37 140.463 251.699 139.401 254.078 139.166C255.099 139.062 256.079 138.71 256.934 138.142C257.788 137.573 258.491 136.805 258.982 135.903C258.982 135.903 261.526 141.831 265.691 143.974C266.823 144.438 266.925 151.161 268.337 151.123C268.757 151.123 271.848 144.088 272.249 144.025C272.249 144.025 277.171 143.192 282.609 135L283.582 136.329C284.455 137.54 285.732 138.399 287.182 138.752C291.478 139.759 295.695 141.077 299.8 142.696C306.656 145.462 314.205 158.596 314.205 158.596L315.904 182.764L305.829 182.306L306.313 182.77Z" fill="white"/>
<path d="M299 179L300.902 199.428H310.76L309.011 186.117L299 179Z" fill="#F4F4F4"/>
<path d="M329.05 175L337.954 198.646H311.401L307 189.043" fill="#F7B59C"/>
<path d="M290 139C290 139 310.352 141.945 316.432 147.999C319.466 151.02 321.953 156.808 325.756 165.489C331.982 179.698 334.921 187.431 334.921 187.431C334.921 187.431 319.504 198.142 304.081 194.962L296.519 173.179L290 139Z" fill="white"/>
<path d="M259.155 93.3733C260.487 90.0774 259.161 86.4339 256.194 85.2352C253.227 84.0365 249.743 85.7365 248.411 89.0324C247.079 92.3282 248.405 95.9717 251.372 97.1705C254.339 98.3692 257.824 96.6691 259.155 93.3733Z" stroke="white" stroke-miterlimit="10"/>
<path d="M275.155 100.373C276.487 97.0774 275.161 93.4339 272.194 92.2352C269.227 91.0364 265.743 92.7365 264.411 96.0323C263.079 99.3282 264.405 102.972 267.372 104.17C270.339 105.369 273.824 103.669 275.155 100.373Z" stroke="white" stroke-miterlimit="10"/>
<path d="M260 93.0157C260 93.0157 263.473 92.6468 264.789 95.4834" stroke="white" stroke-miterlimit="10"/>
<path d="M275 99L292.821 100.119" stroke="white" stroke-miterlimit="10" stroke-linecap="round"/>
<path d="M234.916 199.173H230.553C230.553 194.963 230.331 189.939 230 184.978L233.536 183C233.536 183 235.018 194.683 234.916 199.173Z" fill="#F4F4F4"/>
<path d="M261.178 95C261.178 95 256.535 98.5934 256.032 100.47C255.734 101.583 257.597 102.804 257.597 102.804" stroke="#ED9780" stroke-miterlimit="10" stroke-linecap="round"/>
<path d="M133.086 219.536C133.086 219.536 134.994 226.182 127.845 226.176C126.942 226.169 126.054 225.951 125.25 225.54C122.611 224.268 122 219.816 122 219.816C124.232 219.244 123.45 216 123.45 216L131.387 216.184C131.387 216.184 130.993 218.258 131.572 218.849C132.583 219.969 133.086 219.536 133.086 219.536Z" fill="#F7B59C"/>
<path d="M123.242 220.165C123.242 220.165 122.791 226.055 128.33 226.055C133.355 226.055 133.418 222.15 133.043 220C138.767 220.515 145.038 222.83 148.244 225.457C152.06 230.367 154.674 237.878 154.674 237.878C153.516 238.408 152.327 238.865 151.112 239.245C149.975 239.586 148.884 240.062 147.862 240.664L145.623 271.045H110.522L109.925 240.695C109.925 240.695 107.616 240.142 105.752 239.532C104.409 239.163 103.14 238.565 102 237.763C103.386 233.821 105.156 230.025 107.285 226.43C110.51 223.428 116.545 220.967 123.242 220.165Z" fill="#0D2A9E"/>
<path d="M102.06 238C102.06 238 98.7144 249.836 99.0197 255.49C99.325 261.144 112.706 269.049 112.706 269.049L114.455 263.084C114.455 263.084 108.897 260.718 108.095 256.399C107.294 252.081 111.911 241.244 111.911 241.244C111.911 241.244 109.851 240.639 107.033 239.87C105.323 239.397 103.658 238.771 102.06 238Z" fill="#F7B59C"/>
<path d="M154.389 238C154.389 238 157.735 249.836 157.429 255.49C157.124 261.144 143.749 269.049 143.749 269.049L142 263.084C142 263.084 147.552 260.718 148.36 256.399C149.168 252.081 144.353 240.983 144.353 240.983C144.353 240.983 146.579 240.487 149.397 239.711C151.096 239.249 152.764 238.677 154.389 238Z" fill="#F7B59C"/>
<path d="M149.355 271.448H105.986L105 244.272C105 243.935 105.134 243.611 105.373 243.373C105.611 243.134 105.935 243 106.272 243H149.132C149.469 243 149.793 243.134 150.032 243.373C150.27 243.611 150.404 243.935 150.404 244.272L149.355 271.448Z" fill="#617FF1"/>
<path d="M146.35 277.154C146.76 276.768 147.243 276.467 147.77 276.27C148.297 276.072 148.859 275.981 149.422 276.003C150.815 275.965 154.758 276.862 156.64 276.83C158.523 276.798 160.456 276.385 161.557 277.987C163.388 280.716 162.593 283.171 159.509 283.54C157.836 283.743 156.449 282.637 153.785 282.904C151.12 283.171 147.17 282.268 146 280.455" fill="#4C4051"/>
<path d="M142.468 276C143.599 276.326 144.757 276.551 145.928 276.674C147.308 276.744 150.38 276.401 151.804 277.31C153.318 278.258 152.758 280.84 151.804 281.45C150.252 282.436 148.999 281.928 146.163 281.031C144.157 280.488 142.071 280.301 140 280.477" fill="#F7B59C"/>
<path d="M146.481 281.846C146.481 281.846 114.318 281.268 105.777 280.142C102.421 279.752 99.1259 278.945 95.9698 277.738C92.1538 275.442 90.7101 269.979 93.3304 264.942C94.5515 262.588 98.323 263.034 98.8445 263.034H99.048C109.478 263.441 118.974 266.105 129.716 270.392C135.441 272.711 141.332 274.599 147.34 276.04C147.874 280.129 146.481 281.846 146.481 281.846Z" fill="#0052A3"/>
<path d="M154.474 279.201C154.474 279.201 153.622 278.724 153.336 279.239C153.033 280.214 152.933 281.24 153.043 282.254C153.31 282.858 154.563 282.642 154.563 282.642L155.581 279.888L154.474 279.201Z" fill="#4C4051"/>
<path d="M110.783 277.204C109.924 276.399 108.78 275.966 107.603 276.002C106.153 275.958 102.057 276.867 100.105 276.829C98.1521 276.791 96.2313 276.365 94.9848 277.675C92.6379 280.149 94.8194 283.252 98.0249 283.647C99.7611 283.863 100.276 282.858 103.043 283.144C105.809 283.431 109.912 282.54 111.139 280.6" fill="#594A5F"/>
<path d="M113.679 276C112.504 276.332 111.301 276.56 110.086 276.681C108.655 276.75 105.436 276.388 103.98 277.317C102.403 278.302 102.975 280.986 103.98 281.622C105.583 282.653 106.886 282.131 109.837 281.209C111.924 280.652 114.092 280.467 116.242 280.662" fill="#F7B59C"/>
<path d="M160.063 278.475C156.741 279.806 153.254 280.681 149.697 281.077C141.123 282.171 108.961 282.635 108.961 282.635C108.961 282.635 107.562 280.899 108.14 276.803C114.156 275.39 120.058 273.527 125.796 271.231C136.309 267.085 145.632 264.464 155.777 264C157.761 264.197 160.057 265.075 161.679 268.452C163.835 272.999 162.162 277.687 160.063 278.475Z" fill="#0058C4"/>
<path d="M103.38 277.268C103.38 277.268 104.468 276.632 104.824 277.319C105.206 278.564 105.327 279.873 105.18 281.167C104.843 281.93 103.272 281.65 103.272 281.65L102 278.14L103.38 277.268Z" fill="#594A5F"/>
<path d="M137.288 201.002C137.288 201.002 140.265 200.703 136.887 208.417C135.615 211.324 135.164 211.133 135.138 211.273C134.605 210.93 134.204 210.417 134 209.817C134 209.327 134.045 205.511 134.095 205.314C134.146 205.116 137.288 201.002 137.288 201.002Z" fill="#2C1E56"/>
<path d="M119.6 203.03C119.6 203.03 117.292 202.394 118.22 206.986C118.531 208.691 119.329 210.27 120.516 211.533C121.05 211.191 121.451 210.677 121.655 210.077C121.655 209.587 121.604 205.771 121.559 205.574C121.515 205.377 119.6 203.03 119.6 203.03Z" fill="#2C1E56"/>
<path d="M120.322 208.341C120.322 208.341 119.342 207.393 119.05 208.659C118.757 209.924 119.8 213.187 121.097 211.928" fill="#E5A18C"/>
<path d="M135.776 208.341C135.776 208.341 136.755 207.393 137.048 208.659C137.34 209.924 136.304 213.187 135 211.928" fill="#E5A18C"/>
<path d="M128.128 218.545H128.051C127.148 218.603 119.071 218.679 120.088 204H135.48C135.48 204 137.343 217.668 128.128 218.545Z" fill="#F7B59C"/>
<path d="M133.401 196.251C136.295 197.109 138.171 200.773 136.74 203.673C135.309 206.573 130.698 208.258 125.546 207.158C122.519 206.522 121.539 205.294 119.72 205.39C119.035 205.43 118.355 205.248 117.781 204.869C117.208 204.491 116.773 203.937 116.54 203.291C115.904 201.51 115.485 199.1 117.335 197.662C122.385 199.113 129.051 194.966 133.401 196.251Z" fill="#2C1E56"/>
<path d="M130.584 255.792C130.584 256.344 130.42 256.884 130.114 257.343C129.807 257.802 129.371 258.16 128.861 258.372C128.35 258.583 127.789 258.638 127.247 258.53C126.706 258.423 126.208 258.157 125.818 257.766C125.427 257.376 125.161 256.878 125.054 256.337C124.946 255.795 125.001 255.234 125.213 254.724C125.424 254.213 125.782 253.777 126.241 253.471C126.7 253.164 127.24 253 127.792 253C128.532 253.002 129.241 253.296 129.764 253.82C130.288 254.343 130.582 255.052 130.584 255.792Z" fill="#D1DEFF"/>
<path d="M124 217.108C124.364 217.335 124.749 217.524 125.151 217.674C126.012 218.006 126.932 218.157 127.854 218.119C128.347 218.096 128.837 218.026 129.317 217.909C129.739 217.813 130.153 217.688 130.557 217.534C130.96 217.385 131.351 217.206 131.727 217C131.4 217.287 131.039 217.533 130.653 217.731C130.246 217.943 129.82 218.116 129.381 218.247C128.884 218.393 128.371 218.48 127.854 218.507C127.33 218.529 126.806 218.477 126.296 218.355C125.855 218.244 125.428 218.081 125.024 217.871C124.646 217.67 124.301 217.412 124 217.108Z" fill="#EAA18B"/>
<path d="M124.136 210.429C124.194 210.956 124.238 211.573 123.666 211.643C123.547 211.648 123.429 211.62 123.326 211.562C123.223 211.503 123.138 211.417 123.081 211.313C123.008 211.07 122.984 210.814 123.011 210.562C123.011 209.926 124.06 209.761 124.136 210.429Z" fill="#452E17"/>
<path d="M124.271 211.111C124.271 211.244 124.271 211.378 124.138 211.422C124.114 211.426 124.09 211.423 124.068 211.413C124.046 211.403 124.029 211.386 124.017 211.365C123.979 211.289 124.017 211.238 124.017 211.161C124.01 211.126 124.018 211.089 124.038 211.06C124.058 211.03 124.09 211.009 124.125 211.002C124.161 210.996 124.197 211.003 124.227 211.024C124.257 211.044 124.277 211.075 124.284 211.111H124.271Z" fill="white"/>
<path d="M132.136 210.429C132.194 210.956 132.238 211.573 131.666 211.643C131.547 211.648 131.429 211.62 131.326 211.562C131.223 211.503 131.138 211.417 131.081 211.313C131.008 211.07 130.984 210.814 131.011 210.562C131.011 209.926 132.06 209.761 132.136 210.429Z" fill="#452E17"/>
<path d="M131.271 211.111C131.271 211.244 131.271 211.378 131.138 211.422C131.114 211.426 131.09 211.423 131.068 211.413C131.046 211.403 131.029 211.386 131.017 211.365C130.979 211.289 131.017 211.238 131.017 211.161C131.01 211.126 131.018 211.089 131.038 211.06C131.058 211.03 131.09 211.009 131.125 211.002C131.16 210.996 131.197 211.003 131.227 211.024C131.257 211.044 131.277 211.075 131.284 211.111H131.271Z" fill="white"/>
<path d="M132.859 208.242C132.904 208.369 132.859 208.242 132.897 208.42C132.936 208.598 132.745 208.706 132.509 208.712C131.924 208.712 130.144 208.808 130.144 208.808C129.953 208.808 129.985 208.706 130.054 208.636C130.353 208.363 130.69 208 132.338 208C132.573 208.006 132.796 208.076 132.859 208.242Z" fill="#003051"/>
<path d="M123.038 208.242C123.018 208.299 123.005 208.359 123 208.42C123 208.598 123.153 208.706 123.388 208.712C123.973 208.712 125.754 208.808 125.754 208.808C125.945 208.808 125.919 208.706 125.843 208.636C125.55 208.363 125.207 208 123.566 208C123.324 208.006 123.095 208.076 123.038 208.242Z" fill="#003051"/>
<path d="M127.505 211C127.505 211 126.831 212.488 127.04 212.781C127.25 213.073 128.052 213.08 128.052 213.08" stroke="#EAA18B" stroke-width="0.5" stroke-miterlimit="10" stroke-linecap="round"/>
<path d="M126 215.102C126 215.102 128.131 216.374 130.032 215" stroke="#C9806F" stroke-width="0.5" stroke-miterlimit="10" stroke-linecap="round"/>
<path d="M291.493 279.475V222.235C291.491 222.173 291.466 222.114 291.422 222.071C291.379 222.027 291.32 222.002 291.258 222H289.871C289.809 222.002 289.75 222.027 289.707 222.071C289.663 222.114 289.638 222.173 289.636 222.235V279.475C289.457 279.514 289.297 279.613 289.181 279.755C289.065 279.897 289.002 280.074 289 280.258C289 280.476 289.086 280.685 289.24 280.84C289.394 280.995 289.602 281.083 289.82 281.084H291.309C291.527 281.083 291.735 280.995 291.889 280.84C292.043 280.685 292.129 280.476 292.129 280.258C292.128 280.074 292.064 279.897 291.948 279.755C291.833 279.613 291.672 279.514 291.493 279.475Z" fill="white"/>
<path d="M405.563 279.507H405.499V222H403.649V279.507H403.591C403.435 279.507 403.284 279.569 403.173 279.68C403.062 279.791 403 279.942 403 280.099V280.563C403 280.72 403.062 280.87 403.173 280.981C403.284 281.092 403.435 281.154 403.591 281.154H405.538C405.693 281.153 405.842 281.09 405.952 280.979C406.061 280.868 406.123 280.719 406.123 280.563V280.099C406.123 279.947 406.065 279.801 405.961 279.691C405.857 279.581 405.714 279.515 405.563 279.507Z" fill="white"/>
<path d="M419.857 222.447H273.724C273.266 222.447 272.828 222.266 272.505 221.942C272.182 221.619 272 221.181 272 220.724C272 220.266 272.182 219.828 272.505 219.505C272.828 219.182 273.266 219 273.724 219H419.857C420.314 219 420.753 219.182 421.076 219.505C421.399 219.828 421.581 220.266 421.581 220.724C421.581 221.181 421.399 221.619 421.076 221.942C420.753 222.266 420.314 222.447 419.857 222.447Z" fill="#B1C0F9"/>
<path d="M351.627 216.919H309.448L301.097 190.671C300.999 190.364 300.975 190.038 301.026 189.72C301.078 189.401 301.204 189.1 301.395 188.839C301.585 188.579 301.834 188.367 302.122 188.221C302.409 188.076 302.727 188 303.05 188H340.93C341.364 188 341.788 188.137 342.139 188.394C342.49 188.65 342.75 189.011 342.882 189.425L351.627 216.919Z" fill="#5146AF"/>
<path d="M350.379 217.666H310.432L302.037 191.005C302 190.89 301.991 190.768 302.009 190.649C302.028 190.53 302.075 190.417 302.145 190.319C302.216 190.221 302.309 190.142 302.416 190.086C302.523 190.031 302.641 190.001 302.762 190H341.03C341.218 190.002 341.401 190.065 341.55 190.179C341.699 190.294 341.807 190.454 341.857 190.636L350.379 217.666Z" fill="white"/>
<path d="M324.896 193.992H306.496C306.365 193.992 306.238 193.94 306.145 193.847C306.052 193.754 306 193.628 306 193.496C306 193.364 306.052 193.238 306.145 193.145C306.238 193.052 306.365 193 306.496 193H324.896C325.027 193 325.153 193.052 325.246 193.145C325.339 193.238 325.392 193.364 325.392 193.496C325.392 193.628 325.339 193.754 325.246 193.847C325.153 193.94 325.027 193.992 324.896 193.992Z" fill="#C2E0F2"/>
<path d="M328.014 195.992H307.496C307.431 195.993 307.366 195.981 307.305 195.956C307.245 195.932 307.19 195.895 307.143 195.849C307.097 195.803 307.061 195.748 307.036 195.687C307.011 195.626 306.999 195.561 307 195.496C307 195.365 307.052 195.238 307.145 195.145C307.238 195.052 307.365 195 307.496 195H328.014C328.145 195 328.271 195.052 328.364 195.145C328.457 195.238 328.51 195.365 328.51 195.496C328.51 195.561 328.498 195.626 328.474 195.687C328.449 195.748 328.412 195.803 328.366 195.849C328.32 195.895 328.265 195.932 328.204 195.956C328.144 195.981 328.079 195.993 328.014 195.992Z" fill="#C2E0F2"/>
<path d="M326.355 197.992H308.496C308.431 197.993 308.366 197.981 308.305 197.956C308.245 197.932 308.19 197.895 308.143 197.849C308.097 197.803 308.061 197.748 308.036 197.687C308.011 197.626 307.999 197.562 308 197.496C307.999 197.431 308.011 197.366 308.036 197.305C308.061 197.245 308.097 197.19 308.143 197.143C308.19 197.097 308.245 197.061 308.305 197.036C308.366 197.011 308.431 196.999 308.496 197H326.361C326.493 197 326.619 197.052 326.712 197.145C326.805 197.238 326.857 197.365 326.857 197.496C326.857 197.562 326.844 197.627 326.819 197.687C326.794 197.748 326.757 197.803 326.71 197.849C326.663 197.895 326.608 197.932 326.547 197.956C326.486 197.981 326.421 197.993 326.355 197.992Z" fill="#C2E0F2"/>
<path d="M323.66 200.992H309.496C309.365 200.992 309.238 200.94 309.145 200.847C309.052 200.754 309 200.628 309 200.496C309 200.365 309.052 200.238 309.145 200.145C309.238 200.052 309.365 200 309.496 200H323.66C323.791 200 323.918 200.052 324.011 200.145C324.104 200.238 324.156 200.365 324.156 200.496C324.156 200.628 324.104 200.754 324.011 200.847C323.918 200.94 323.791 200.992 323.66 200.992Z" fill="#C2E0F2"/>
<path d="M330.014 202.992H309.496C309.365 202.992 309.238 202.94 309.145 202.847C309.052 202.754 309 202.628 309 202.496C309 202.365 309.052 202.238 309.145 202.145C309.238 202.052 309.365 202 309.496 202H330.014C330.145 202 330.271 202.052 330.364 202.145C330.457 202.238 330.51 202.365 330.51 202.496C330.51 202.628 330.457 202.754 330.364 202.847C330.271 202.94 330.145 202.992 330.014 202.992Z" fill="#C2E0F2"/>
<path d="M328.368 204.999H310.496C310.43 204.999 310.365 204.985 310.305 204.96C310.244 204.935 310.189 204.898 310.143 204.851C310.097 204.804 310.061 204.749 310.036 204.688C310.011 204.627 309.999 204.562 310 204.496C310 204.365 310.052 204.238 310.145 204.145C310.238 204.052 310.365 204 310.496 204H328.368C328.499 204 328.626 204.052 328.719 204.145C328.812 204.238 328.864 204.365 328.864 204.496C328.865 204.562 328.853 204.627 328.828 204.688C328.803 204.749 328.767 204.804 328.721 204.851C328.675 204.898 328.62 204.935 328.559 204.96C328.499 204.985 328.433 204.999 328.368 204.999Z" fill="#C2E0F2"/>
<path d="M332.994 209.992H312.496C312.365 209.992 312.238 209.94 312.145 209.847C312.052 209.754 312 209.628 312 209.496C312 209.365 312.052 209.238 312.145 209.145C312.238 209.052 312.365 209 312.496 209H332.994C333.126 209 333.252 209.052 333.345 209.145C333.438 209.238 333.49 209.365 333.49 209.496C333.49 209.628 333.438 209.754 333.345 209.847C333.252 209.94 333.126 209.992 332.994 209.992Z" fill="#C2E0F2"/>
<path d="M333.013 211.992H312.496C312.365 211.992 312.238 211.94 312.145 211.847C312.052 211.754 312 211.628 312 211.496C312 211.365 312.052 211.238 312.145 211.145C312.238 211.052 312.365 211 312.496 211H333.013C333.145 211 333.271 211.052 333.364 211.145C333.457 211.238 333.509 211.365 333.509 211.496C333.509 211.628 333.457 211.754 333.364 211.847C333.271 211.94 333.145 211.992 333.013 211.992Z" fill="#C2E0F2"/>
<path d="M344.568 212.32H337.941C337.64 212.32 337.346 212.224 337.104 212.045C336.861 211.867 336.682 211.616 336.592 211.328L331.066 193.844C330.999 193.632 330.983 193.406 331.019 193.187C331.055 192.967 331.143 192.758 331.275 192.579C331.407 192.399 331.58 192.253 331.779 192.152C331.977 192.052 332.197 192 332.42 192H339.047C339.349 192 339.642 192.096 339.884 192.275C340.127 192.453 340.306 192.705 340.396 192.992L345.923 210.45C345.994 210.664 346.014 210.893 345.98 211.116C345.946 211.339 345.859 211.551 345.727 211.734C345.594 211.917 345.42 212.066 345.218 212.167C345.017 212.269 344.794 212.322 344.568 212.32Z" fill="#C2E0F2"/>
<path d="M355.223 218.716H309.355C308.995 218.716 308.651 218.573 308.397 218.319C308.143 218.065 308 217.72 308 217.361C307.999 217.183 308.034 217.006 308.101 216.841C308.169 216.676 308.269 216.525 308.395 216.399C308.52 216.273 308.67 216.172 308.835 216.104C309 216.035 309.176 216 309.355 216H355.223C355.401 216 355.578 216.035 355.743 216.104C355.908 216.172 356.057 216.273 356.183 216.399C356.309 216.525 356.409 216.676 356.476 216.841C356.544 217.006 356.578 217.183 356.578 217.361C356.578 217.72 356.435 218.065 356.181 218.319C355.927 218.573 355.582 218.716 355.223 218.716Z" fill="#B1C0F9"/>
<path d="M359.331 184.322C359.154 184.321 358.981 184.274 358.829 184.186C358.676 184.098 358.549 183.972 358.459 183.82L357.13 181.48C357.064 181.363 357.022 181.234 357.007 181.101C356.991 180.967 357.003 180.832 357.041 180.704C357.073 180.569 357.134 180.443 357.218 180.334C357.303 180.224 357.409 180.133 357.531 180.068L361.232 178.115C361.465 177.993 361.737 177.967 361.99 178.043C362.242 178.119 362.454 178.291 362.581 178.522L363.853 180.837C363.917 180.952 363.958 181.079 363.972 181.21C363.987 181.341 363.974 181.474 363.935 181.6C363.86 181.856 363.686 182.071 363.452 182.198L359.82 184.17C359.673 184.263 359.504 184.316 359.331 184.322ZM361.697 178.49C361.61 178.49 361.524 178.512 361.448 178.554L357.747 180.506C357.683 180.54 357.626 180.586 357.58 180.642C357.533 180.698 357.499 180.762 357.479 180.832C357.459 180.902 357.453 180.975 357.462 181.047C357.471 181.119 357.494 181.188 357.531 181.251L358.86 183.591C358.931 183.713 359.046 183.802 359.181 183.84C359.317 183.878 359.461 183.862 359.585 183.795L363.223 181.823C363.349 181.753 363.442 181.637 363.484 181.499C363.52 181.362 363.504 181.217 363.439 181.092L362.167 178.77C362.121 178.686 362.053 178.615 361.97 178.566C361.887 178.517 361.793 178.491 361.697 178.49Z" fill="#1A1A47"/>
<path d="M352.878 204.468C352.579 204.844 352.344 205.104 352.344 205.104C352.344 205.104 350.118 203.419 349.495 203.26C348.871 203.101 347.549 203.482 346.811 203.635C345.596 203.883 346.098 202.897 346.098 202.897C346.098 202.897 345.284 203.184 344.572 203.47C343.758 203.8 342.906 204.481 342.664 204.545C342.193 204.653 341.742 204.424 342.174 203.769C343.419 202.276 344.849 200.949 346.429 199.819C347.358 199.38 348.617 198.738 349.609 199.113C350.601 199.488 353.915 201.956 353.915 201.956C354.029 202.783 353.374 203.832 352.878 204.468Z" fill="#F7B59C"/>
<path d="M352 205.365C352 205.365 362.914 214.905 371.08 215.878C379.246 216.851 393.009 201.358 393.009 201.358C393.009 201.358 392.144 193.09 387.056 194.083C381.968 195.075 375.131 207.273 372.18 207.871C369.229 208.469 353.851 201.931 353.851 201.931C353.46 202.256 353.136 202.653 352.897 203.101C352.51 203.818 352.209 204.578 352 205.365Z" fill="#617FF1"/>
<path d="M376.187 168.074C373.586 165.098 369.738 164.773 366.768 165.104C364.856 165.297 363.043 166.045 361.552 167.257C360.062 168.468 358.958 170.09 358.379 171.922C357.819 173.76 357.881 175.732 358.557 177.531C360.98 184.222 363.55 187.911 365.553 189.723C366.424 190.518 368.262 189.437 370.107 188.789C370.224 188.743 370.354 188.743 370.471 188.787C370.589 188.832 370.685 188.919 370.743 189.03L371.792 190.97L379.424 189.418C378.76 187.999 378.224 186.524 377.821 185.011C378.763 183.745 380.97 173.525 376.187 168.074Z" fill="#F7B59C"/>
<path d="M361.734 177.669C362.146 177.628 362.561 177.718 362.919 177.927C363.277 178.137 363.559 178.454 363.725 178.833C364.285 180.175 365.156 182.052 365.836 182.649C365.948 182.723 366.078 182.762 366.212 182.762C366.345 182.762 366.476 182.723 366.587 182.649C366.698 182.602 366.791 182.52 366.853 182.416C366.914 182.312 366.942 182.191 366.93 182.071C366.747 181.159 366.483 180.265 366.142 179.399C366.033 179.149 365.982 178.878 365.993 178.605C366.005 178.333 366.079 178.067 366.209 177.827C366.339 177.587 366.522 177.38 366.744 177.222C366.966 177.063 367.221 176.958 367.49 176.913C367.862 176.868 368.239 176.892 368.603 176.983C370.626 177.619 369.239 180.799 369.195 182.427C369.195 183.597 370.562 186.306 371.185 186.548C373.214 187.349 376.273 186.624 377.933 184.608C379.593 182.592 379.924 175.838 379.027 171.799C378.13 167.761 374.906 165.484 373.837 165.223C373.422 165.119 372.992 165.087 372.565 165.127C372.405 165.142 372.243 165.124 372.09 165.074C371.937 165.023 371.795 164.942 371.675 164.835C370.6 163.9 367.382 161.763 362.3 163.957C360.085 164.867 358.2 166.431 356.896 168.44C355.593 170.449 354.933 172.808 355.005 175.202C355.075 176.932 356.43 176.804 357.371 176.474C357.626 176.397 357.897 176.387 358.157 176.443C358.418 176.5 358.659 176.622 358.86 176.798C359.255 177.13 359.713 177.379 360.208 177.529C360.702 177.678 361.221 177.726 361.734 177.669Z" fill="#0B0B3A"/>
<path d="M370.477 191.398C370.477 191.398 369.803 190.648 370.057 190.183C370.375 189.611 373.822 186.889 377.848 187.004C378.484 187.004 379.235 187.004 379.985 188.657C380.403 189.53 380.713 190.45 380.908 191.398H370.477Z" fill="#617FF1"/>
<path d="M387.793 240.75C387.545 240.814 387.284 240.871 387.004 240.922C384.034 241.357 381.039 241.595 378.037 241.634C367.091 241.437 362.226 235.535 360.451 232.489C360.106 231.921 359.812 231.323 359.574 230.702C361.287 229.451 362.561 227.69 363.212 225.671C364.039 222.955 363.174 216.481 361.755 214.013C360.979 212.658 358.677 209.911 357.227 207.017C356.044 204.632 355.427 202.152 356.725 200.256C358.893 197.244 361.721 194.766 364.993 193.012C364.993 193.012 374.31 189.279 382.247 190.125C387.284 190.653 391.787 193.025 392.964 199.366C396.08 215.686 387.793 240.75 387.793 240.75Z" fill="#617FF1"/>
<path d="M364.891 272.984C364.372 273.556 363.683 273.946 362.926 274.097C362.136 274.221 361.328 274.071 360.636 273.671L360 271.916L364.204 271L364.891 272.984Z" fill="#F7B59C"/>
<path d="M342.63 274.825C342.027 275.309 341.285 275.586 340.512 275.614C339.712 275.61 338.937 275.332 338.318 274.825L338 273H342.293L342.63 274.825Z" fill="#F7B59C"/>
<path d="M364.897 270.911C364.624 271.038 363.784 271.382 363.479 271.49C362.225 271.885 360.951 272.216 359.663 272.482C356.051 264.672 350.161 245.026 350.161 245.026C349.341 241.553 351.809 240.148 353.977 240.014C354.657 239.96 355.339 240.06 355.974 240.307C358.054 241.184 361.101 247.055 361.101 247.055C361.92 249.069 362.559 251.153 363.008 253.281C363.937 257.466 364.897 270.911 364.897 270.911Z" fill="#1A1A47"/>
<path d="M373.438 240.46C373.438 242.431 372.891 245.586 369.934 246.476C365.482 247.799 362.251 247.042 357.131 246.158C352.844 245.427 346.071 242.915 343.998 242.126C343.724 242.024 343.775 242.158 343.832 242.444C344.812 247.227 343.196 273.093 343.196 273.093C342.718 273.235 342.232 273.348 341.74 273.43C341.46 273.477 341.177 273.502 340.894 273.506C339.781 273.506 337.714 273.296 337.714 273.296C337.714 273.296 333.815 255.056 333.198 244.88C332.581 234.704 333.198 233.114 338.032 231.435C343.412 229.559 359.961 230.061 359.961 230.061C360.967 232.501 362.57 234.649 364.623 236.307C367.168 238.407 370.198 239.835 373.438 240.46Z" fill="#3D3D72"/>
<path d="M378.383 251V277.171C378.383 277.62 378.205 278.05 377.888 278.368C377.571 278.685 377.14 278.863 376.692 278.863C376.332 278.865 375.981 278.748 375.693 278.532C375.478 278.377 375.303 278.172 375.183 277.935C375.062 277.699 375 277.437 375 277.171V251H378.383Z" fill="#94C1F7"/>
<path d="M378.709 252V276.963C378.703 277.376 378.554 277.775 378.289 278.092C378.024 278.409 377.658 278.626 377.253 278.706C376.879 278.76 376.498 278.686 376.172 278.496C376.121 278.394 376.057 278.28 376 278.178V252.693C376 252.509 376.073 252.333 376.203 252.203C376.333 252.073 376.509 252 376.693 252H378.709Z" fill="#B5D0FF"/>
<path d="M379.95 250.457C379.95 250.577 379.933 250.697 379.899 250.813C379.838 251.065 379.708 251.296 379.524 251.48C379.389 251.617 379.229 251.726 379.052 251.8C378.875 251.875 378.685 251.913 378.493 251.913H373.456C373.071 251.911 372.701 251.757 372.428 251.485C372.156 251.212 372.002 250.842 372 250.457C372.002 250.071 372.156 249.701 372.428 249.428C372.701 249.156 373.071 249.002 373.456 249H378.487C378.679 248.998 378.87 249.035 379.047 249.107C379.225 249.18 379.387 249.287 379.523 249.422C379.659 249.558 379.767 249.719 379.84 249.897C379.913 250.074 379.951 250.264 379.95 250.457Z" fill="#94C1F7"/>
<path d="M380.22 251C380.159 251.253 380.029 251.484 379.845 251.668C379.71 251.805 379.55 251.913 379.373 251.988C379.196 252.062 379.006 252.1 378.814 252.1H374C374.062 251.846 374.191 251.613 374.375 251.426C374.651 251.153 375.024 251 375.412 251H380.22Z" fill="#B5D0FF"/>
<path d="M398.425 204.962C398.425 204.962 398.425 204.962 398.425 205C398.425 205.153 398.374 205.318 398.336 205.503C397.923 207.207 396.479 210.553 396.276 215.564C396.136 218.642 396.276 226.815 396.123 231.757C396.123 232.495 396.072 233.156 396.04 233.722C395.773 238.098 394.285 244.579 389.718 247.854C385.082 251.339 375.726 250.735 370.098 250.608C364.469 250.481 350.382 247.918 349.281 245.838C349.056 245.478 348.962 245.051 349.014 244.629C349.069 244.323 349.221 244.042 349.447 243.828C349.719 243.573 350.051 243.391 350.413 243.301C350.775 243.211 351.154 243.215 351.514 243.313C353.803 243.885 360.602 245.221 363.668 241.316C367.369 236.616 366.905 231.184 368.495 219.743C369.996 208.931 373.373 205.592 378.964 203.436C384.936 201.133 394.533 202.119 396.937 202.844C397.391 202.972 397.787 203.252 398.058 203.638C398.329 204.024 398.459 204.492 398.425 204.962Z" fill="#CFE3FF"/>
<path d="M396.203 280.727C396.203 280.896 396.136 281.057 396.017 281.177C395.898 281.296 395.736 281.363 395.567 281.363H357.636C357.467 281.363 357.306 281.296 357.186 281.177C357.067 281.057 357 280.896 357 280.727C356.997 280.577 357.048 280.431 357.142 280.315C357.236 280.199 357.368 280.119 357.515 280.091L376.595 277L381.391 277.776L395.663 280.091C395.814 280.114 395.953 280.191 396.052 280.308C396.151 280.425 396.205 280.574 396.203 280.727Z" fill="#B5D0FF"/>
<path d="M339.195 275C339.893 275.27 340.629 275.424 341.377 275.458C342.115 275.46 342.846 275.304 343.52 275C343.52 275 345.727 277.817 344.557 280.953C344.526 281.034 344.471 281.103 344.399 281.152C344.327 281.201 344.243 281.227 344.156 281.226H329.331C329.244 281.226 329.161 281.192 329.099 281.132C329.037 281.071 329.002 280.989 329 280.902C328.999 280.608 329.103 280.324 329.293 280.1C329.483 279.877 329.747 279.728 330.037 279.681C331.41 279.261 332.822 279.045 333.853 278.657C334.883 278.269 336.435 276.749 337.281 276.437C338.034 276.135 338.694 275.639 339.195 275Z" fill="#1A1A47"/>
<path d="M361.142 273.687C361.874 273.84 362.626 273.875 363.368 273.789C364.099 273.673 364.797 273.405 365.416 273C365.416 273 368.043 275.43 367.381 278.724C367.364 278.808 367.321 278.885 367.259 278.944C367.196 279.004 367.117 279.042 367.032 279.055C367.032 279.055 359.209 280.81 356.563 281.185C355.18 281.342 353.789 281.421 352.397 281.421C352.31 281.429 352.223 281.405 352.153 281.353C352.083 281.302 352.034 281.226 352.016 281.141C351.969 280.851 352.028 280.554 352.18 280.304C352.333 280.053 352.57 279.865 352.849 279.773C354.121 279.137 355.488 278.686 356.474 278.152C357.46 277.617 358.713 275.83 359.508 275.417C360.194 274.993 360.758 274.396 361.142 273.687Z" fill="#1A1A47"/>
<path d="M331.299 217.802C331.299 217.802 329.779 217.166 328.984 216.893C328.703 216.793 328.416 216.71 328.125 216.645C327.783 216.565 327.433 216.527 327.082 216.53H318.445C318.386 216.529 318.327 216.517 318.273 216.493C318.218 216.47 318.169 216.436 318.128 216.394C318.086 216.351 318.054 216.301 318.032 216.246C318.01 216.191 317.999 216.132 318 216.072C317.998 215.908 318.038 215.746 318.116 215.602C318.194 215.457 318.307 215.335 318.445 215.246L319.374 214.648L322.14 212.854C323.514 211.97 324.513 211.919 326.141 212.059C326.719 212.222 327.286 212.421 327.839 212.657C329.461 213.191 329.811 213.433 330.885 213.815C331.18 213.926 331.482 214.018 331.788 214.088C331.91 214.126 332.037 214.139 332.164 214.126C332.345 215.417 332.037 216.728 331.299 217.802Z" fill="#F7B59C"/>
<path d="M365.23 196.768C364.098 196.082 360.676 194.18 356.262 201.061C351.848 207.943 350.493 210.875 349.221 213.012C347.676 213.94 332.126 213.546 332.126 213.546C331.568 214.77 331.189 216.068 331 217.4C337.07 220.143 343.576 221.795 350.22 222.278C358.711 222.278 367.456 205.692 367.85 203.618C368.244 201.545 367.933 198.441 365.23 196.768Z" fill="#617FF1"/>
<path d="M357.236 182.522C357.193 182.522 357.151 182.512 357.114 182.49C357.077 182.469 357.047 182.438 357.026 182.401C357.012 182.374 357.003 182.344 357.001 182.314C356.998 182.283 357.002 182.253 357.011 182.224C357.021 182.194 357.036 182.168 357.056 182.145C357.076 182.121 357.1 182.103 357.128 182.089L365.727 177.682C366.7 177.186 368.69 176.162 370.179 178.318C370.213 178.369 370.225 178.432 370.213 178.493C370.201 178.554 370.166 178.607 370.115 178.642C370.09 178.659 370.062 178.67 370.032 178.676C370.003 178.682 369.972 178.682 369.943 178.676C369.913 178.67 369.885 178.659 369.86 178.642C369.835 178.625 369.814 178.604 369.797 178.578C368.639 176.887 367.253 177.402 365.981 178.07L357.363 182.483C357.326 182.51 357.282 182.523 357.236 182.522Z" fill="#1A1A47"/>
<path d="M366 177.635L367.132 181.261C367.249 181.376 367.39 181.466 367.545 181.522C367.7 181.579 367.865 181.602 368.029 181.59C368.193 181.578 368.353 181.531 368.498 181.453C368.643 181.374 368.769 181.265 368.868 181.133C369.721 180.154 370.458 176.751 368.9 176.185C367.342 175.619 366.394 176.421 366 177.635Z" fill="#F7B59C"/>
<path d="M163 287.544L163.948 285C163.948 285 178.983 285.712 186.112 290.152L172.546 290.406L163 287.544Z" fill="#E1EFFF"/>
<path d="M209.106 287.544L208.158 285C208.158 285 193.123 285.712 186 290.152L199.56 290.406L209.106 287.544Z" fill="#E1EFFF"/>
<path d="M185.888 290.384C177.741 287.204 162 287 162 287V292.361H209.77V287.006C209.77 287.006 194.029 287.216 185.888 290.384Z" fill="#CCE1FF"/>
<path d="M211.459 290H160V291.819H211.459V290Z" fill="#7878FF"/>
<path d="M316 96.0198L320.528 93.0433C321.501 93.6693 322.634 94.0026 323.791 94.0037H345.631C347.24 94.0037 348.784 93.3645 349.921 92.2266C351.059 91.0887 351.699 89.5454 351.699 87.9362V81.0674C351.699 80.2707 351.542 79.4817 351.237 78.7455C350.932 78.0094 350.485 77.3405 349.921 76.7771C349.358 76.2137 348.689 75.7668 347.953 75.4619C347.217 75.1569 346.428 75 345.631 75H323.791C322.182 75 320.639 75.6392 319.501 76.7771C318.363 77.915 317.724 79.4583 317.724 81.0674V87.9362C317.724 89.1492 318.087 90.3342 318.767 91.3389L316 96.0198ZM323.778 90.1241C323.778 89.9807 323.835 89.8432 323.937 89.7418C324.038 89.6404 324.175 89.5835 324.319 89.5835H345.307C345.383 89.5752 345.46 89.5831 345.533 89.6067C345.607 89.6302 345.674 89.6689 345.731 89.7202C345.788 89.7715 345.834 89.8343 345.865 89.9044C345.896 89.9745 345.913 90.0505 345.913 90.1273C345.913 90.2041 345.896 90.28 345.865 90.3501C345.834 90.4203 345.788 90.483 345.731 90.5343C345.674 90.5856 345.607 90.6243 345.533 90.6479C345.46 90.6714 345.383 90.6793 345.307 90.6711H324.319C324.247 90.6711 324.176 90.6569 324.11 90.6293C324.044 90.6017 323.985 90.5613 323.934 90.5105C323.884 90.4596 323.844 90.3993 323.818 90.3329C323.791 90.2666 323.777 90.1956 323.778 90.1241ZM345.313 87.8345H334.221C334.077 87.8328 333.94 87.7745 333.839 87.6721C333.737 87.5697 333.681 87.4315 333.681 87.2875C333.681 87.1441 333.738 87.0067 333.839 86.9053C333.94 86.8039 334.078 86.7469 334.221 86.7469H345.307C345.383 86.7387 345.46 86.7466 345.533 86.7701C345.607 86.7937 345.674 86.8324 345.731 86.8837C345.788 86.935 345.834 86.9977 345.865 87.0678C345.896 87.138 345.913 87.2139 345.913 87.2907C345.913 87.3675 345.896 87.4434 345.865 87.5136C345.834 87.5837 345.788 87.6465 345.731 87.6978C345.674 87.7491 345.607 87.7877 345.533 87.8113C345.46 87.8349 345.383 87.8428 345.307 87.8345H345.313ZM323.778 84.4001C323.778 84.2561 323.835 84.118 323.936 84.0156C324.037 83.9132 324.175 83.8548 324.319 83.8531H345.307C345.383 83.8449 345.46 83.8528 345.533 83.8763C345.607 83.8999 345.674 83.9386 345.731 83.9899C345.788 84.0412 345.834 84.1039 345.865 84.174C345.896 84.2442 345.913 84.3201 345.913 84.3969C345.913 84.4737 345.896 84.5496 345.865 84.6198C345.834 84.6899 345.788 84.7527 345.731 84.804C345.674 84.8553 345.607 84.8939 345.533 84.9175C345.46 84.9411 345.383 84.949 345.307 84.9407H324.319C324.175 84.9407 324.038 84.8837 323.937 84.7824C323.835 84.681 323.778 84.5435 323.778 84.4001ZM345.307 82.1232H329.827C329.692 82.1087 329.569 82.0451 329.478 81.9448C329.388 81.8444 329.339 81.7143 329.339 81.5794C329.339 81.4446 329.388 81.3144 329.478 81.2141C329.569 81.1137 329.692 81.0502 329.827 81.0356H345.307C345.383 81.0274 345.46 81.0353 345.533 81.0588C345.607 81.0824 345.674 81.1211 345.731 81.1724C345.788 81.2237 345.834 81.2864 345.865 81.3566C345.896 81.4267 345.913 81.5026 345.913 81.5794C345.913 81.6562 345.896 81.7322 345.865 81.8023C345.834 81.8724 345.788 81.9352 345.731 81.9865C345.674 82.0378 345.607 82.0765 345.533 82.1C345.46 82.1236 345.383 82.1315 345.307 82.1232ZM323.772 78.7397C323.772 78.5963 323.829 78.4588 323.93 78.3574C324.032 78.256 324.169 78.1991 324.312 78.1991H345.3C345.377 78.1908 345.454 78.1987 345.527 78.2223C345.6 78.2458 345.668 78.2845 345.725 78.3358C345.782 78.3871 345.828 78.4499 345.859 78.52C345.89 78.5901 345.906 78.6661 345.906 78.7429C345.906 78.8197 345.89 78.8956 345.859 78.9657C345.828 79.0359 345.782 79.0986 345.725 79.1499C345.668 79.2012 345.6 79.2399 345.527 79.2635C345.454 79.287 345.377 79.2949 345.3 79.2866H324.319C324.175 79.285 324.037 79.2266 323.936 79.1242C323.835 79.0218 323.778 78.8836 323.778 78.7397H323.772Z" fill="#B5D0FF"/>
<path d="M127.816 151H124" stroke="#9ACEE2" stroke-miterlimit="10" stroke-linecap="round"/>
<path d="M121.1 151H96.544C95.8693 151 95.2222 151.268 94.7451 151.745C94.268 152.222 94 152.869 94 153.544V250.699C94.0005 251.003 94.0543 251.305 94.159 251.59" stroke="#9ACEE2" stroke-miterlimit="10" stroke-linecap="round" stroke-dasharray="11.86 4.94"/>
<path d="M95 253C95.4251 253.291 95.9285 253.446 96.4437 253.445H98.727" stroke="#9ACEE2" stroke-miterlimit="10" stroke-linecap="round"/>
<path d="M349 118H352.816" stroke="#9ACEE2" stroke-miterlimit="10" stroke-linecap="round"/>
<path d="M356 118H409.36C409.951 118 410.536 118.116 411.081 118.342C411.627 118.568 412.122 118.899 412.54 119.317C412.957 119.735 413.289 120.23 413.515 120.776C413.741 121.321 413.857 121.906 413.857 122.497V201.252C413.857 202.446 413.383 203.59 412.54 204.434C411.697 205.278 410.554 205.754 409.36 205.755H407.859" stroke="#9ACEE2" stroke-miterlimit="10" stroke-linecap="round" stroke-dasharray="11.84 4.93"/>
<path d="M406.816 206H403" stroke="#9ACEE2" stroke-miterlimit="10" stroke-linecap="round"/>
<path d="M184 58H220.335C222.284 58.0017 224.153 58.7768 225.532 60.1553C226.91 61.5337 227.685 63.4028 227.687 65.3522V100.046" stroke="#9ACEE2" stroke-miterlimit="10" stroke-linecap="round" stroke-dasharray="12 5"/>
<path d="M295.139 212.314C295.139 212.314 290.916 209.846 290 205C290 205 293.975 205.82 295.966 212.314" fill="white"/>
<path d="M296.833 212.314C296.833 212.314 301.056 209.846 301.966 205C301.966 205 297.997 205.82 296 212.314" fill="white"/>
<path d="M295.309 211.675C295.309 211.675 292.269 207.859 293.165 203C293.165 203 296.574 205.201 296.085 211.974" fill="white"/>
<path d="M295.847 211.726C295.847 211.726 298.798 207.827 297.786 203C297.786 203 294.435 205.277 295.083 212.044" fill="white"/>
<path d="M300.19 211H291V218.689H300.19V211Z" fill="#CFE3FF"/>
<path opacity="0.5" d="M293.735 211H291V218.689H293.735V211Z" fill="#94C1F7"/>
<g opacity="0.5">
<path opacity="0.5" d="M385.159 166.186L381 168.406L383.08 163" fill="#389FE5"/>
<path opacity="0.5" d="M397.579 158.783C397.58 160.522 397.066 162.222 396.101 163.668C395.136 165.114 393.763 166.242 392.158 166.908C390.552 167.574 388.784 167.749 387.079 167.411C385.373 167.072 383.806 166.236 382.577 165.007C381.347 163.778 380.509 162.212 380.169 160.507C379.83 158.801 380.003 157.034 380.668 155.427C381.334 153.821 382.46 152.448 383.906 151.482C385.351 150.516 387.051 150 388.789 150C391.12 150 393.354 150.925 395.002 152.572C396.651 154.219 397.577 156.453 397.579 158.783Z" fill="#389FE5"/>
</g>
<path d="M385 157.647L387.665 160.961L392.397 156" stroke="white" stroke-width="1.38" stroke-linecap="round" stroke-linejoin="round"/>
<g opacity="0.5">
<path opacity="0.5" d="M112 195.186L116.159 197.406L114.08 192" fill="#389FE5"/>
<path opacity="0.5" d="M99 187.783C98.9987 189.522 99.5133 191.222 100.479 192.669C101.444 194.115 102.817 195.243 104.423 195.909C106.029 196.575 107.797 196.749 109.503 196.41C111.208 196.072 112.775 195.234 114.005 194.005C115.234 192.775 116.072 191.208 116.41 189.503C116.749 187.797 116.575 186.029 115.909 184.423C115.243 182.817 114.115 181.444 112.669 180.479C111.222 179.513 109.522 178.999 107.783 179C105.454 179 103.22 179.925 101.573 181.573C99.9254 183.22 99 185.454 99 187.783Z" fill="#389FE5"/>
</g>
<path d="M104 186.647L106.665 189.961L111.397 185" stroke="white" stroke-width="1.38" stroke-linecap="round" stroke-linejoin="round"/>
<path d="M392.26 75H358.126C357.504 75 357 75.504 357 76.1257V110.699C357 111.32 357.504 111.824 358.126 111.824H392.26C392.882 111.824 393.386 111.32 393.386 110.699V76.1257C393.386 75.504 392.882 75 392.26 75Z" fill="white"/>
<g opacity="0.5">
<path opacity="0.5" d="M384.964 91.5004C384.967 93.0061 384.644 94.4946 384.017 95.8633C383.726 96.5116 383.367 97.1277 382.948 97.7014C382.661 98.0917 382.346 98.4615 382.007 98.808C381.723 99.1018 381.421 99.3779 381.104 99.6348C380.634 100.019 380.132 100.362 379.603 100.659C379.196 100.903 378.771 101.116 378.331 101.295C377.316 101.7 376.242 101.938 375.151 102.001C374.941 102.001 374.725 102.001 374.515 102.001C371.938 102.003 369.449 101.057 367.524 99.3444C365.598 97.6314 364.369 95.2704 364.071 92.7105C363.772 90.1505 364.425 87.5702 365.905 85.4602C367.385 83.3503 369.589 81.858 372.098 81.2671H372.193C372.529 81.1855 372.868 81.124 373.211 81.0827C373.644 81.0292 374.079 81.0016 374.515 81C376.404 81.0098 378.255 81.529 379.873 82.5028C381.492 83.4766 382.818 84.869 383.711 86.5332C383.826 86.7494 383.94 86.9784 384.042 87.2137C384.649 88.5614 384.963 90.0224 384.964 91.5004Z" fill="#2C53ED"/>
<g style="mix-blend-mode:screen" opacity="0.5">
<g style="mix-blend-mode:screen" opacity="0.5">
<path d="M377.23 101.582C377.307 102.11 376.664 102.422 376.149 102.549C375.844 102.619 375.513 102.695 375.227 102.759C375.017 102.759 374.801 102.759 374.591 102.759C372.181 102.763 369.845 101.934 367.976 100.412C367.97 100.321 367.97 100.23 367.976 100.139C368.002 99.7342 368.079 99.3346 368.205 98.9494C368.28 98.619 368.327 98.2828 368.345 97.9445C368.363 97.8225 368.336 97.6982 368.269 97.5947C368.189 97.5211 368.093 97.4667 367.989 97.4357C367.696 97.3097 367.456 97.0846 367.312 96.7998C367.168 96.5149 367.128 96.1885 367.201 95.8775C367.709 94.6055 369.503 95.0316 368.32 91.8962C368.066 91.2284 368.606 91.0566 368.562 90.8658C368.46 90.4524 366.908 90.5669 366.482 90.497C366.199 90.4892 365.925 90.3985 365.693 90.2362C365.568 90.1163 365.475 89.9679 365.42 89.8037C365.187 89.2405 365.045 88.6436 365 88.0356C365.659 86.5282 366.664 85.1966 367.932 84.1483C369.2 83.0999 370.697 82.3641 372.301 82L372.333 82.3434C372.225 83.5391 372.149 84.7284 372.104 85.9241C372.111 86.1397 372.081 86.3548 372.015 86.5601C371.91 86.7671 371.742 86.9355 371.535 87.0417C371.328 87.1478 371.094 87.1863 370.864 87.1516C370.7 87.1003 370.525 87.1003 370.361 87.1516C370.12 87.2915 370.177 87.6477 370.145 87.9275C370.075 88.3982 369.649 88.7289 369.363 89.1168C369.077 89.5048 368.956 90.1535 369.363 90.3888C369.465 90.4461 369.605 90.4715 369.662 90.5796C369.719 90.6878 369.662 90.8976 369.497 90.993C369.348 91.0609 369.211 91.151 369.089 91.2602C368.88 91.5082 369.032 91.8962 369.268 92.1188C369.532 92.3127 369.783 92.5252 370.018 92.7548C370.272 93.0728 370.33 93.5243 370.616 93.8105C371.303 94.5228 372.721 93.7787 373.421 94.4847C373.783 94.8408 373.783 95.445 374.101 95.8394C374.328 96.0689 374.587 96.2639 374.871 96.4181C375.172 96.6341 375.422 96.9145 375.601 97.2391C375.78 97.5637 375.885 97.9242 375.907 98.2943C375.958 99.083 375.659 100.005 376.206 100.584C376.531 100.94 377.16 101.086 377.23 101.582Z" fill="#2C53ED"/>
</g>
</g>
<g style="mix-blend-mode:screen" opacity="0.5">
<g style="mix-blend-mode:screen" opacity="0.5">
<path d="M383.876 86.5588C383.699 86.5604 383.522 86.5753 383.348 86.6033C383.28 86.6079 383.217 86.6373 383.17 86.686C383.093 86.7623 383.112 86.8831 383.119 86.9849C383.125 87.1582 383.093 87.3307 383.025 87.4901C382.957 87.6495 382.854 87.7919 382.724 87.9071C382.674 87.9552 382.613 87.9902 382.546 88.0089C382.349 88.0407 382.216 87.8117 382.146 87.6209C381.948 87.1185 381.758 86.616 381.567 86.1072C381.523 85.9481 381.435 85.8047 381.313 85.6938C381.084 85.5157 380.727 85.5921 380.479 85.4331C380.231 85.2741 380.028 84.7271 379.684 84.7971C379.341 84.867 379.398 85.2613 379.487 85.5348C379.576 85.8083 379.684 86.1708 379.487 86.3425C379.29 86.5143 378.889 86.3425 378.711 86.0945C378.533 85.8465 378.393 85.5348 378.075 85.4267C377.668 85.2741 377.248 85.6429 377.02 86.0245C376.791 86.4061 376.593 86.845 376.18 86.9913C375.964 87.0285 375.751 87.0838 375.544 87.1566C375.156 87.3729 375.169 87.9325 375.302 88.3587C375.505 88.751 375.552 89.2049 375.436 89.6307C375.421 89.6713 375.398 89.7086 375.369 89.7402C375.339 89.7719 375.304 89.7974 375.264 89.8151C375.092 89.8787 374.921 89.7133 374.806 89.5734C374.174 88.7622 373.622 87.8909 373.159 86.9722C373.054 86.8 372.999 86.6017 373 86.3998C373.031 86.2759 373.071 86.1547 373.121 86.0373C373.186 85.6016 373.209 85.1608 373.191 84.7207C373.28 83.9766 373.89 83.277 373.649 82.5711C373.537 82.3182 373.402 82.0756 373.248 81.846C373.172 81.7312 373.135 81.5946 373.143 81.457C373.151 81.3193 373.203 81.188 373.293 81.0828C373.715 81.0305 374.139 81.0029 374.565 81.0001C376.476 80.9903 378.353 81.503 379.994 82.4826C381.635 83.4623 382.977 84.8718 383.876 86.5588Z" fill="#2C53ED"/>
</g>
</g>
<g style="mix-blend-mode:screen" opacity="0.5">
<g style="mix-blend-mode:screen" opacity="0.5">
<path d="M384.532 92.3312C384.541 94.5617 383.831 96.7358 382.509 98.5322C382.494 98.4652 382.494 98.3956 382.509 98.3287C382.505 98.0716 382.552 97.8164 382.649 97.5782C382.726 97.4383 382.834 97.3174 382.916 97.1775C383.069 96.8006 383.109 96.3873 383.031 95.9882C383.04 95.7589 382.968 95.5338 382.827 95.3522C382.732 95.2568 382.598 95.1995 382.503 95.0978C382.274 94.8625 382.344 94.4618 382.395 94.1565C382.446 93.8512 382.395 93.4187 382.115 93.2979C381.745 93.8073 381.333 94.284 380.881 94.7225C380.885 94.6352 380.869 94.5482 380.833 94.4685C380.797 94.3888 380.742 94.3188 380.674 94.2642C380.606 94.2096 380.526 94.172 380.44 94.1544C380.354 94.1367 380.266 94.1396 380.182 94.1628C380.016 94.2281 379.877 94.3469 379.788 94.5002C379.698 94.6535 379.662 94.8326 379.685 95.0087C379.38 95.0087 379.317 94.5826 379.355 94.2837C379.431 93.7685 379.501 93.2597 379.571 92.7446C379.234 92.5983 378.992 93.1325 378.636 93.2088C378.559 93.2186 378.48 93.2122 378.405 93.1901C378.33 93.1681 378.261 93.1308 378.201 93.0807C378.142 93.0305 378.093 92.9685 378.058 92.8987C378.024 92.8288 378.004 92.7525 378 92.6746C377.998 92.3674 378.082 92.0656 378.242 91.8033C378.401 91.4789 378.56 91.1673 378.712 90.8366C378.874 90.3981 379.173 90.0234 379.565 89.7681C380.103 89.5902 380.687 89.6105 381.212 89.8253C381.474 89.9284 381.757 89.9637 382.036 89.9282C382.315 89.8926 382.581 89.7872 382.808 89.6218C383.019 89.3633 383.151 89.0499 383.19 88.7187C383.247 88.4388 383.33 88.1145 383.59 88C384.214 89.3587 384.535 90.8364 384.532 92.3312Z" fill="#2C53ED"/>
</g>
</g>
<g style="mix-blend-mode:multiply" opacity="0.3">
<path d="M382.471 99.2229C382.325 99.3946 382.166 99.5663 382.007 99.7253C381.723 100.019 381.421 100.295 381.104 100.552C380.634 100.936 380.132 101.279 379.603 101.576C379.196 101.821 378.771 102.033 378.331 102.212C377.316 102.617 376.242 102.856 375.151 102.918C374.941 102.918 374.725 102.918 374.515 102.918C371.938 102.92 369.449 101.975 367.524 100.262C365.598 98.5487 364.369 96.1877 364.071 93.6278C363.772 91.0678 364.425 88.4875 365.905 86.3776C367.385 84.2676 369.589 82.7753 372.098 82.1844H372.193C372.529 82.1029 372.868 82.0413 373.211 82H373.262C372.219 82.9536 371.387 84.1148 370.82 85.409C370.149 86.9398 369.869 88.6135 370.006 90.2792C370.143 91.9449 370.692 93.5505 371.603 94.9514C372.515 96.3524 373.76 97.5047 375.228 98.3047C376.695 99.1047 378.338 99.5273 380.01 99.5345H380.646C381.263 99.4881 381.874 99.3837 382.471 99.2229Z" fill="#2C53ED"/>
</g>
<path opacity="0.5" d="M387.118 91.9394C387.118 88.5096 385.756 85.2202 383.331 82.7944C380.906 80.3685 377.618 79.0049 374.188 79.0032C374.093 78.994 373.998 79.0047 373.908 79.0346C373.818 79.0644 373.735 79.1128 373.665 79.1766C373.595 79.2404 373.538 79.3182 373.5 79.405C373.461 79.4917 373.442 79.5856 373.442 79.6805C373.442 79.7754 373.461 79.8693 373.5 79.9561C373.538 80.0428 373.595 80.1206 373.665 80.1844C373.735 80.2482 373.818 80.2966 373.908 80.3265C373.998 80.3563 374.093 80.367 374.188 80.3579C376.14 80.3616 378.06 80.859 379.769 81.8037C381.478 82.7484 382.92 84.1098 383.962 85.7614C385.003 87.4129 385.61 89.301 385.726 91.25C385.843 93.1991 385.464 95.1459 384.626 96.9095C383.788 98.6732 382.518 100.196 380.934 101.337C379.349 102.478 377.502 103.2 375.564 103.436C373.626 103.672 371.659 103.414 369.848 102.686C368.036 101.958 366.437 100.784 365.201 99.2725C365.145 99.2032 365.076 99.1456 364.997 99.1033C364.919 99.0609 364.833 99.0345 364.744 99.0256C364.655 99.0168 364.566 99.0256 364.481 99.0516C364.395 99.0776 364.316 99.1202 364.247 99.1771C364.178 99.2315 364.12 99.2997 364.079 99.3775C364.037 99.4552 364.012 99.5407 364.006 99.6287C363.994 99.717 364.001 99.8068 364.026 99.8922C364.051 99.9777 364.094 100.057 364.152 100.125C365.283 101.505 366.689 102.635 368.279 103.444C369.87 104.253 371.611 104.723 373.393 104.825V107.083H369.481C369.363 107.072 369.244 107.087 369.131 107.125C369.018 107.164 368.915 107.225 368.827 107.305C368.74 107.386 368.67 107.484 368.622 107.592C368.574 107.701 368.549 107.819 368.549 107.938C368.549 108.057 368.574 108.175 368.622 108.284C368.67 108.392 368.74 108.49 368.827 108.571C368.915 108.651 369.018 108.712 369.131 108.751C369.244 108.789 369.363 108.804 369.481 108.793H378.977C379.191 108.775 379.39 108.677 379.536 108.518C379.681 108.36 379.762 108.153 379.762 107.938C379.762 107.723 379.681 107.516 379.536 107.358C379.39 107.199 379.191 107.101 378.977 107.083H375.066V104.825C378.332 104.601 381.392 103.147 383.629 100.756C385.866 98.3642 387.112 95.2137 387.118 91.9394Z" fill="#2C53ED"/>
</g>
<path d="M191.055 255.083C191.146 255.778 191.029 256.484 190.718 257.113C190.408 257.741 189.918 258.263 189.311 258.613C188.704 258.963 188.006 259.125 187.307 259.078C186.608 259.031 185.938 258.779 185.383 258.351C184.827 257.924 184.411 257.341 184.186 256.678C183.962 256.014 183.94 255.298 184.122 254.621C184.304 253.945 184.683 253.337 185.211 252.876C185.739 252.415 186.391 252.12 187.086 252.03C187.547 251.97 188.016 252 188.465 252.121C188.914 252.242 189.335 252.45 189.704 252.733C190.073 253.017 190.382 253.37 190.614 253.774C190.845 254.177 190.995 254.622 191.055 255.083Z" fill="#9999F1"/>
<path d="M186 255.571L187.558 256.735L189.085 254" stroke="white" stroke-width="1.06" stroke-linecap="round" stroke-linejoin="round"/>
<path d="M199.907 68.4367C200.127 69.1031 200.143 69.8196 199.955 70.4954C199.767 71.1712 199.382 71.7758 198.849 72.2327C198.317 72.6895 197.661 72.978 196.964 73.0615C196.268 73.145 195.562 73.0198 194.937 72.7018C194.311 72.3838 193.794 71.8872 193.452 71.2751C193.109 70.663 192.956 69.9629 193.011 69.2635C193.067 68.5642 193.329 67.8971 193.764 67.3468C194.199 66.7965 194.788 66.3878 195.455 66.1725C196.346 65.8836 197.315 65.9598 198.15 66.3842C198.984 66.8087 199.616 67.5468 199.907 68.4367Z" fill="#9999F1"/>
<path d="M195 70.1179L196.743 70.9701L197.728 68" stroke="white" stroke-width="1.06" stroke-linecap="round" stroke-linejoin="round"/>
<path d="M390.808 133.834C390.725 134.9 390.328 135.918 389.666 136.758C389.005 137.599 388.11 138.225 387.094 138.557C386.077 138.889 384.985 138.913 383.955 138.625C382.925 138.337 382.004 137.75 381.307 136.939C380.61 136.128 380.169 135.128 380.04 134.067C379.91 133.005 380.098 131.929 380.58 130.974C381.062 130.02 381.816 129.229 382.746 128.702C383.677 128.175 384.743 127.936 385.809 128.015C386.52 128.066 387.214 128.258 387.851 128.579C388.488 128.899 389.055 129.343 389.52 129.884C389.985 130.425 390.338 131.052 390.559 131.73C390.78 132.408 390.865 133.123 390.808 133.834Z" fill="#617FF1"/>
<path d="M383 133.406L384.978 135.625L388.101 132" stroke="white" stroke-width="1.62" stroke-linecap="round" stroke-linejoin="round"/>
<path d="M373.607 133.272C373.614 133.532 373.542 133.787 373.403 134.005C373.264 134.224 373.062 134.396 372.825 134.499C372.587 134.603 372.324 134.633 372.069 134.587C371.814 134.54 371.579 134.418 371.393 134.237C371.208 134.056 371.08 133.824 371.027 133.57C370.975 133.317 370.998 133.053 371.096 132.813C371.194 132.573 371.361 132.367 371.576 132.223C371.791 132.078 372.044 132 372.303 132C372.473 131.996 372.642 132.026 372.8 132.088C372.958 132.15 373.102 132.243 373.223 132.362C373.345 132.48 373.442 132.622 373.507 132.778C373.573 132.935 373.607 133.103 373.607 133.272Z" fill="#9999F1"/>
<path opacity="0.3" d="M330.607 44.2724C330.614 44.5328 330.542 44.7892 330.401 45.0084C330.26 45.2276 330.057 45.3997 329.817 45.5022C329.578 45.6048 329.313 45.6333 329.057 45.584C328.801 45.5348 328.566 45.41 328.382 45.2257C328.198 45.0415 328.073 44.8063 328.024 44.5504C327.974 44.2946 328.003 44.0299 328.105 43.7904C328.208 43.5509 328.38 43.3476 328.599 43.2068C328.818 43.066 329.075 42.9941 329.335 43.0004C329.673 43.0004 329.996 43.1344 330.235 43.3729C330.473 43.6115 330.607 43.935 330.607 44.2724Z" fill="#9999F1"/>
<path d="M118.159 163.08C118.159 163.491 118.037 163.893 117.809 164.235C117.58 164.577 117.256 164.844 116.876 165.001C116.496 165.159 116.077 165.2 115.674 165.119C115.271 165.039 114.9 164.841 114.609 164.55C114.318 164.259 114.12 163.889 114.04 163.485C113.96 163.082 114.001 162.664 114.158 162.284C114.316 161.904 114.582 161.579 114.924 161.351C115.266 161.122 115.668 161 116.08 161C116.353 160.999 116.624 161.052 116.877 161.157C117.129 161.261 117.359 161.414 117.552 161.607C117.745 161.801 117.899 162.03 118.003 162.283C118.107 162.536 118.16 162.806 118.159 163.08Z" fill="#9999F1"/>
<path opacity="0.3" d="M434.36 183.18C434.36 183.809 434.174 184.424 433.824 184.947C433.475 185.47 432.978 185.877 432.397 186.118C431.816 186.359 431.176 186.422 430.56 186.299C429.943 186.176 429.376 185.873 428.931 185.429C428.487 184.984 428.184 184.417 428.061 183.8C427.938 183.184 428.001 182.544 428.242 181.963C428.483 181.382 428.89 180.885 429.413 180.536C429.936 180.187 430.551 180 431.18 180C432.023 180 432.832 180.335 433.429 180.931C434.025 181.528 434.36 182.337 434.36 183.18Z" fill="#9999F1"/>
<path opacity="0.3" d="M84.36 139.18C84.36 139.809 84.1735 140.424 83.8241 140.947C83.4746 141.47 82.978 141.877 82.3969 142.118C81.8159 142.359 81.1765 142.422 80.5596 142.299C79.9428 142.176 79.3761 141.873 78.9314 141.429C78.4867 140.984 78.1838 140.417 78.0611 139.8C77.9384 139.184 78.0014 138.544 78.2421 137.963C78.4827 137.382 78.8903 136.885 79.4133 136.536C79.9362 136.187 80.5511 136 81.18 136C82.0234 136 82.8322 136.335 83.4286 136.931C84.025 137.528 84.36 138.337 84.36 139.18Z" fill="#9999F1"/>
<path opacity="0.3" d="M408.159 212.073C408.161 212.485 408.04 212.888 407.812 213.231C407.584 213.573 407.26 213.841 406.88 213.999C406.5 214.158 406.082 214.2 405.678 214.12C405.274 214.041 404.903 213.843 404.611 213.553C404.32 213.262 404.121 212.891 404.04 212.488C403.96 212.084 404 211.666 404.158 211.285C404.315 210.905 404.581 210.58 404.924 210.351C405.266 210.122 405.668 210 406.08 210C406.353 209.999 406.623 210.052 406.875 210.156C407.127 210.26 407.357 210.412 407.55 210.605C407.743 210.798 407.896 211.026 408.001 211.278C408.106 211.53 408.159 211.801 408.159 212.073Z" fill="#9999F1"/>
<path opacity="0.3" d="M245.159 51.048C245.166 51.4611 245.049 51.8668 244.823 52.2133C244.598 52.5597 244.275 52.8312 243.895 52.9931C243.515 53.1551 243.095 53.2001 242.689 53.1224C242.283 53.0447 241.91 52.848 241.616 52.5571C241.322 52.2663 241.122 51.8946 241.041 51.4895C240.959 51.0844 241 50.6642 241.159 50.2825C241.317 49.9009 241.586 49.5751 241.93 49.3466C242.274 49.1182 242.679 48.9976 243.092 49C243.636 49.0033 244.157 49.2195 244.543 49.6023C244.93 49.9852 245.151 50.5041 245.159 51.048Z" fill="#9999F1"/>
<path opacity="0.2" d="M284.159 41.0734C284.161 41.485 284.04 41.8877 283.812 42.2305C283.584 42.5734 283.26 42.8409 282.88 42.9993C282.5 43.1577 282.082 43.1998 281.678 43.1203C281.274 43.0407 280.903 42.8432 280.611 42.5526C280.32 42.262 280.121 41.8914 280.04 41.4878C279.96 41.0842 280 40.6657 280.158 40.2853C280.315 39.9049 280.581 39.5798 280.924 39.351C281.266 39.1221 281.668 39 282.08 39C282.353 38.9992 282.623 39.0522 282.875 39.156C283.127 39.2598 283.357 39.4124 283.55 39.605C283.743 39.7976 283.896 40.0265 284.001 40.2785C284.106 40.5304 284.159 40.8006 284.159 41.0734Z" fill="#9999F1"/>
<path d="M78.4198 111.759C78.3095 111.759 78.2037 111.715 78.1252 111.638C78.0466 111.561 78.0017 111.456 78 111.345V108.413C78.0017 108.303 78.0466 108.198 78.1252 108.121C78.2037 108.043 78.3095 108 78.4198 108C78.474 108 78.5278 108.011 78.5779 108.031C78.6281 108.052 78.6737 108.083 78.7121 108.121C78.7505 108.159 78.7809 108.205 78.8017 108.255C78.8225 108.305 78.8331 108.359 78.8331 108.413V111.345C78.8331 111.4 78.8225 111.453 78.8017 111.504C78.7809 111.554 78.7505 111.599 78.7121 111.638C78.6737 111.676 78.6281 111.707 78.5779 111.727C78.5278 111.748 78.474 111.759 78.4198 111.759Z" fill="#9999F1"/>
<path d="M80.3454 109.833H77.4134C77.3038 109.833 77.1986 109.79 77.1211 109.712C77.0436 109.635 77 109.529 77 109.42C77 109.31 77.0433 109.204 77.1207 109.125C77.198 109.047 77.3032 109.002 77.4134 109H80.3454C80.4562 109.002 80.562 109.046 80.6404 109.125C80.7187 109.203 80.7635 109.309 80.7651 109.42C80.7635 109.53 80.7185 109.635 80.64 109.712C80.5614 109.79 80.4556 109.833 80.3454 109.833Z" fill="#9999F1"/>
<g opacity="0.3">
<path opacity="0.3" d="M101.42 37.7588C101.31 37.7588 101.204 37.7154 101.125 37.6381C101.047 37.5607 101.002 37.4556 101 37.3454V34.4134C101.002 34.3032 101.047 34.198 101.125 34.1207C101.204 34.0433 101.31 34 101.42 34C101.529 34 101.635 34.0436 101.712 34.1211C101.79 34.1986 101.833 34.3038 101.833 34.4134V37.3454C101.833 37.455 101.79 37.5601 101.712 37.6377C101.635 37.7152 101.529 37.7588 101.42 37.7588Z" fill="#9999F1"/>
<path opacity="0.3" d="M103.345 35.8332H100.413C100.303 35.8315 100.198 35.7865 100.121 35.708C100.043 35.6295 100 35.5236 100 35.4134C100 35.3038 100.044 35.1986 100.121 35.1211C100.199 35.0436 100.304 35 100.413 35H103.345C103.455 35 103.56 35.0436 103.638 35.1211C103.715 35.1986 103.759 35.3038 103.759 35.4134C103.759 35.5236 103.715 35.6295 103.638 35.708C103.561 35.7865 103.456 35.8315 103.345 35.8332Z" fill="#9999F1"/>
</g>
<path d="M345.42 72.7588C345.309 72.7588 345.204 72.7154 345.125 72.6381C345.047 72.5607 345.002 72.4556 345 72.3454V69.4134C345.002 69.3032 345.047 69.198 345.125 69.1207C345.204 69.0433 345.309 69 345.42 69C345.529 69 345.635 69.0436 345.712 69.1211C345.79 69.1986 345.833 69.3038 345.833 69.4134V72.3454C345.833 72.455 345.79 72.5601 345.712 72.6377C345.635 72.7152 345.529 72.7588 345.42 72.7588Z" fill="#9999F1"/>
<path d="M347.345 70.8332H344.413C344.303 70.8315 344.198 70.7865 344.121 70.708C344.043 70.6295 344 70.5236 344 70.4134C344 70.3038 344.044 70.1986 344.121 70.1211C344.199 70.0436 344.304 70 344.413 70H347.345C347.455 70 347.56 70.0436 347.638 70.1211C347.715 70.1986 347.759 70.3038 347.759 70.4134C347.759 70.5236 347.715 70.6295 347.638 70.708C347.561 70.7865 347.456 70.8315 347.345 70.8332Z" fill="#9999F1"/>
<path d="M435.413 227.759C435.304 227.759 435.199 227.715 435.121 227.638C435.044 227.56 435 227.455 435 227.345V224.413C435 224.304 435.044 224.199 435.121 224.121C435.199 224.044 435.304 224 435.413 224C435.524 224 435.629 224.043 435.708 224.121C435.787 224.198 435.832 224.303 435.833 224.413V227.345C435.832 227.456 435.787 227.561 435.708 227.638C435.629 227.715 435.524 227.759 435.413 227.759Z" fill="#9999F1"/>
<path d="M437.345 225.833H434.413C434.303 225.831 434.198 225.787 434.121 225.708C434.043 225.629 434 225.524 434 225.413C434 225.304 434.044 225.199 434.121 225.121C434.199 225.044 434.304 225 434.413 225H437.345C437.455 225 437.56 225.044 437.638 225.121C437.715 225.199 437.759 225.304 437.759 225.413C437.759 225.524 437.715 225.629 437.638 225.708C437.561 225.787 437.456 225.831 437.345 225.833Z" fill="#9999F1"/>
<path d="M338.462 110.674V133.042C338.462 133.224 338.39 133.399 338.261 133.528C338.132 133.657 337.957 133.729 337.775 133.729H315.681C315.591 133.729 315.502 133.711 315.419 133.677C315.336 133.642 315.26 133.591 315.197 133.528C315.134 133.464 315.084 133.388 315.05 133.305C315.016 133.221 314.999 133.132 315 133.042V110.674C315.002 110.495 315.074 110.323 315.202 110.197C315.329 110.071 315.501 110 315.681 110H337.782C337.961 110 338.133 110.071 338.261 110.197C338.388 110.323 338.46 110.495 338.462 110.674Z" fill="white"/>
<path d="M337.652 128.705V132.909C337.652 133.091 337.579 133.266 337.45 133.395C337.322 133.523 337.147 133.596 336.965 133.596H326L326.471 128.724L331.629 123L337.652 128.705Z" fill="#274FED"/>
<path d="M335.397 132.974H315.681C315.591 132.974 315.502 132.957 315.419 132.922C315.336 132.887 315.26 132.837 315.197 132.773C315.134 132.709 315.084 132.633 315.05 132.55C315.016 132.467 314.999 132.377 315 132.288V128.103L322.721 120L335.397 132.974Z" fill="#274FED"/>
<path d="M335.444 115.722C335.444 116.26 335.285 116.787 334.985 117.234C334.686 117.682 334.261 118.031 333.764 118.237C333.266 118.443 332.719 118.497 332.191 118.392C331.663 118.287 331.178 118.028 330.797 117.647C330.417 117.266 330.157 116.781 330.052 116.253C329.947 115.725 330.001 115.178 330.207 114.68C330.413 114.183 330.762 113.758 331.21 113.459C331.657 113.16 332.184 113 332.722 113C333.444 113 334.136 113.287 334.647 113.797C335.157 114.308 335.444 115 335.444 115.722Z" fill="#274FED"/>
<path d="M337.96 135H315.502C315.225 135 315 135.225 315 135.502V136.571C315 136.848 315.225 137.073 315.502 137.073H337.96C338.237 137.073 338.462 136.848 338.462 136.571V135.502C338.462 135.225 338.237 135 337.96 135Z" fill="white"/>
<path d="M337.96 139H315.502C315.225 139 315 139.225 315 139.502V140.571C315 140.848 315.225 141.073 315.502 141.073H337.96C338.237 141.073 338.462 140.848 338.462 140.571V139.502C338.462 139.225 338.237 139 337.96 139Z" fill="white"/>
<defs>
<linearGradient id="paint0_linear" x1="265.14" y1="101.575" x2="265.14" y2="235.714" gradientUnits="userSpaceOnUse">
<stop stop-color="white"/>
<stop offset="1" stop-color="white" stop-opacity="0"/>
</linearGradient>
<linearGradient id="paint1_linear" x1="31823.5" y1="21484.9" x2="31823.5" y2="49601.7" gradientUnits="userSpaceOnUse">
<stop stop-color="white"/>
<stop offset="1" stop-color="white" stop-opacity="0"/>
</linearGradient>
</defs>
</svg>
