<svg width="477" height="318" viewBox="0 0 477 318" fill="none" xmlns="http://www.w3.org/2000/svg">
<g clip-path="url(#clip0)">
<path d="M477 0H0V318H477V0Z" fill="white"/>
<path opacity="0.2" d="M60.0432 281.443C60.0432 281.443 18.3916 232.903 65.3157 180.077C103.132 137.465 91.0609 121.025 89.3119 92.3091C87.8364 68.0075 115.388 32.0672 156.645 30.2737C224.252 27.3353 241.062 49.0611 276.957 47.522C312.853 45.9829 329.084 33.4028 370.774 38.3636C448.143 47.5538 437.687 120.878 426.436 175.682C415.186 230.486 449.04 249.204 424.662 281.481" fill="#B5D0FF"/>
<path d="M62.9818 267.003C62.9818 267.003 32.1994 225.415 41.8857 216.537C51.572 207.658 65.634 238.937 62.9818 267.003Z" fill="#617FF1"/>
<path d="M45.038 222.343C50.5405 230.785 54.9493 239.891 58.1586 249.443C59.5578 253.598 60.7514 257.808 61.7393 262.074C62.6615 266.081 63.2657 270.138 64.0989 274.158C64.1108 274.203 64.1387 274.242 64.1774 274.268C64.2161 274.293 64.2629 274.304 64.309 274.298C64.3551 274.292 64.3973 274.269 64.4277 274.234C64.4581 274.199 64.4746 274.153 64.4741 274.107C63.8381 265.642 61.4849 257.018 58.7501 249.004C55.6012 239.45 51.1153 230.391 45.4259 222.095C45.2606 221.866 44.879 222.095 45.038 222.324V222.343Z" fill="#7878C4"/>
<path d="M44.0955 227.356C46.6967 229.201 49.1835 231.306 51.7975 233.08C51.9628 233.188 52.1155 232.953 52.001 232.82C49.8313 230.404 47.2107 228.436 44.2863 227.026C44.2424 227 44.1903 226.993 44.1414 227.007C44.0925 227.02 44.0508 227.052 44.0255 227.095C44.0002 227.139 43.9934 227.191 44.0065 227.24C44.0196 227.289 44.0516 227.331 44.0955 227.356Z" fill="#7878C4"/>
<path d="M45.1209 230.356C47.7222 232.201 50.2089 234.299 52.8229 236.08C52.9883 236.195 53.1409 235.959 53.0264 235.819C50.8483 233.403 48.219 231.434 45.2863 230.026C45.2424 230 45.1903 229.993 45.1414 230.007C45.0925 230.02 45.0508 230.052 45.0255 230.096C45.0002 230.139 44.9934 230.191 45.0065 230.24C45.0196 230.289 45.0516 230.331 45.0955 230.356H45.1209Z" fill="#7878C4"/>
<path d="M69.5401 262.445C69.5401 262.445 99.2159 220.069 89.3261 211.444C79.4363 202.82 66.1502 234.468 69.5401 262.445Z" fill="#617FF1"/>
<path d="M86.0242 216.08C80.1771 225.118 75.7139 234.979 72.7827 245.336C70.296 253.865 68.2989 263.017 68 271.927C68 272.137 68.3434 272.194 68.3752 271.978C69.0112 267.761 69.4564 263.526 70.2196 259.328C71.0499 254.762 72.1113 250.24 73.3996 245.781C76.3876 235.421 80.7649 225.513 86.4122 216.328C86.5648 216.08 86.1832 215.864 86.0242 216.105V216.08Z" fill="#7878C4"/>
<path d="M70.0883 242.191C69.8538 245.725 70.0869 249.275 70.7816 252.748C70.7925 252.787 70.8169 252.82 70.8502 252.841C70.8835 252.863 70.9236 252.872 70.963 252.867C71.0025 252.861 71.0386 252.842 71.0649 252.812C71.0911 252.782 71.1057 252.744 71.1059 252.704C71.1068 251.053 71.0219 249.404 70.8515 247.762C70.7307 245.911 70.6671 244.042 70.4699 242.191C70.4699 242.14 70.4498 242.092 70.414 242.056C70.3782 242.02 70.3297 242 70.2791 242C70.2285 242 70.18 242.02 70.1442 242.056C70.1084 242.092 70.0883 242.14 70.0883 242.191Z" fill="#0E7C74"/>
<path d="M67.0163 247.334C67.0163 247.334 37.1243 205.098 47.0014 196.454C56.8785 187.811 70.279 219.344 67.0163 247.334Z" fill="#AAB9F4"/>
<path d="M50.0354 201.327C60.3958 217.92 66.158 236.892 68.1232 256.29C68.5175 260.182 68.6893 264.081 68.9818 267.986C68.9901 268.031 69.014 268.072 69.0495 268.102C69.0849 268.131 69.1296 268.148 69.1758 268.148C69.222 268.148 69.2667 268.131 69.3021 268.102C69.3376 268.072 69.3615 268.031 69.3698 267.986C69.5479 260.487 68.5939 252.849 67.3219 245.478C65.7174 235.866 62.9959 226.474 59.2129 217.494C56.7809 211.775 53.8369 206.287 50.417 201.098C50.2643 200.862 49.8827 201.098 50.0354 201.327Z" fill="#7878C4"/>
<path d="M65.234 259.482C65.234 259.482 83.6144 234.22 77.7378 228.91C71.8611 223.599 63.4914 242.552 65.234 259.482Z" fill="#AAB9F4"/>
<path d="M76.0234 232.069C71.5029 238.775 68.2381 246.247 66.388 254.12C64.957 259.933 63.7804 266.324 64.0348 272.341C64.0431 272.386 64.067 272.427 64.1024 272.457C64.1379 272.487 64.1826 272.503 64.2288 272.503C64.2749 272.503 64.3197 272.487 64.3551 272.457C64.3906 272.427 64.4145 272.386 64.4228 272.341C65.1605 266.267 65.593 260.257 67.0749 254.31C68.9939 246.532 72.146 239.112 76.4114 232.33C76.564 232.082 76.1824 231.866 76.0234 232.101V232.069Z" fill="#7878C4"/>
<path d="M77.2825 259L77.1362 259.967L76.8309 262.021L73.899 281.724H56.3835L53.4452 262.021L53.1399 259.967L53 259H77.2825Z" fill="#617FF1"/>
<path d="M76.9963 260L76.691 262.054H53.3053L53 260H76.9963Z" fill="#7878C4"/>
<path d="M77.3876 260.875H52.4246C52.0483 260.87 51.6888 260.718 51.4227 260.452C51.1566 260.186 51.0049 259.826 51 259.45C51 259.066 51.1528 258.697 51.4247 258.425C51.6967 258.153 52.0655 258 52.4501 258H77.4131C77.7976 258 78.1665 258.153 78.4384 258.425C78.7104 258.697 78.8631 259.066 78.8631 259.45C78.8607 259.641 78.8204 259.829 78.7448 260.004C78.6691 260.179 78.5595 260.338 78.4223 260.47C78.2851 260.602 78.1231 260.706 77.9455 260.776C77.7679 260.845 77.5783 260.879 77.3876 260.875Z" fill="#AAB9F4"/>
<path d="M46 282H430.068" stroke="#1438C7" stroke-width="2" stroke-linecap="round" stroke-linejoin="round"/>
<path d="M124 217.108C124.364 217.335 124.749 217.524 125.151 217.674C126.012 218.006 126.932 218.157 127.854 218.119C128.347 218.096 128.837 218.026 129.317 217.909C129.739 217.813 130.153 217.688 130.557 217.534C130.96 217.385 131.351 217.206 131.727 217C131.4 217.287 131.039 217.533 130.653 217.731C130.246 217.943 129.82 218.116 129.381 218.247C128.884 218.393 128.371 218.48 127.854 218.507C127.33 218.529 126.806 218.477 126.296 218.355C125.855 218.244 125.428 218.081 125.024 217.871C124.646 217.67 124.301 217.412 124 217.108Z" fill="#EAA18B"/>
<path d="M95 253C95.4251 253.291 95.9285 253.446 96.4437 253.445H98.727" stroke="#9ACEE2" stroke-miterlimit="10" stroke-linecap="round"/>
<path d="M349 118H352.816" stroke="#9ACEE2" stroke-miterlimit="10" stroke-linecap="round"/>
<path d="M406.816 206H403" stroke="#9ACEE2" stroke-miterlimit="10" stroke-linecap="round"/>
<path opacity="0.5" d="M293.735 211H291V218.689H293.735V211Z" fill="#94C1F7"/>
<path d="M104 186.647L106.665 189.961L111.397 185" stroke="white" stroke-width="1.38" stroke-linecap="round" stroke-linejoin="round"/>
<path d="M191.055 255.083C191.146 255.778 191.029 256.484 190.718 257.113C190.408 257.741 189.918 258.263 189.311 258.613C188.704 258.963 188.006 259.125 187.307 259.078C186.608 259.031 185.938 258.779 185.383 258.351C184.827 257.924 184.411 257.341 184.186 256.678C183.962 256.014 183.94 255.298 184.122 254.621C184.304 253.945 184.683 253.337 185.211 252.876C185.739 252.415 186.391 252.12 187.086 252.03C187.547 251.97 188.016 252 188.465 252.121C188.914 252.242 189.335 252.45 189.704 252.733C190.073 253.017 190.382 253.37 190.614 253.774C190.845 254.177 190.995 254.622 191.055 255.083Z" fill="#9999F1"/>
<path d="M186 255.571L187.558 256.735L189.085 254" stroke="white" stroke-width="1.06" stroke-linecap="round" stroke-linejoin="round"/>
<path d="M199.907 68.4367C200.127 69.1031 200.143 69.8196 199.955 70.4954C199.767 71.1712 199.382 71.7758 198.849 72.2327C198.317 72.6895 197.661 72.978 196.964 73.0615C196.268 73.145 195.562 73.0198 194.937 72.7018C194.311 72.3838 193.794 71.8872 193.452 71.2751C193.109 70.663 192.956 69.9629 193.011 69.2635C193.067 68.5642 193.329 67.8971 193.764 67.3468C194.199 66.7965 194.788 66.3878 195.455 66.1725C196.346 65.8836 197.315 65.9598 198.15 66.3842C198.984 66.8087 199.616 67.5468 199.907 68.4367Z" fill="#9999F1"/>
<path d="M195 70.1179L196.743 70.9701L197.728 68" stroke="white" stroke-width="1.06" stroke-linecap="round" stroke-linejoin="round"/>
<path d="M373.607 133.272C373.614 133.532 373.542 133.787 373.403 134.005C373.264 134.224 373.062 134.396 372.825 134.499C372.587 134.603 372.324 134.633 372.069 134.587C371.814 134.54 371.579 134.418 371.393 134.237C371.208 134.056 371.08 133.824 371.027 133.57C370.975 133.317 370.998 133.053 371.096 132.813C371.194 132.573 371.361 132.367 371.576 132.223C371.791 132.078 372.044 132 372.303 132C372.473 131.996 372.642 132.026 372.8 132.088C372.958 132.15 373.102 132.243 373.223 132.362C373.345 132.48 373.442 132.622 373.507 132.778C373.573 132.935 373.607 133.103 373.607 133.272Z" fill="#9999F1"/>
<path opacity="0.3" d="M330.607 44.2724C330.614 44.5328 330.542 44.7892 330.401 45.0084C330.26 45.2276 330.057 45.3997 329.817 45.5022C329.578 45.6048 329.313 45.6333 329.057 45.584C328.801 45.5348 328.566 45.41 328.382 45.2257C328.198 45.0415 328.073 44.8063 328.024 44.5504C327.974 44.2946 328.003 44.0299 328.105 43.7904C328.208 43.5509 328.38 43.3476 328.599 43.2068C328.818 43.066 329.075 42.9941 329.335 43.0004C329.673 43.0004 329.996 43.1344 330.235 43.3729C330.473 43.6115 330.607 43.935 330.607 44.2724Z" fill="#9999F1"/>
<path d="M118.159 163.08C118.159 163.491 118.037 163.893 117.809 164.235C117.58 164.577 117.256 164.844 116.876 165.001C116.496 165.159 116.077 165.2 115.674 165.119C115.271 165.039 114.9 164.841 114.609 164.55C114.318 164.259 114.12 163.889 114.04 163.485C113.96 163.082 114.001 162.664 114.158 162.284C114.316 161.904 114.582 161.579 114.924 161.351C115.266 161.122 115.668 161 116.08 161C116.353 160.999 116.624 161.052 116.877 161.157C117.129 161.261 117.359 161.414 117.552 161.607C117.745 161.801 117.899 162.03 118.003 162.283C118.107 162.536 118.16 162.806 118.159 163.08Z" fill="#9999F1"/>
<path opacity="0.3" d="M434.36 183.18C434.36 183.809 434.174 184.424 433.824 184.947C433.475 185.47 432.978 185.877 432.397 186.118C431.816 186.359 431.176 186.422 430.56 186.299C429.943 186.176 429.376 185.873 428.931 185.429C428.487 184.984 428.184 184.417 428.061 183.8C427.938 183.184 428.001 182.544 428.242 181.963C428.483 181.382 428.89 180.885 429.413 180.536C429.936 180.187 430.551 180 431.18 180C432.023 180 432.832 180.335 433.429 180.931C434.025 181.528 434.36 182.337 434.36 183.18Z" fill="#9999F1"/>
<path opacity="0.3" d="M84.36 139.18C84.36 139.809 84.1735 140.424 83.8241 140.947C83.4746 141.47 82.978 141.877 82.3969 142.118C81.8159 142.359 81.1765 142.422 80.5596 142.299C79.9428 142.176 79.3761 141.873 78.9314 141.429C78.4867 140.984 78.1838 140.417 78.0611 139.8C77.9384 139.184 78.0014 138.544 78.2421 137.963C78.4827 137.382 78.8903 136.885 79.4133 136.536C79.9362 136.187 80.5511 136 81.18 136C82.0234 136 82.8322 136.335 83.4286 136.931C84.025 137.528 84.36 138.337 84.36 139.18Z" fill="#9999F1"/>
<path opacity="0.3" d="M408.159 212.073C408.161 212.485 408.04 212.888 407.812 213.231C407.584 213.573 407.26 213.841 406.88 213.999C406.5 214.158 406.082 214.2 405.678 214.12C405.274 214.041 404.903 213.843 404.611 213.553C404.32 213.262 404.121 212.891 404.04 212.488C403.96 212.084 404 211.666 404.158 211.285C404.315 210.905 404.581 210.58 404.924 210.351C405.266 210.122 405.668 210 406.08 210C406.353 209.999 406.623 210.052 406.875 210.156C407.127 210.26 407.357 210.412 407.55 210.605C407.743 210.798 407.896 211.026 408.001 211.278C408.106 211.53 408.159 211.801 408.159 212.073Z" fill="#9999F1"/>
<path opacity="0.3" d="M245.159 51.048C245.166 51.4611 245.049 51.8668 244.823 52.2133C244.598 52.5597 244.275 52.8312 243.895 52.9931C243.515 53.1551 243.095 53.2001 242.689 53.1224C242.283 53.0447 241.91 52.848 241.616 52.5571C241.322 52.2663 241.122 51.8946 241.041 51.4895C240.959 51.0844 241 50.6642 241.159 50.2825C241.317 49.9009 241.586 49.5751 241.93 49.3466C242.274 49.1182 242.679 48.9976 243.092 49C243.636 49.0033 244.157 49.2195 244.543 49.6023C244.93 49.9852 245.151 50.5041 245.159 51.048Z" fill="#9999F1"/>
<path opacity="0.2" d="M284.159 41.0734C284.161 41.485 284.04 41.8877 283.812 42.2305C283.584 42.5734 283.26 42.8409 282.88 42.9993C282.5 43.1577 282.082 43.1998 281.678 43.1203C281.274 43.0407 280.903 42.8432 280.611 42.5526C280.32 42.262 280.121 41.8914 280.04 41.4878C279.96 41.0842 280 40.6657 280.158 40.2853C280.315 39.9049 280.581 39.5798 280.924 39.351C281.266 39.1221 281.668 39 282.08 39C282.353 38.9992 282.623 39.0522 282.875 39.156C283.127 39.2598 283.357 39.4124 283.55 39.605C283.743 39.7976 283.896 40.0265 284.001 40.2785C284.106 40.5304 284.159 40.8006 284.159 41.0734Z" fill="#9999F1"/>
<path d="M78.4198 111.759C78.3095 111.759 78.2037 111.715 78.1252 111.638C78.0466 111.561 78.0017 111.456 78 111.345V108.413C78.0017 108.303 78.0466 108.198 78.1252 108.121C78.2037 108.043 78.3095 108 78.4198 108C78.474 108 78.5278 108.011 78.5779 108.031C78.6281 108.052 78.6737 108.083 78.7121 108.121C78.7505 108.159 78.7809 108.205 78.8017 108.255C78.8225 108.305 78.8331 108.359 78.8331 108.413V111.345C78.8331 111.4 78.8225 111.453 78.8017 111.504C78.7809 111.554 78.7505 111.599 78.7121 111.638C78.6737 111.676 78.6281 111.707 78.5779 111.727C78.5278 111.748 78.474 111.759 78.4198 111.759Z" fill="#9999F1"/>
<path d="M345.42 72.7588C345.309 72.7588 345.204 72.7154 345.125 72.6381C345.047 72.5607 345.002 72.4556 345 72.3454V69.4134C345.002 69.3032 345.047 69.198 345.125 69.1207C345.204 69.0433 345.309 69 345.42 69C345.529 69 345.635 69.0436 345.712 69.1211C345.79 69.1986 345.833 69.3038 345.833 69.4134V72.3454C345.833 72.455 345.79 72.5601 345.712 72.6377C345.635 72.7152 345.529 72.7588 345.42 72.7588Z" fill="#9999F1"/>
<mask id="mask0" mask-type="alpha" maskUnits="userSpaceOnUse" x="91" y="-6" width="324" height="324">
<path d="M91 -6H414.961V318H91V-6Z" fill="white"/>
</mask>
<g mask="url(#mask0)">
<path fill-rule="evenodd" clip-rule="evenodd" d="M268.011 51.6848C268.011 52.5947 267.638 53.4248 267.029 54.0251C266.429 54.6294 265.594 55 264.678 55H193.344C191.511 55 190.011 53.5084 190.011 51.6848C190.011 50.7743 190.384 49.9448 190.992 49.3444C191.592 48.7402 192.428 48.3696 193.344 48.3696H196.715C198.047 45.295 201.122 43.1458 204.702 43.1458C207.111 43.1458 209.289 44.1207 210.868 45.692C212.969 42.151 216.845 39.7726 221.282 39.7726C222.502 39.7726 223.676 39.956 224.785 40.2887C227.105 35.9529 231.693 33 236.981 33C243.332 33 248.675 37.2605 250.287 43.0576C251.457 42.4766 252.777 42.1439 254.178 42.1439C258.139 42.1439 261.479 44.7712 262.53 48.3696H264.678C266.51 48.3696 268.011 49.8612 268.011 51.6848Z" fill="#E0E6FF"/>
<path fill-rule="evenodd" clip-rule="evenodd" d="M352.011 66.5888C352.011 67.2506 351.738 67.8546 351.294 68.2911C350.855 68.7308 350.245 69 349.575 69H297.447C296.107 69 295.011 67.9156 295.011 66.5888C295.011 65.927 295.284 65.3237 295.728 64.8872C296.167 64.4475 296.777 64.1777 297.447 64.1777H299.91C300.883 61.9415 303.131 60.3792 305.747 60.3792C307.507 60.3792 309.099 61.0881 310.252 62.231C311.788 59.6557 314.62 57.9261 317.863 57.9261C318.754 57.9261 319.612 58.0597 320.423 58.3009C322.118 55.1477 325.471 53 329.336 53C333.977 53 337.881 56.0984 339.059 60.315C339.914 59.8918 340.878 59.65 341.902 59.65C344.796 59.65 347.238 61.5603 348.006 64.1777H349.575C350.914 64.1777 352.011 65.262 352.011 66.5888Z" fill="#E0E6FF"/>
<path fill-rule="evenodd" clip-rule="evenodd" d="M384.511 123.745C385.836 123.745 386.913 122.514 386.913 121C386.913 119.486 385.836 118.255 384.511 118.255C383.186 118.255 382.109 119.486 382.109 121C382.109 122.514 383.186 123.745 384.511 123.745ZM384.511 117C386.441 117 388.011 118.795 388.011 121C388.011 123.205 386.441 125 384.511 125C382.582 125 381.011 123.205 381.011 121C381.011 118.795 382.582 117 384.511 117Z" fill="#4F95C4"/>
<path fill-rule="evenodd" clip-rule="evenodd" d="M367.511 111.902C368.835 111.902 369.913 110.824 369.913 109.5C369.913 108.175 368.835 107.098 367.511 107.098C366.187 107.098 365.109 108.175 365.109 109.5C365.109 110.824 366.187 111.902 367.511 111.902ZM367.511 106C369.441 106 371.011 107.57 371.011 109.5C371.011 111.43 369.441 113 367.511 113C365.581 113 364.011 111.43 364.011 109.5C364.011 107.57 365.581 106 367.511 106Z" fill="#2C64A1"/>
<path fill-rule="evenodd" clip-rule="evenodd" d="M365.511 95C365.787 95 366.011 95.2796 366.011 95.6243V98.3763C366.011 98.7204 365.787 99 365.511 99C365.235 99 365.011 98.7204 365.011 98.3763V95.6243C365.011 95.2796 365.235 95 365.511 95Z" fill="#4F95C4"/>
<path fill-rule="evenodd" clip-rule="evenodd" d="M365.511 90C365.787 90 366.011 90.2796 366.011 90.6243V93.3757C366.011 93.7204 365.787 94 365.511 94C365.235 94 365.011 93.7204 365.011 93.3757V90.6243C365.011 90.2796 365.235 90 365.511 90Z" fill="#4F95C4"/>
<path fill-rule="evenodd" clip-rule="evenodd" d="M362.514 94H364.508C364.785 94 365.011 94.2239 365.011 94.5C365.011 94.7761 364.785 95 364.508 95H362.514C362.236 95 362.011 94.7761 362.011 94.5C362.011 94.2239 362.236 94 362.514 94Z" fill="#4F95C4"/>
<path fill-rule="evenodd" clip-rule="evenodd" d="M367.514 94H369.507C369.785 94 370.011 94.2239 370.011 94.5C370.011 94.7761 369.785 95 369.507 95H367.514C367.236 95 367.011 94.7761 367.011 94.5C367.011 94.2239 367.236 94 367.514 94Z" fill="#4F95C4"/>
<path fill-rule="evenodd" clip-rule="evenodd" d="M386.51 105C386.787 105 387.011 105.28 387.011 105.624V108.376C387.011 108.721 386.787 109 386.51 109C386.234 109 386.011 108.721 386.011 108.376V105.624C386.011 105.28 386.234 105 386.51 105Z" fill="#4F95C4"/>
<path fill-rule="evenodd" clip-rule="evenodd" d="M386.51 100C386.787 100 387.011 100.28 387.011 100.624V103.376C387.011 103.72 386.787 104 386.51 104C386.234 104 386.011 103.72 386.011 103.376V100.624C386.011 100.28 386.234 100 386.51 100Z" fill="#4F95C4"/>
<path fill-rule="evenodd" clip-rule="evenodd" d="M382.681 104H385.34C385.711 104 386.011 104.223 386.011 104.5C386.011 104.776 385.711 105 385.34 105H382.681C382.311 105 382.011 104.776 382.011 104.5C382.011 104.223 382.311 104 382.681 104Z" fill="#4F95C4"/>
<path fill-rule="evenodd" clip-rule="evenodd" d="M387.682 104H390.34C390.711 104 391.011 104.223 391.011 104.5C391.011 104.776 390.711 105 390.34 105H387.682C387.311 105 387.011 104.776 387.011 104.5C387.011 104.223 387.311 104 387.682 104Z" fill="#4F95C4"/>
<path fill-rule="evenodd" clip-rule="evenodd" d="M168.011 73.902C169.524 73.902 170.755 72.8241 170.755 71.4997C170.755 70.1753 169.524 69.098 168.011 69.098C166.497 69.098 165.265 70.1753 165.265 71.4997C165.265 72.8241 166.497 73.902 168.011 73.902ZM168.011 75C165.805 75 164.011 73.4296 164.011 71.4997C164.011 69.5698 165.805 68 168.011 68C170.216 68 172.011 69.5698 172.011 71.4997C172.011 73.4296 170.216 75 168.011 75Z" fill="#2C64A1"/>
<path fill-rule="evenodd" clip-rule="evenodd" d="M180.011 60.5003C180.011 60.224 179.731 60 179.387 60H176.635C176.29 60 176.011 60.224 176.011 60.5003C176.011 60.7765 176.29 61 176.635 61H179.387C179.731 61 180.011 60.7765 180.011 60.5003Z" fill="#4F95C4"/>
<path fill-rule="evenodd" clip-rule="evenodd" d="M185.011 60.5003C185.011 60.224 184.731 60 184.386 60H181.635C181.29 60 181.011 60.224 181.011 60.5003C181.011 60.7765 181.29 61 181.635 61H184.386C184.731 61 185.011 60.7765 185.011 60.5003Z" fill="#4F95C4"/>
<path fill-rule="evenodd" clip-rule="evenodd" d="M181.011 64.3294V61.6706C181.011 61.3006 180.787 61 180.511 61C180.235 61 180.011 61.3006 180.011 61.6706V64.3294C180.011 64.7001 180.235 65 180.511 65C180.787 65 181.011 64.7001 181.011 64.3294Z" fill="#4F95C4"/>
<path fill-rule="evenodd" clip-rule="evenodd" d="M181.011 59.3288V56.6712C181.011 56.3006 180.787 56 180.511 56C180.235 56 180.011 56.3006 180.011 56.6712V59.3288C180.011 59.6994 180.235 60 180.511 60C180.787 60 181.011 59.6994 181.011 59.3288Z" fill="#4F95C4"/>
<path fill-rule="evenodd" clip-rule="evenodd" d="M147.011 74.5C147.011 74.2239 146.802 74 146.543 74H144.479C144.22 74 144.011 74.2239 144.011 74.5C144.011 74.7761 144.22 75 144.479 75H146.543C146.802 75 147.011 74.7761 147.011 74.5Z" fill="#4F95C4"/>
<path fill-rule="evenodd" clip-rule="evenodd" d="M152.011 74.5C152.011 74.2239 151.731 74 151.386 74H148.634C148.29 74 148.011 74.2239 148.011 74.5C148.011 74.7761 148.29 75 148.634 75H151.386C151.731 75 152.011 74.7761 152.011 74.5Z" fill="#4F95C4"/>
<path fill-rule="evenodd" clip-rule="evenodd" d="M148.011 78.3295V75.6712C148.011 75.3006 147.787 75 147.51 75C147.235 75 147.011 75.3006 147.011 75.6712V78.3295C147.011 78.7001 147.235 79 147.51 79C147.787 79 148.011 78.7001 148.011 78.3295Z" fill="#4F95C4"/>
<path fill-rule="evenodd" clip-rule="evenodd" d="M148.011 73.3295V70.6712C148.011 70.3006 147.787 70 147.51 70C147.235 70 147.011 70.3006 147.011 70.6712V73.3295C147.011 73.6994 147.235 74 147.51 74C147.787 74 148.011 73.6994 148.011 73.3295Z" fill="#4F95C4"/>
<path fill-rule="evenodd" clip-rule="evenodd" d="M268.717 262C279.79 253.516 290.852 244.006 297.428 236.854C306.02 227.512 310.59 219.433 311.009 212.843C311.037 212.405 310.701 212.029 310.26 212.002C309.818 211.974 309.438 212.306 309.41 212.743C308.678 224.264 294.024 241.044 267.011 261.311L268.717 262Z" fill="#92BDD8"/>
<path fill-rule="evenodd" clip-rule="evenodd" d="M304.011 227.601C304.011 227.601 308.483 232.22 317.011 224.674C317.011 224.674 307.983 219.389 304.011 227.601Z" fill="#E0E6FF"/>
<path fill-rule="evenodd" clip-rule="evenodd" d="M300.361 232C300.361 232 305.316 227.865 298.052 219C298.052 219 292.177 227.59 300.361 232Z" fill="#617FF1"/>
<path fill-rule="evenodd" clip-rule="evenodd" d="M309.503 218C309.503 218 315.775 215.847 311.546 205C311.546 205 302.883 211.012 309.503 218Z" fill="#E0E6FF"/>
<path fill-rule="evenodd" clip-rule="evenodd" d="M292.011 241.788C292.011 241.788 294.46 247.974 305.011 243.177C305.011 243.177 298.614 234.788 292.011 241.788Z" fill="#617FF1"/>
<path fill-rule="evenodd" clip-rule="evenodd" d="M287.462 245C287.462 245 293.289 241.88 287.322 232C287.322 232 279.779 239.268 287.462 245Z" fill="#E0E6FF"/>
<path fill-rule="evenodd" clip-rule="evenodd" d="M281.011 251.231C281.011 251.231 283.35 256.417 294.011 252.594C294.011 252.594 287.758 245.512 281.011 251.231Z" fill="#617FF1"/>
<path fill-rule="evenodd" clip-rule="evenodd" d="M162.154 190C154.103 178.622 146.38 166.271 142.25 157.502C136.855 146.048 134.944 136.997 136.574 130.6C136.682 130.176 137.121 129.918 137.555 130.024C137.988 130.129 138.253 130.559 138.145 130.983C135.297 142.164 144.238 162.505 164.011 189.854L162.154 190Z" fill="#7878C4"/>
<path fill-rule="evenodd" clip-rule="evenodd" d="M138.011 146.446C138.011 146.446 132.447 149.943 127.011 139.367C127.011 139.367 136.964 136.566 138.011 146.446Z" fill="#617FF1"/>
<path fill-rule="evenodd" clip-rule="evenodd" d="M140.737 152C140.737 152 136.76 146.325 147.424 140C147.424 140 150.946 150.345 140.737 152Z" fill="#AAB9F4"/>
<path fill-rule="evenodd" clip-rule="evenodd" d="M136.818 135C136.818 135 131.675 131.06 138.741 122C138.741 122 144.956 130.335 136.818 135Z" fill="#617FF1"/>
<path fill-rule="evenodd" clip-rule="evenodd" d="M146.011 163.17C146.011 163.17 141.77 168.83 133.011 160.243C133.011 160.243 141.737 153.604 146.011 163.17Z" fill="#AAB9F4"/>
<path fill-rule="evenodd" clip-rule="evenodd" d="M149.279 168C149.279 168 144.465 163.425 153.594 156C153.594 156 158.791 164.914 149.279 168Z" fill="#AAB9F4"/>
<path fill-rule="evenodd" clip-rule="evenodd" d="M153.011 175.344C153.011 175.344 149.201 180.307 141.011 173.051C141.011 173.051 148.93 167.161 153.011 175.344Z" fill="#617FF1"/>
<path fill-rule="evenodd" clip-rule="evenodd" d="M311.707 75.0043C307.223 74.9011 304.204 76.6819 301.581 78.4634C298.305 80.6893 295.649 82.9145 291.535 81.4639C284.128 78.8526 276.942 81.7227 276.229 88.6319C275.516 95.543 275.378 100.669 266.996 101.216C258.615 101.763 251.872 109.969 256.54 115.589C257.701 116.989 258.961 118.502 260.198 119.984C260.537 120.389 260.873 120.792 261.204 121.189C261.28 121.282 261.356 121.375 261.434 121.465C266.409 127.427 275.105 128.802 281.541 124.465C284.146 122.71 286.091 120.231 286.181 116.736C286.466 105.793 295.337 112.638 301.498 108.055C308.596 102.778 304.956 95.1057 310.634 91.753C318.532 87.0885 321.793 75.2372 311.707 75.0043Z" fill="#617FF1"/>
<path fill-rule="evenodd" clip-rule="evenodd" d="M303.742 86.1687L260.011 120.785C260.35 121.193 260.686 121.6 261.018 122L304.71 87.4152C305.05 87.1451 305.111 86.6474 304.844 86.3034C304.577 85.9595 304.083 85.8986 303.742 86.1687Z" fill="#75ABD1"/>
<path fill-rule="evenodd" clip-rule="evenodd" d="M278.329 56.1276C269.325 60.9624 271.714 70.2807 263.854 71.7383C255.997 73.1953 251.131 79.2444 254.029 85.5278C256.929 91.8119 259.422 96.278 252.318 100.931C245.213 105.583 243.46 115.989 250.442 118.48C252.179 119.102 254.061 119.771 255.907 120.425C256.412 120.603 256.914 120.782 257.409 120.957C257.523 120.998 257.638 121.039 257.752 121.079C265.177 123.709 273.54 120.548 276.996 113.616C278.395 110.81 278.844 107.712 277.139 104.669C271.805 95.1383 283.115 96.583 286.203 89.5763C289.763 81.5064 282.64 76.7411 285.932 71.0304C290.509 63.0867 287.333 51.2928 278.329 56.1276Z" fill="#AAB9F4"/>
<path fill-rule="evenodd" clip-rule="evenodd" d="M276.506 69.4875L256.011 120.471C256.504 120.648 256.995 120.825 257.479 121L277.955 70.0621C278.115 69.6654 277.92 69.2142 277.52 69.0555C277.12 68.8968 276.666 69.0901 276.506 69.4875Z" fill="#92BDD8"/>
<path fill-rule="evenodd" clip-rule="evenodd" d="M145.806 190.768C155.075 194.698 153.69 204.222 161.501 204.899C169.31 205.575 174.667 211.125 172.479 217.673C170.289 224.222 168.311 228.92 175.708 232.858C183.107 236.793 185.87 246.992 179.316 250.163C177.685 250.955 175.918 251.807 174.184 252.641C173.71 252.869 173.239 253.096 172.775 253.319C172.667 253.372 172.559 253.424 172.452 253.475C165.479 256.83 157.005 254.504 152.932 247.935C151.283 245.276 150.532 242.234 151.886 239.033C156.12 229.007 145.24 231.562 141.519 224.884C137.231 217.192 143.692 211.739 139.904 206.372C134.637 198.907 136.537 186.837 145.806 190.768Z" fill="#617FF1"/>
<path fill-rule="evenodd" clip-rule="evenodd" d="M148.535 203.427L175.011 253.31C174.522 253.542 174.035 253.772 173.555 254L147.103 204.162C146.896 203.774 147.049 203.293 147.445 203.09C147.84 202.887 148.328 203.038 148.535 203.427Z" fill="#75ABD1"/>
<path fill-rule="evenodd" clip-rule="evenodd" d="M123.631 213.008C133.699 213.379 135.821 222.961 143.36 220.763C150.898 218.564 157.892 221.903 158.196 228.942C158.498 235.982 158.334 241.18 166.658 242.24C174.98 243.297 181.218 252.012 176.233 257.423C174.993 258.77 173.648 260.227 172.327 261.653C171.966 262.042 171.607 262.431 171.253 262.812C171.172 262.902 171.09 262.991 171.008 263.079C165.696 268.815 156.947 269.684 150.786 264.906C148.292 262.971 146.5 260.344 146.617 256.801C146.978 245.702 137.73 252.1 131.859 247.089C125.095 241.318 129.176 233.768 123.713 230.032C116.115 224.833 113.563 212.637 123.631 213.008Z" fill="#AAB9F4"/>
<path fill-rule="evenodd" clip-rule="evenodd" d="M130.317 224.201L172.011 261.833C171.648 262.225 171.287 262.616 170.932 263L129.276 225.402C128.951 225.109 128.92 224.602 129.208 224.271C129.495 223.939 129.992 223.907 130.317 224.201Z" fill="#92BDD8"/>
<path fill-rule="evenodd" clip-rule="evenodd" d="M364.958 274C366.567 266.777 374.541 272.041 380.235 267.893C387.446 262.642 383.748 255.006 389.517 251.67C397.54 247.029 400.854 235.236 390.607 235.004C380.361 234.773 377.639 244.031 370.114 241.432C362.59 238.834 355.289 241.69 354.565 248.564C353.841 255.442 353.7 260.542 345.186 261.087C337.354 261.586 330.93 268.536 333.643 274H364.958Z" fill="#617FF1"/>
<path fill-rule="evenodd" clip-rule="evenodd" d="M348.577 274L383.707 247.369C384.051 247.108 384.112 246.626 383.842 246.293C383.573 245.961 383.074 245.902 382.73 246.163L346.011 274H348.577Z" fill="#75ABD1"/>
<path fill-rule="evenodd" clip-rule="evenodd" d="M354.904 274C355.027 273.778 355.146 273.552 355.259 273.322C356.625 270.53 357.062 267.447 355.398 264.42C350.191 254.938 361.231 256.375 364.246 249.403C367.721 241.374 360.768 236.632 363.981 230.95C368.449 223.046 365.349 211.311 356.56 216.122C347.77 220.933 350.101 230.205 342.428 231.655C334.758 233.104 330.008 239.124 332.837 245.374C335.667 251.627 338.101 256.072 331.166 260.701C326.377 263.897 324.081 269.821 325.361 274H354.904Z" fill="#AAB9F4"/>
<path fill-rule="evenodd" clip-rule="evenodd" d="M338.731 274L356.953 230.054C357.117 229.659 356.918 229.212 356.509 229.055C356.099 228.898 355.635 229.089 355.471 229.483L337.011 274H338.731Z" fill="#92BDD8"/>
<path fill-rule="evenodd" clip-rule="evenodd" d="M275.816 276H163.206C160.889 276 159.011 274.119 159.011 271.799V107.201C159.011 104.881 160.889 103 163.206 103H275.816C278.133 103 280.011 104.881 280.011 107.201V271.799C280.011 274.119 278.133 276 275.816 276Z" fill="#274FED"/>
<path fill-rule="evenodd" clip-rule="evenodd" d="M267.803 266H172.218C169.895 266 168.011 264.118 168.011 261.795V92.2051C168.011 89.8827 169.895 88 172.218 88H267.803C270.126 88 272.011 89.8827 272.011 92.2051V261.796C272.011 264.118 270.126 266 267.803 266Z" fill="#002371"/>
<path fill-rule="evenodd" clip-rule="evenodd" d="M181.011 88H258.011C258.011 86.3429 256.865 85 255.451 85H183.57C182.157 85 181.011 86.3429 181.011 88Z" fill="#26203D"/>
<path fill-rule="evenodd" clip-rule="evenodd" d="M261.011 105.559V150.439C261.011 152.405 259.438 154 257.498 154H181.523C181.139 154 180.771 153.939 180.425 153.823C179.022 153.355 178.011 152.015 178.011 150.439V105.559C178.011 103.595 179.583 102 181.523 102H257.498C259.438 102 261.011 103.595 261.011 105.559Z" fill="#1A2F84"/>
<path fill-rule="evenodd" clip-rule="evenodd" d="M203.027 154H182.103C181.721 154 181.355 153.939 181.011 153.823L231.822 102H254.011L203.027 154Z" fill="#617FF1" fill-opacity="0.37"/>
<path fill-rule="evenodd" clip-rule="evenodd" d="M178.011 135V127.473L202.71 102H210.011L178.011 135Z" fill="#617FF1" fill-opacity="0.37"/>
<path fill-rule="evenodd" clip-rule="evenodd" d="M236.323 154H229.011L261.011 122V129.312L236.323 154Z" fill="#617FF1" fill-opacity="0.37"/>
<path fill-rule="evenodd" clip-rule="evenodd" d="M197.828 166H181.194C179.436 166 178.011 164.433 178.011 162.5C178.011 160.567 179.436 159 181.194 159H197.828C199.585 159 201.011 160.567 201.011 162.5C201.011 164.433 199.585 166 197.828 166Z" fill="#B4D2E4"/>
<path fill-rule="evenodd" clip-rule="evenodd" d="M227.828 166H211.194C209.436 166 208.011 164.433 208.011 162.5C208.011 160.567 209.436 159 211.194 159H227.828C229.585 159 231.011 160.567 231.011 162.5C231.011 164.433 229.585 166 227.828 166Z" fill="#B4D2E4"/>
<path fill-rule="evenodd" clip-rule="evenodd" d="M257.827 166H241.194C239.435 166 238.011 164.433 238.011 162.5C238.011 160.567 239.435 159 241.194 159H257.827C259.585 159 261.011 160.567 261.011 162.5C261.011 164.433 259.585 166 257.827 166Z" fill="#B4D2E4"/>
<path fill-rule="evenodd" clip-rule="evenodd" d="M199.192 186H178.829C177.825 186 177.011 185.086 177.011 183.961V174.039C177.011 172.913 177.825 172 178.829 172H199.192C200.196 172 201.011 172.913 201.011 174.039V183.961C201.011 185.086 200.196 186 199.192 186Z" fill="#B4D2E4"/>
<path fill-rule="evenodd" clip-rule="evenodd" d="M229.268 186H209.754C208.791 186 208.011 185.086 208.011 183.961V174.039C208.011 172.913 208.791 172 209.754 172H229.268C230.23 172 231.011 172.913 231.011 174.039V183.961C231.011 185.086 230.23 186 229.268 186Z" fill="#B4D2E4"/>
<path fill-rule="evenodd" clip-rule="evenodd" d="M260.192 186H239.83C238.825 186 238.011 185.086 238.011 183.961V174.039C238.011 172.913 238.825 172 239.83 172H260.192C261.196 172 262.011 172.913 262.011 174.039V183.961C262.011 185.086 261.196 186 260.192 186Z" fill="#B4D2E4"/>
<path fill-rule="evenodd" clip-rule="evenodd" d="M199.192 207H178.829C177.825 207 177.011 206.153 177.011 205.107V195.892C177.011 194.847 177.825 194 178.829 194H199.192C200.196 194 201.011 194.847 201.011 195.892V205.107C201.011 206.153 200.196 207 199.192 207Z" fill="#B4D2E4"/>
<path fill-rule="evenodd" clip-rule="evenodd" d="M229.268 207H209.754C208.791 207 208.011 206.153 208.011 205.107V195.892C208.011 194.847 208.791 194 209.754 194H229.268C230.23 194 231.011 194.847 231.011 195.892V205.107C231.011 206.153 230.23 207 229.268 207Z" fill="#B4D2E4"/>
<path fill-rule="evenodd" clip-rule="evenodd" d="M260.192 207H239.83C238.825 207 238.011 206.153 238.011 205.107V195.892C238.011 194.847 238.825 194 239.83 194H260.192C261.196 194 262.011 194.847 262.011 195.892V205.107C262.011 206.153 261.196 207 260.192 207Z" fill="#B4D2E4"/>
<path fill-rule="evenodd" clip-rule="evenodd" d="M199.192 229H178.829C177.825 229 177.011 228.088 177.011 226.962V217.038C177.011 215.912 177.825 215 178.829 215H199.192C200.196 215 201.011 215.912 201.011 217.038V226.962C201.011 228.088 200.196 229 199.192 229Z" fill="#B4D2E4"/>
<path fill-rule="evenodd" clip-rule="evenodd" d="M229.268 229H209.754C208.791 229 208.011 228.088 208.011 226.962V217.038C208.011 215.912 208.791 215 209.754 215H229.268C230.23 215 231.011 215.912 231.011 217.038V226.962C231.011 228.088 230.23 229 229.268 229Z" fill="#B4D2E4"/>
<path fill-rule="evenodd" clip-rule="evenodd" d="M260.192 229H239.83C238.825 229 238.011 228.088 238.011 226.962V217.038C238.011 215.912 238.825 215 239.83 215H260.192C261.196 215 262.011 215.912 262.011 217.038V226.962C262.011 228.088 261.196 229 260.192 229Z" fill="#B4D2E4"/>
<path fill-rule="evenodd" clip-rule="evenodd" d="M199.192 250H178.829C177.825 250 177.011 249.087 177.011 247.962V238.038C177.011 236.913 177.825 236 178.829 236H199.192C200.196 236 201.011 236.913 201.011 238.038V247.962C201.011 249.087 200.196 250 199.192 250Z" fill="#2C64A1"/>
<path fill-rule="evenodd" clip-rule="evenodd" d="M229.268 250H209.754C208.791 250 208.011 249.087 208.011 247.962V238.038C208.011 236.913 208.791 236 209.754 236H229.268C230.23 236 231.011 236.913 231.011 238.038V247.962C231.011 249.087 230.23 250 229.268 250Z" fill="#4F95C4"/>
<path fill-rule="evenodd" clip-rule="evenodd" d="M260.192 250H239.83C238.825 250 238.011 249.087 238.011 247.962V238.038C238.011 236.913 238.825 236 239.83 236H260.192C261.196 236 262.011 236.913 262.011 238.038V247.962C262.011 249.087 261.196 250 260.192 250Z" fill="#0A83BA"/>
<path fill-rule="evenodd" clip-rule="evenodd" d="M363.869 253L368.011 259.245C368.011 259.245 367.175 261.968 363.971 264L359.011 256.81L363.869 253Z" fill="#EB9684"/>
<path fill-rule="evenodd" clip-rule="evenodd" d="M337.489 175.8L340.657 213.577C340.657 213.577 345.821 219.898 349.535 226.9C352.651 232.778 366.011 253.841 366.011 253.841L359.263 259L325.599 220.225L319.011 175L337.489 175.8Z" fill="#191725"/>
<path fill-rule="evenodd" clip-rule="evenodd" d="M358.011 177C358.011 177 349.478 205.179 338.868 220.242C338.868 220.242 336.996 235.094 334.202 242.963C332.974 246.405 329.595 267 329.595 267L328.338 266.787L327.592 266.655L322.011 265.708L325.643 216.588L338.858 178.038L354.809 177.17L355.656 177.129L358.011 177Z" fill="#2F3046"/>
<path fill-rule="evenodd" clip-rule="evenodd" d="M356.011 177L336.951 220.263C336.943 220.316 333.98 232.109 332.269 240.411C330.738 247.795 328.46 260.663 327.781 267L327.011 266.868C327.699 260.47 329.933 247.816 331.5 240.256C333.217 231.947 336.189 220.138 336.215 220.016L355.135 177.041L356.011 177Z" fill="#191725"/>
<path fill-rule="evenodd" clip-rule="evenodd" d="M315.275 113L307.011 130L315.749 129.209C315.749 129.209 316.582 118.92 315.275 113Z" fill="#0A83BA"/>
<path fill-rule="evenodd" clip-rule="evenodd" d="M359.011 178.331C354.453 179.982 349.857 181.194 345.222 181.968C345.006 182 344.798 182.039 344.589 182.071C344.478 182.091 344.361 182.104 344.25 182.123C344.002 182.162 343.748 182.2 343.507 182.233C343.227 182.271 342.953 182.31 342.672 182.349C339.51 182.768 336.329 182.981 333.128 183C332.476 183 331.837 182.994 331.185 182.981H331.061C330.898 182.974 330.735 182.974 330.565 182.968C330.468 182.961 330.37 182.961 330.272 182.955C326.536 182.839 322.774 182.439 318.993 181.775C318.908 180.949 318.797 179.724 318.66 178.183C318.634 177.892 318.608 177.596 318.589 177.286C318.393 175.081 318.165 172.327 317.917 169.219C317.898 168.954 317.878 168.683 317.852 168.412C317.689 166.342 317.513 164.13 317.343 161.815C317.324 161.544 317.298 161.28 317.278 161.009C317.102 158.636 316.92 156.172 316.744 153.67C316.633 152.142 316.529 150.6 316.424 149.059C316.32 147.492 316.216 145.925 316.118 144.371C316.098 144.029 316.072 143.693 316.053 143.352C315.127 128.629 314.566 115.073 315.466 113.48C316.092 112.377 317.63 111.01 319.456 109.611C319.684 109.436 319.906 109.269 320.14 109.095C320.923 108.514 327.449 105.677 328.264 105.103L335.331 104L342.425 105.728C342.731 105.87 343.038 106.006 343.344 106.154C345.991 107.373 348.605 108.669 350.157 109.856C350.379 110.023 350.581 110.191 350.757 110.359C350.9 110.494 351.024 110.623 351.128 110.752C351.22 110.868 351.324 111.068 351.428 111.352C352.563 114.37 354.082 126.481 355.471 139.689C355.503 140.005 355.529 140.321 355.568 140.637C355.601 140.953 355.634 141.269 355.666 141.585C355.699 141.907 355.731 142.223 355.764 142.539C355.803 142.958 355.849 143.377 355.894 143.803C355.92 144.087 355.953 144.384 355.979 144.667C355.992 144.816 356.005 144.957 356.025 145.099C356.038 145.203 356.044 145.312 356.057 145.415C356.116 146.028 356.175 146.641 356.233 147.253C356.292 147.782 356.344 148.304 356.396 148.833C356.898 154.025 357.368 159.1 357.765 163.582C357.883 164.853 357.994 166.071 358.091 167.232C358.111 167.497 358.137 167.768 358.157 168.025C358.567 172.804 358.874 176.512 359.011 178.331Z" fill="#4F95C4"/>
<path fill-rule="evenodd" clip-rule="evenodd" d="M358.011 163.279C352.118 171.85 344.718 178 344.718 178L343.011 165.685C345.393 160.839 350.925 150.325 355.821 140C355.854 140.321 355.886 140.641 355.919 140.962C355.951 141.289 355.984 141.61 356.016 141.93C356.055 142.355 356.101 142.781 356.146 143.212C356.172 143.5 356.205 143.801 356.231 144.089C356.244 144.24 356.257 144.384 356.276 144.528C356.289 144.632 356.295 144.743 356.308 144.848C356.367 145.47 356.425 146.091 356.484 146.713C356.542 147.249 356.594 147.779 356.646 148.316C357.147 153.583 357.614 158.732 358.011 163.279Z" fill="#0A83BA"/>
<path fill-rule="evenodd" clip-rule="evenodd" d="M326.917 126L319.011 126.222C319.011 126.222 319.547 135.613 323.707 134.968C327.868 134.323 326.917 126 326.917 126Z" fill="#0A83BA"/>
<path fill-rule="evenodd" clip-rule="evenodd" d="M349.675 167.907L349.673 167.907C342.04 168.577 335.226 165.485 330.854 162.773C326.125 159.84 323.149 156.7 323.119 156.67C322.975 156.516 322.975 156.268 323.119 156.115C323.263 155.962 323.496 155.962 323.64 156.115C323.669 156.145 326.591 159.225 331.243 162.107C335.52 164.756 342.179 167.779 349.612 167.125C349.816 167.108 349.993 167.268 350.009 167.484C350.027 167.699 349.877 167.889 349.675 167.907Z" fill="#0A83BA"/>
<path fill-rule="evenodd" clip-rule="evenodd" d="M342.067 170.922C335.456 171.571 328.537 167.959 328.223 167.793C328.039 167.695 327.959 167.448 328.045 167.239C328.131 167.032 328.351 166.942 328.534 167.039C328.616 167.083 336.757 171.329 343.573 169.849C343.775 169.802 343.966 169.952 344.004 170.178C344.042 170.404 343.912 170.622 343.712 170.665C343.169 170.783 342.619 170.867 342.067 170.922Z" fill="#0A83BA"/>
<path fill-rule="evenodd" clip-rule="evenodd" d="M330.011 159.484L334.2 170L338.011 159.889L333.451 117.692L333.278 116.103L331.465 116L330.011 159.484Z" fill="#FFFFFE"/>
<path fill-rule="evenodd" clip-rule="evenodd" d="M331.011 118.688L332.401 120L334.011 118.096L333.759 116.127L331.116 116L331.011 118.688Z" fill="#ECECEB"/>
<path fill-rule="evenodd" clip-rule="evenodd" d="M336.011 114.313L332.169 118L329.011 114.013L331.326 110L336.011 114.313Z" fill="#FFFFFE"/>
<path fill-rule="evenodd" clip-rule="evenodd" d="M336.509 103L337.763 103.662C338.109 103.844 338.446 104.036 338.768 104.249C339.736 104.892 340.104 105.358 339.991 106.633C339.973 106.83 339.943 107.002 339.903 107.139L338.595 117L331.011 109.409C331.011 109.409 335.79 107.453 336.509 103Z" fill="#0A83BA"/>
<path fill-rule="evenodd" clip-rule="evenodd" d="M328.457 104C328.457 104 326.327 106.831 327.237 109.855L328.682 115L331.011 109.219C331.011 109.219 328.948 108.017 328.457 104Z" fill="#0A83BA"/>
<path fill-rule="evenodd" clip-rule="evenodd" d="M340.958 84.998C341.479 90.9875 338.146 95.4354 332.149 95.9552C326.152 96.4762 321.587 92.4008 321.066 86.4119C320.545 80.4231 323.702 75.5774 329.698 75.057C336.89 74.4329 340.436 79.0091 340.958 84.998Z" fill="#313152"/>
<path fill-rule="evenodd" clip-rule="evenodd" d="M341.186 89C341.186 89 342.417 87.252 341.871 83.0823C341.327 78.9132 339.8 77.8461 339.8 77.8461C339.8 77.8461 341.316 74.6977 339.593 73.9579C337.871 73.2187 336.525 74.2217 336.525 74.2217C336.525 74.2217 337.564 72.2688 336.34 72.1071C335.116 71.9467 333.485 73.1965 333.485 73.1965C333.485 73.1965 324.664 70.7604 322.159 72.8403C319.654 74.9203 321.917 80.2769 322.676 80.8347L341.186 89Z" fill="#313152"/>
<path fill-rule="evenodd" clip-rule="evenodd" d="M340.187 87.2675C340.187 87.2675 341.827 84.9048 343.384 86.631C344.941 88.3579 343.516 93.926 340.011 92.8672L340.187 87.2675Z" fill="#E57563"/>
<path fill-rule="evenodd" clip-rule="evenodd" d="M340.324 92C340.451 91.9883 340.559 91.8855 340.583 91.743C340.947 89.6324 342.829 88.6122 342.847 88.6013C342.991 88.5258 343.051 88.3365 342.982 88.1792C342.913 88.0219 342.741 87.9557 342.597 88.0312C342.509 88.078 340.435 89.1955 340.016 91.6254C339.987 91.7975 340.089 91.9626 340.246 91.9953L340.324 92Z" fill="#BA4F49"/>
<path fill-rule="evenodd" clip-rule="evenodd" d="M341.846 90.9984L341.941 90.9036C342.02 90.7489 342.034 90.4598 341.973 90.2599C341.963 90.226 341.719 89.4389 341.25 89.0256C341.157 88.9421 341.054 89.0697 341.021 89.3091C340.988 89.5485 341.038 89.8104 341.132 89.8929C341.494 90.2125 341.685 90.8155 341.687 90.8223C341.726 90.9499 341.787 91.0108 341.846 90.9984Z" fill="#BA4F49"/>
<path fill-rule="evenodd" clip-rule="evenodd" d="M322.716 88.9984C322.716 88.9984 320.574 86.8465 319.33 88.8612C318.087 90.8767 320.648 96.3404 324.011 94.6957L322.716 88.9984Z" fill="#E57563"/>
<path fill-rule="evenodd" clip-rule="evenodd" d="M322.785 92.9989C322.676 93.0096 322.571 92.9407 322.531 92.8236C321.938 91.0968 320.209 90.5388 320.192 90.5335C320.06 90.492 319.983 90.3421 320.02 90.1976C320.057 90.0538 320.194 89.9695 320.326 90.0103C320.406 90.035 322.311 90.6439 322.995 92.6323C323.043 92.7728 322.978 92.9293 322.85 92.9829L322.785 92.9989Z" fill="#BA4F49"/>
<path fill-rule="evenodd" clip-rule="evenodd" d="M321.225 92L321.116 91.9775C321.02 91.9251 320.983 91.8023 321.033 91.7029C321.042 91.6864 321.246 91.2965 321.718 91.0259C321.813 90.971 321.933 91.0064 321.986 91.1043C322.039 91.2026 322.004 91.326 321.91 91.3804C321.545 91.5896 321.384 91.8892 321.382 91.8927C321.35 91.9561 321.289 91.994 321.225 92Z" fill="#BA4F49"/>
<path fill-rule="evenodd" clip-rule="evenodd" d="M328.011 99.3226L328.513 105.003C328.513 105.003 328.205 110.385 332.597 109.978C334.931 109.761 337.011 104.88 337.011 104.88L336.492 99L328.011 99.3226Z" fill="#EB9582"/>
<path fill-rule="evenodd" clip-rule="evenodd" d="M328.011 99.3049L328.213 101.687C329.771 103.173 332.327 103.351 336.011 102.456L335.717 99L328.011 99.3049Z" fill="#E57563"/>
<path fill-rule="evenodd" clip-rule="evenodd" d="M321.063 85.7612C321.35 87.8664 321.786 90.4924 322.379 92.5714C322.528 93.0897 322.686 93.5761 322.853 94.0095C324.362 97.9179 327.86 104.543 335.71 100.983C339.177 99.4122 340.489 95.3263 340.876 91.252C341.138 88.4849 340.972 85.7267 340.763 83.7633C340.548 81.7584 339.279 80.019 337.427 79.1809C332.409 76.9104 327.451 78.344 324.239 79.8932C322.01 80.9675 320.732 83.335 321.063 85.7612Z" fill="#EB9582"/>
<path fill-rule="evenodd" clip-rule="evenodd" d="M334.02 88.0549C334.095 88.6064 334.598 89.0288 335.146 88.9985C335.694 88.9676 336.076 88.4961 336.001 87.9445C335.927 87.3936 335.423 86.9712 334.875 87.0015C334.328 87.0318 333.945 87.504 334.02 88.0549Z" fill="#313152"/>
<path fill-rule="evenodd" clip-rule="evenodd" d="M326.02 89.0552C326.095 89.6068 326.599 90.0293 327.146 89.9984C327.693 89.9681 328.077 89.4965 328.001 88.9448C327.926 88.3932 327.422 87.9707 326.875 88.0016C326.328 88.0319 325.946 88.5035 326.02 89.0552Z" fill="#313152"/>
<path fill-rule="evenodd" clip-rule="evenodd" d="M325.072 85.7424C325.072 85.7424 327.227 84.5341 329.011 85.2005L328.922 86.2911C328.922 86.2911 326.381 86.2972 325.155 87C325.009 86.5977 324.96 86.1818 325.072 85.7424Z" fill="#313152"/>
<path fill-rule="evenodd" clip-rule="evenodd" d="M337.856 84.3628C337.856 84.3628 335.617 83.3779 334.011 84.6537L334.259 86C334.259 86 336.688 85.3814 337.965 85.9594C338.044 85.4191 338.029 84.8856 337.856 84.3628Z" fill="#313152"/>
<path fill-rule="evenodd" clip-rule="evenodd" d="M331.369 92.999C332.013 93.014 332.66 92.8617 332.762 92.8372C332.958 92.7889 333.06 92.6423 332.987 92.5106C332.915 92.3783 332.694 92.3106 332.497 92.3589C332.147 92.4441 331.312 92.5714 330.961 92.4197C330.893 92.3902 330.802 92.3332 330.786 92.1783C330.694 91.2862 331.215 88.3147 331.221 88.2846C331.245 88.1448 331.096 88.0182 330.885 88.0019C330.676 87.9849 330.488 88.0852 330.462 88.225C330.441 88.3492 329.928 91.2743 330.022 92.2128C330.06 92.5664 330.328 92.7532 330.546 92.8479C330.785 92.9507 331.077 92.9921 331.369 92.999Z" fill="#E57563"/>
<path fill-rule="evenodd" clip-rule="evenodd" d="M335.011 95C334.884 95.9768 334.315 97.799 331.785 97.9848C329.248 98.1711 328.37 96.6081 328.011 95.5135L335.011 95Z" fill="#FFFFFE"/>
<path fill-rule="evenodd" clip-rule="evenodd" d="M332.593 99.9918C331.856 100.054 331.198 99.7445 331.17 99.7315C331.029 99.6632 330.97 99.4973 331.041 99.3593C331.11 99.222 331.281 99.1653 331.424 99.233C331.428 99.2357 331.969 99.4877 332.544 99.4385C333.071 99.3948 333.549 99.0581 333.554 99.0547C333.681 98.9639 333.86 98.9885 333.954 99.1114C334.048 99.235 334.022 99.4085 333.896 99.5C333.871 99.5178 333.289 99.933 332.593 99.9918Z" fill="#E57563"/>
<path fill-rule="evenodd" clip-rule="evenodd" d="M321.671 89L322.855 88.9031C322.62 87.7902 322.928 86.3976 323.202 85.464C323.822 83.3469 322.017 82.5835 323.315 81.4427C324.612 80.2988 328.118 80.4549 330.522 80.1835C332.94 79.9103 336.84 79.6225 337.805 79.7524C338.772 79.8793 338.389 81.4097 338.148 82.5908C337.903 83.7701 339.532 84.9195 339.896 86.0915C340 86.4274 340.032 86.9372 340.025 87.4927L341.011 87.4116C340.995 85.9512 340.888 84.5988 340.767 83.5055C340.551 81.5902 339.282 79.9286 337.43 79.128C332.411 76.9591 327.452 78.3286 324.24 79.8085C322.01 80.8347 320.732 83.0963 321.063 85.414C321.221 86.5159 321.423 87.7671 321.671 89Z" fill="#313152"/>
<path fill-rule="evenodd" clip-rule="evenodd" d="M326.791 87.4774C325.4 87.598 324.367 88.8282 324.487 90.219C324.609 91.6105 325.838 92.6439 327.23 92.5226C328.621 92.402 329.654 91.1718 329.533 89.781C329.412 88.3896 328.183 87.3561 326.791 87.4774ZM327.27 92.9886C325.622 93.132 324.165 91.9075 324.022 90.2596C323.879 88.6117 325.103 87.1549 326.751 87.0114C328.398 86.868 329.856 88.0925 329.999 89.7404C330.143 91.3883 328.918 92.8451 327.27 92.9886Z" fill="#FFFFFE"/>
<path fill-rule="evenodd" clip-rule="evenodd" d="M334.792 86.4774C333.401 86.598 332.367 87.8282 332.488 89.2191C332.609 90.6099 333.839 91.6433 335.23 91.5227C336.621 91.4021 337.655 90.1719 337.534 88.781C337.413 87.3896 336.183 86.3561 334.792 86.4774ZM335.27 91.9887C333.623 92.1315 332.166 90.9076 332.022 89.2597C331.879 87.6118 333.103 86.1543 334.752 86.0114C336.4 85.868 337.856 87.0919 337.999 88.7404C338.143 90.3884 336.919 91.8452 335.27 91.9887Z" fill="#FFFFFE"/>
<path fill-rule="evenodd" clip-rule="evenodd" d="M324.793 88.9994C324.732 89.0032 324.67 88.9897 324.619 88.959C324.605 88.9498 323.103 88.0418 321.323 88.4734C321.198 88.5037 321.063 88.4533 321.023 88.36C320.981 88.2672 321.05 88.1672 321.175 88.1365C323.211 87.6428 324.856 88.6441 324.925 88.6869C325.026 88.7499 325.04 88.8614 324.955 88.9364C324.913 88.9739 324.854 88.995 324.793 88.9994Z" fill="#FFFFFE"/>
<path fill-rule="evenodd" clip-rule="evenodd" d="M338.252 87.9991C338.18 88.0058 338.106 87.9738 338.058 87.9056C337.982 87.7988 337.999 87.6445 338.096 87.5603C338.175 87.4908 340.072 85.8624 341.806 86.0094C341.928 86.0201 342.019 86.1383 342.01 86.2739C342 86.4088 341.894 86.5103 341.771 86.5003C340.211 86.3674 338.388 87.9317 338.37 87.9477L338.252 87.9991Z" fill="#FFFFFE"/>
<path fill-rule="evenodd" clip-rule="evenodd" d="M332.578 88.6743C332.571 88.6638 331.817 87.6134 330.928 87.7077C330.049 87.802 329.519 88.9886 329.513 89L329.011 88.6695C329.038 88.6067 329.689 87.1363 330.879 87.0087C332.061 86.883 332.972 88.161 333.011 88.2162L332.578 88.6743Z" fill="#FFFFFE"/>
<path fill-rule="evenodd" clip-rule="evenodd" d="M351 128.037L347.559 175.415C347.405 177.545 345.563 179.146 343.448 178.989L263.57 173.104C262.618 173.034 261.77 172.617 261.142 171.989C260.378 171.221 259.936 170.134 260.021 168.964L263.461 121.586C263.617 119.456 265.457 117.854 267.571 118.01L347.449 123.896C349.564 124.052 351.155 125.906 351 128.037Z" fill="#1469C5"/>
<path fill-rule="evenodd" clip-rule="evenodd" d="M351.011 133.469L350.242 144L262.011 137.531L262.779 127L351.011 133.469Z" fill="#313152"/>
<path fill-rule="evenodd" clip-rule="evenodd" d="M341.486 171L321.011 169.618L321.535 163L342.011 164.382L341.486 171Z" fill="#4F95C4"/>
<path fill-rule="evenodd" clip-rule="evenodd" d="M272.39 150.999L267.381 150.612C267.161 150.594 266.996 150.392 267.012 150.16L267.203 147.392C267.219 147.159 267.411 146.984 267.631 147.001L272.64 147.389C272.86 147.406 273.025 147.608 273.01 147.84L272.818 150.609C272.802 150.841 272.61 151.016 272.39 150.999Z" fill="#4F95C4"/>
<path fill-rule="evenodd" clip-rule="evenodd" d="M284.287 151.999L278.443 151.612C278.186 151.594 277.993 151.392 278.012 151.159L278.235 148.391C278.254 148.159 278.477 147.984 278.735 148.001L284.578 148.388C284.835 148.406 285.028 148.608 285.01 148.84L284.786 151.609C284.767 151.841 284.544 152.016 284.287 151.999Z" fill="#4F95C4"/>
<path fill-rule="evenodd" clip-rule="evenodd" d="M296.287 152.999L290.443 152.515C290.187 152.493 289.994 152.24 290.012 151.949L290.236 148.489C290.254 148.198 290.478 147.98 290.735 148.001L296.579 148.485C296.836 148.507 297.028 148.76 297.009 149.05L296.786 152.51C296.767 152.801 296.543 153.019 296.287 152.999Z" fill="#4F95C4"/>
<path fill-rule="evenodd" clip-rule="evenodd" d="M308.287 153.999L302.443 153.514C302.185 153.493 301.993 153.24 302.012 152.949L302.235 149.49C302.254 149.199 302.477 148.981 302.734 149.001L308.579 149.486C308.835 149.508 309.028 149.76 309.009 150.051L308.786 153.51C308.767 153.801 308.544 154.019 308.287 153.999Z" fill="#4F95C4"/>
<path fill-rule="evenodd" clip-rule="evenodd" d="M320.287 154.999L314.443 154.514C314.186 154.493 313.993 154.24 314.012 153.949L314.235 150.49C314.254 150.199 314.478 149.981 314.734 150.001L320.578 150.486C320.835 150.507 321.028 150.76 321.01 151.051L320.786 154.51C320.767 154.801 320.544 155.019 320.287 154.999Z" fill="#4F95C4"/>
<path fill-rule="evenodd" clip-rule="evenodd" d="M331.287 154.999L325.443 154.612C325.187 154.594 324.994 154.392 325.012 154.16C325.012 154.16 325.217 151.625 325.236 151.392C325.254 151.159 325.477 150.984 325.735 151.001L331.579 151.388C331.836 151.406 332.029 151.608 332.009 151.841L331.787 154.609C331.767 154.841 331.544 155.016 331.287 154.999Z" fill="#4F95C4"/>
<path fill-rule="evenodd" clip-rule="evenodd" d="M343.288 155.999L337.443 155.612C337.187 155.594 336.994 155.392 337.012 155.16L337.236 152.391C337.254 152.159 337.478 151.984 337.735 152.001L343.579 152.388C343.835 152.406 344.028 152.608 344.01 152.84L343.786 155.609C343.767 155.841 343.544 156.016 343.288 155.999Z" fill="#4F95C4"/>
<path fill-rule="evenodd" clip-rule="evenodd" d="M351.011 128.097L350.864 130L263.011 123.903L263.157 122L351.011 128.097Z" fill="#4F95C4"/>
<path fill-rule="evenodd" clip-rule="evenodd" d="M275.657 167.996L266.462 167.323C265.6 167.26 264.952 166.509 265.015 165.646L265.688 156.453C265.751 155.59 266.501 154.941 267.364 155.004L276.558 155.677C277.421 155.74 278.069 156.49 278.007 157.354L277.334 166.547C277.271 167.411 276.52 168.059 275.657 167.996Z" fill="#4F95C4"/>
<path fill-rule="evenodd" clip-rule="evenodd" d="M316.793 167.997L280.992 165.311C280.41 165.268 279.972 164.748 280.014 164.15L280.095 163.006C280.138 162.409 280.645 161.959 281.229 162.003L317.029 164.689C317.612 164.732 318.05 165.252 318.008 165.85L317.926 166.994C317.884 167.591 317.376 168.041 316.793 167.997Z" fill="#4F95C4"/>
<path fill-rule="evenodd" clip-rule="evenodd" d="M261.146 172C260.442 171.291 260.01 170.312 260.011 169.246C260.011 169.151 260.014 169.055 260.021 168.959L261.231 152.251L266.698 147.483L266.499 150.236C266.48 150.493 266.671 150.716 266.925 150.735L272.712 151.162C272.724 151.164 272.735 151.164 272.746 151.164C272.986 151.164 273.189 150.977 273.206 150.732L273.428 147.677C273.446 147.42 273.255 147.197 273.001 147.179L267.512 146.773L276.586 138.86L297.385 140.397L285.053 151.151L285.242 148.55C285.26 148.293 285.069 148.07 284.815 148.051L279.029 147.624C279.017 147.623 279.006 147.623 278.995 147.623C278.755 147.623 278.552 147.809 278.534 148.054L278.313 151.109C278.294 151.365 278.485 151.589 278.74 151.608L284.077 152.002L277.85 157.432C277.845 156.649 277.245 155.989 276.458 155.93L267.64 155.279C267.602 155.277 267.565 155.275 267.528 155.275C266.749 155.275 266.089 155.884 266.032 156.682L265.387 165.584C265.329 166.379 265.889 167.076 266.656 167.195L261.146 172ZM308.604 130.612L287.805 129.077L291.598 125.768L312.397 127.304L308.604 130.612ZM314.548 125.429L293.75 123.892L298.213 120L314.922 121.234L315.32 121.263L319.011 121.536L314.548 125.429Z" fill="#2C7CB3"/>
<path fill-rule="evenodd" clip-rule="evenodd" d="M297.798 140L277.011 138.507L288.223 129L309.011 130.492L297.798 140Z" fill="#45516F"/>
<path fill-rule="evenodd" clip-rule="evenodd" d="M272.42 151C272.41 151 272.4 151 272.39 150.999L267.381 150.61C267.161 150.592 266.996 150.389 267.012 150.155L267.185 147.646L267.889 147L272.64 147.37C272.86 147.386 273.025 147.59 273.01 147.823L272.818 150.607C272.803 150.83 272.627 151 272.42 151Z" fill="#6AA5CD"/>
<path fill-rule="evenodd" clip-rule="evenodd" d="M283.833 152L278.443 151.64C278.186 151.623 277.993 151.419 278.012 151.184L278.235 148.394C278.254 148.17 278.458 148 278.701 148C278.712 148 278.723 148 278.735 148.001L284.578 148.391C284.835 148.409 285.028 148.613 285.01 148.847L284.819 151.223L283.833 152Z" fill="#6AA5CD"/>
<path fill-rule="evenodd" clip-rule="evenodd" d="M311.949 128L292.011 126.199L294.073 124L314.011 125.801L311.949 128Z" fill="#6AA5CD"/>
<path fill-rule="evenodd" clip-rule="evenodd" d="M266.338 167C265.539 166.88 264.955 166.179 265.015 165.379L265.688 156.416C265.748 155.613 266.435 155 267.248 155C267.287 155 267.325 155.002 267.364 155.005L276.559 155.66C277.379 155.719 278.005 156.383 278.011 157.172L266.338 167Z" fill="#6AA5CD"/>
<path fill-rule="evenodd" clip-rule="evenodd" d="M288.719 175L279.011 174.187L288.302 165L298.011 165.813L288.719 175Z" fill="#2C7CB3"/>
<path fill-rule="evenodd" clip-rule="evenodd" d="M347.011 124L337.011 123L347.011 124Z" fill="#6AA5CD"/>
<path fill-rule="evenodd" clip-rule="evenodd" d="M302.041 163L292.011 162.259L302.55 153.058L308.204 153.476C308.216 153.477 308.227 153.477 308.238 153.477C308.474 153.477 308.673 153.293 308.691 153.051L308.909 150.038C308.928 149.785 308.739 149.564 308.489 149.546L306.723 149.415L315.666 141.608L325.696 142.35L316.753 150.157L314.43 149.985C314.419 149.984 314.407 149.983 314.396 149.983C314.161 149.983 313.96 150.168 313.943 150.41L313.773 152.758L302.041 163ZM336.753 132.696L326.723 131.955L330.463 128.691L340.492 129.433L336.753 132.696ZM342.612 127.582L332.582 126.84L336.981 123L347.011 123.742L342.612 127.582Z" fill="#2C7CB3"/>
<path fill-rule="evenodd" clip-rule="evenodd" d="M325.999 143L316.011 142.215L327.022 132L337.011 132.785L325.999 143Z" fill="#45516F"/>
<path fill-rule="evenodd" clip-rule="evenodd" d="M308.271 154C308.259 154 308.246 154 308.233 153.999L302.011 153.588L306.603 150L308.547 150.129C308.823 150.147 309.03 150.364 309.009 150.613L308.769 153.58C308.75 153.819 308.531 154 308.271 154Z" fill="#6AA5CD"/>
<path fill-rule="evenodd" clip-rule="evenodd" d="M314.011 153L314.182 150.461C314.199 150.199 314.401 150 314.638 150C314.649 150 314.661 150.001 314.672 150.001L317.011 150.188L314.011 153Z" fill="#6AA5CD"/>
<path fill-rule="evenodd" clip-rule="evenodd" d="M340.917 130L331.011 129.141L333.104 127L343.011 127.859L340.917 130Z" fill="#6AA5CD"/>
<path fill-rule="evenodd" clip-rule="evenodd" d="M298.433 166L288.011 165.208L291.588 162L302.011 162.791L298.433 166Z" fill="#6AA5CD"/>
<path fill-rule="evenodd" clip-rule="evenodd" d="M293.011 173.081L292.052 174C292.052 174 289.303 173.835 289.045 172.886C288.95 172.537 289.05 172.159 289.39 172L293.011 173.081Z" fill="#E57563"/>
<path fill-rule="evenodd" clip-rule="evenodd" d="M294.179 179.971C292.634 180.154 291.089 179.454 290.387 178.165C290.015 177.479 289.854 176.602 290.208 175.51C291.272 172.235 293.247 169.931 294.612 170.613C295.124 170.868 295.023 172.804 294.324 174.202C294.324 174.202 295.33 172.69 295.816 170.939C296.302 169.188 298.639 170.036 298.044 172.243C297.449 174.449 297.189 174.77 297.189 174.77C297.189 174.77 298.278 173.097 298.429 172.006C298.58 170.916 300.428 171.218 300.022 173.346C299.835 174.331 299.612 175.462 299.612 175.462C299.612 175.462 300.147 174.058 300.431 173.33C300.716 172.604 301.798 172.15 301.955 173.745C302.078 174.999 302.159 178.411 300.338 178.971C299.099 179.353 296.02 179.754 294.179 179.971Z" fill="#EB9582"/>
<path fill-rule="evenodd" clip-rule="evenodd" d="M324.012 177.126C323.938 175.991 326.447 176.06 327.678 175.39C328.908 174.716 331.775 172.482 331.233 171.907C330.692 171.333 329.864 170.908 329.314 170.546C328.763 170.186 328.351 169.134 328.953 169.011C329.557 168.892 331.492 169.738 332.283 170.338C332.563 170.554 333.083 171.258 333.422 171.627C333.955 172.211 334.611 172.587 335.33 172.661C335.994 171.988 336.711 171.226 337.174 170.861C338.202 170.923 341.696 173.317 340.891 175.308C339.995 176.518 338.641 177.901 338.641 177.901C333.795 182.227 330.949 182.015 329.779 181.992C328.608 181.968 328.379 180.737 328.379 180.737C327.305 180.483 327.297 179.468 327.297 179.468C325.631 179.054 325.868 177.951 325.868 177.951C325.868 177.951 324.087 178.262 324.012 177.126Z" fill="#EB9582"/>
<path fill-rule="evenodd" clip-rule="evenodd" d="M359.779 155.223C359.779 155.223 355.575 168.29 341.783 176L337.011 171.684C337.011 171.684 346.683 163.875 351.116 152.254C351.148 152.169 351.186 152.077 351.218 151.986L351.161 151.587L346.267 119.025C346.267 119.025 346.708 115.284 351.04 110C351.04 110 361.702 127.422 359.779 155.223Z" fill="#4F95C4"/>
<path fill-rule="evenodd" clip-rule="evenodd" d="M354.967 153.854C354.91 153.951 354.802 154 354.694 154L354.535 153.963C353.589 153.439 352.046 152.933 351.011 152.622C351.042 152.543 351.081 152.457 351.112 152.372L351.055 152C352.116 152.305 353.805 152.848 354.853 153.433C355.005 153.518 355.056 153.707 354.967 153.854Z" fill="#0A83BA"/>
</g>
</g>
<defs>
<clipPath id="clip0">
<rect width="477" height="318" fill="white"/>
</clipPath>
</defs>
</svg>
