<svg width="1440" height="219" viewBox="0 0 1440 219" fill="none" xmlns="http://www.w3.org/2000/svg">
<path d="M0 152.892L24 138.315C48 123.464 96 94.7202 144 94.5149C192 94.7202 240 123.464 288 116.415C336 109.092 384 65.2921 432 57.9692C480 50.9202 528 79.6639 576 101.769C624 123.464 672 138.52 720 141.942C768 145.364 816 138.52 864 116.415C912 94.7202 960 57.7639 1008 43.3921C1056 29.0202 1104 35.8639 1152 61.6649C1200 87.1921 1248 130.992 1296 152.892C1344 174.792 1392 174.792 1416 174.792H1440V218.592H1416C1392 218.592 1344 218.592 1296 218.592C1248 218.592 1200 218.592 1152 218.592C1104 218.592 1056 218.592 1008 218.592C960 218.592 912 218.592 864 218.592C816 218.592 768 218.592 720 218.592C672 218.592 624 218.592 576 218.592C528 218.592 480 218.592 432 218.592C384 218.592 336 218.592 288 218.592C240 218.592 192 218.592 144 218.592C96 218.592 48 218.592 24 218.592H0V152.892Z" fill="#1238CE" fill-opacity="0.25"/>
</svg>
